<?xml version="1.0" encoding="UTF-8" standalone="no"?>
<!-- Created with Inkscape (http://www.inkscape.org/) -->

<svg
   xmlns:dc="http://purl.org/dc/elements/1.1/"
   xmlns:cc="http://creativecommons.org/ns#"
   xmlns:rdf="http://www.w3.org/1999/02/22-rdf-syntax-ns#"
   xmlns:svg="http://www.w3.org/2000/svg"
   xmlns="http://www.w3.org/2000/svg"
   xmlns:sodipodi="http://sodipodi.sourceforge.net/DTD/sodipodi-0.dtd"
   xmlns:inkscape="http://www.inkscape.org/namespaces/inkscape"
   id="svg2"
   version="1.1"
   inkscape:version="0.48.3.1 r9886"
   width="975.69598"
   height="339.3233"
   sodipodi:docname="addition.svg">
  <metadata
     id="metadata8">
    <rdf:RDF>
      <cc:Work
         rdf:about="">
        <dc:format>image/svg+xml</dc:format>
        <dc:type
           rdf:resource="http://purl.org/dc/dcmitype/StillImage" />
        <dc:title />
      </cc:Work>
    </rdf:RDF>
  </metadata>
  <defs
     id="defs6" />
  <sodipodi:namedview
     pagecolor="#ffffff"
     bordercolor="#666666"
     borderopacity="1"
     objecttolerance="10"
     gridtolerance="10"
     guidetolerance="10"
     inkscape:pageopacity="0"
     inkscape:pageshadow="2"
     inkscape:window-width="1391"
     inkscape:window-height="876"
     id="namedview4"
     showgrid="false"
     inkscape:zoom="0.7588463"
     inkscape:cx="779.82693"
     inkscape:cy="219.98169"
     inkscape:window-x="49"
     inkscape:window-y="24"
     inkscape:window-maximized="1"
     inkscape:current-layer="svg2"
     fit-margin-top="0"
     fit-margin-left="0"
     fit-margin-right="0"
     fit-margin-bottom="0" />
  <path
     style="fill:#e69f16;fill-opacity:1"
     d="m 422.4443,335.75767 c 18.93646,-5.82817 22.92199,-8.47496 37.49054,-23.12848 0.71071,-23.56499 6.85096,-26.75683 -2.59112,-43.92542 -5.46089,-10.29388 -20.21576,-25.35623 -29.45675,-30.07064 -9.65571,-4.92596 -20.4182,-5.7367 -35.38782,-2.66574 -14.99788,3.07675 -31.89683,11.02954 -43.55838,20.4989 -10.33696,9.43904 -21.46967,29.1005 -22.40844,41.69504 -0.21348,14.28185 6.44155,27.26436 19.0411,32.65798 3.51064,1.44301 11.87697,6.07653 19.47464,6.96202 20.78671,2.42266 31.4785,2.16477 57.39623,-2.02366 z"
     id="path3808"
     inkscape:connector-curvature="0"
     sodipodi:nodetypes="cccsscccsc" />
  <path
     style="fill:#9fa2a5;fill-opacity:1;stroke:none"
     d="m 646.38631,207.83819 c 1.49277,0 21.96505,-2.34578 21.96505,-2.34578 l 6.18433,40.7313 51.82045,-15.56746 c 11.44162,4.35333 13.01132,24.41883 5.97107,29.42889 l -66.1084,-2.13253 -4.69154,-44.56984 -15.56748,3.83855 z"
     id="path4169"
     inkscape:connector-curvature="0"
     sodipodi:nodetypes="ccccccccc" />
  <path
     sodipodi:nodetypes="cccssscc"
     inkscape:connector-curvature="0"
     id="path3761"
     d="m 536.88901,162.72766 c 1.50792,0 75.99943,-3.3174 75.99943,-3.3174 l 43.42826,-0.90475 c 0,0 -14.77767,165.57016 -18.09512,165.57016 -3.31743,0 -135.1101,6.33329 -136.31645,4.52379 -1.20634,-1.80951 -15.64148,-37.75959 -5.12693,-51.26948 10.49876,-13.4896 52.47581,-9.65072 52.47581,-9.65072 z"
     style="fill:#daba20;fill-opacity:1;stroke:none" />
  <path
     style="fill:#e8d168;fill-opacity:1;stroke:none"
     d="m 536.5076,162.72764 c 1.50793,0 75.99944,-3.3174 75.99944,-3.3174 0,25.46295 -1.80953,87.18797 -1.80953,119.42765 -22.29967,-5.77127 -80.97485,-9.64296 -95.27739,-9.59418 -6.02125,-2.09944 36.97755,-5.30717 33.45248,-3.71825 z"
     id="path2991"
     inkscape:connector-curvature="0"
     sodipodi:nodetypes="cccccc" />
  <path
     style="fill:#f9f9e2;fill-opacity:1;stroke:none"
     d="m 545.63498,178.41009 4.22218,34.98388 c 0,0 52.47581,4.82536 52.47581,3.61901 0,-1.20633 1.20635,-43.42825 1.20635,-43.42825 z"
     id="path3763"
     inkscape:connector-curvature="0" />
  <path
     style="fill:#b83e34;fill-opacity:1;stroke:none"
     d="m 592.38068,285.1712 0.30158,25.03156 -105.85636,0.3016 c 0,0 -6.7594,-17.83832 -8.44439,-24.12681 10.85707,0 113.99917,-1.20635 113.99917,-1.20635 z"
     id="path3765"
     inkscape:connector-curvature="0"
     sodipodi:nodetypes="ccccc" />
  <path
     style="fill:#593c00;fill-opacity:1;stroke:none"
     d="m 576.69823,270.99675 2.26187,-0.22618 -1.05554,-10.85708 -3.39283,1.28175 c 0.81365,2.10502 1.34753,6.93476 2.1865,9.80151 z"
     id="path3769"
     inkscape:connector-curvature="0"
     sodipodi:nodetypes="ccccc" />
  <path
     style="fill:#a40000;stroke:none"
     d="m 564.9364,256.82224 2.11111,6.40869 20.58317,-2.48808 -3.16663,-6.55947 z"
     id="path3767"
     inkscape:connector-curvature="0" />
  <path
     style="fill:#593c00;fill-opacity:1;stroke:none"
     d="m 561.69438,278.98876 2.26188,3.16664 1.35714,-1.28174 -2.63887,-3.01586 z"
     id="path3773"
     inkscape:connector-curvature="0" />
  <path
     style="fill:#593c00;fill-opacity:1;stroke:none"
     d="m 517.43677,274.91736 5.42854,6.71026 2.71426,-2.1865 -6.2579,-5.65472 z"
     id="path3775"
     inkscape:connector-curvature="0" />
  <path
     style="fill:#593c00;fill-opacity:1;stroke:none"
     d="m 534.8533,264.58807 4.52378,11.83722 2.41268,-1.28175 -5.80551,-11.68641 z"
     id="path3777"
     inkscape:connector-curvature="0" />
  <path
     style="fill:#a40000;stroke:none"
     d="m 512.89001,277.25201 13.48825,-7.03735 -1.27951,-3.99849 -14.02139,7.94367 z"
     id="path3804"
     inkscape:connector-curvature="0" />
  <path
     style="fill:#a40000;stroke:none"
     d="m 532.10134,267.03844 14.58918,-4.24104 -2.37498,-4.71227 -17.07726,4.58034 z"
     id="path3806"
     inkscape:connector-curvature="0" />
  <path
     style="fill:#a40000;stroke:none"
     d="m 549.32938,282.15538 2.86507,2.33729 21.11095,-11.19635 -2.03571,-2.82735 z"
     id="path3771"
     inkscape:connector-curvature="0"
     sodipodi:nodetypes="ccccc" />
  <path
     style="fill:#ebbe65;fill-opacity:1;stroke:none"
     d="m 417.99206,258.27008 c -2.02716,-0.15928 -4.51801,1.22574 -5.56349,3.09369 -1.04549,1.86791 -0.24971,3.51132 1.77745,3.67068 2.02716,0.15928 4.518,-1.22576 5.56349,-3.09369 1.04549,-1.86793 0.24967,-3.51134 -1.77745,-3.67068 z"
     id="path3853"
     inkscape:connector-curvature="0" />
  <path
     style="fill:#ebbe65;fill-opacity:1;stroke:none"
     d="m 414.40881,267.81972 c -2.14507,-0.34553 -4.66106,1.09498 -5.61972,3.21749 -0.95861,2.12257 0.004,4.12338 2.14822,4.46891 2.14504,0.34558 4.66104,-1.09499 5.61962,-3.21763 0.95863,-2.12258 -0.004,-4.12336 -2.14821,-4.46891 z"
     id="path3855"
     inkscape:connector-curvature="0" />
  <path
     style="fill:#ebbe65;fill-opacity:1;stroke:none"
     d="m 405.19007,262.30349 c -2.30246,0.27199 -4.23114,2.21956 -4.30796,4.34987 -0.0767,2.13036 1.72749,3.63692 4.02995,3.36496 2.30246,-0.27197 4.23116,-2.21956 4.30796,-4.34989 0.0767,-2.13038 -1.72748,-3.63691 -4.02995,-3.36494 z"
     id="path3857"
     inkscape:connector-curvature="0" />
  <path
     style="fill:#4d230b;fill-opacity:1;stroke:none"
     d="m 461.06958,275.11948 c -18.01408,12.58542 -36.9677,23.87899 -52.8867,39.34514 17.51662,-2.57764 34.1532,-2.51509 50.54092,-1.70602 0.0165,0.15434 5.9192,-7.4765 2.34578,-37.63912 z"
     id="path4026"
     inkscape:connector-curvature="0"
     sodipodi:nodetypes="cccc" />
  <path
     style="fill:none;stroke:#ebbe65;stroke-width:3.11245155;stroke-linecap:butt;stroke-linejoin:miter;stroke-miterlimit:4;stroke-opacity:1;stroke-dasharray:none"
     d="m 460.91544,275.30726 c 0,0 -34.05769,16.90835 -66.21125,50.6493"
     id="path4022"
     inkscape:connector-curvature="0"
     sodipodi:nodetypes="cc" />
  <path
     style="fill:#6ba434;fill-opacity:1;stroke:none"
     d="m 430.36116,306.75111 c 3.51753,-2.22042 69.63363,-64.04903 74.85175,-58.82138 4.2023,4.21 7.6771,3.1988 16.20721,2.55904 13.42428,-1.00682 33.26744,7.14397 7.89036,13.11505 -24.37941,5.73632 -25.16384,7.03736 -20.68552,10.66265 4.47831,3.62529 -0.63977,10.92919 -4.05182,11.35571 -0.38122,6.38528 -7.39579,8.84861 -14.92769,6.4509 -9.16988,6.18431 -40.94455,21.07562 -40.94455,21.07562 l -22.6048,0 z"
     id="path4028"
     inkscape:connector-curvature="0"
     sodipodi:nodetypes="cssssccccc" />
  <path
     style="fill:none;stroke:#ebbe65;stroke-width:3.11245155;stroke-linecap:butt;stroke-linejoin:miter;stroke-miterlimit:4;stroke-opacity:1;stroke-dasharray:none"
     d="m 459.70909,312.40222 c -0.60316,0.15086 -44.03141,-1.20642 -59.56304,6.93645"
     id="path4024"
     inkscape:connector-curvature="0"
     sodipodi:nodetypes="cc" />
  <path
     sodipodi:nodetypes="ccccc"
     inkscape:connector-curvature="0"
     id="path4117"
     style="font-size:81px;font-style:normal;font-variant:normal;font-weight:bold;font-stretch:normal;line-height:125%;letter-spacing:0px;word-spacing:0px;fill:#3659a9;fill-opacity:1;stroke:none;font-family:Horseshoes and Lemonade;-inkscape-font-specification:Horseshoes and Lemonade Bold"
     d="M 0,124.97042 6.9700603,11.373245 63.916936,8.258963 71.331894,128.08468 0,124.97042" />
  <path
     sodipodi:nodetypes="ccccc"
     inkscape:connector-curvature="0"
     id="path4121"
     style="font-size:81px;font-style:normal;font-variant:normal;font-weight:bold;font-stretch:normal;line-height:125%;letter-spacing:0px;word-spacing:0px;fill:#3659a9;fill-opacity:1;stroke:none;font-family:Horseshoes and Lemonade;-inkscape-font-specification:Horseshoes and Lemonade Bold"
     d="m 228.93382,122.16172 -71.0353,-2.966 6.82176,-113.5971541 56.94688,-2.9659831 7.26666,119.5291372" />
  <path
     sodipodi:nodetypes="ccccc"
     inkscape:connector-curvature="0"
     id="path4123"
     style="font-size:81px;font-style:normal;font-variant:normal;font-weight:bold;font-stretch:normal;line-height:125%;letter-spacing:0px;word-spacing:0px;fill:#3659a9;fill-opacity:1;stroke:none;font-family:Horseshoes and Lemonade;-inkscape-font-specification:Horseshoes and Lemonade Bold"
     d="m 263.63025,127.23167 7.26666,-116.859717 57.24348,-2.9659829 6.82176,115.3767199 -71.3319,4.44898" />
  <path
     sodipodi:nodetypes="ccccc"
     inkscape:connector-curvature="0"
     id="path4125"
     style="font-size:81px;font-style:normal;font-variant:normal;font-weight:bold;font-stretch:normal;line-height:125%;letter-spacing:0px;word-spacing:0px;fill:#3659a9;fill-opacity:1;stroke:none;font-family:Horseshoes and Lemonade;-inkscape-font-specification:Horseshoes and Lemonade Bold"
     d="m 369.26065,125.52565 7.26666,-116.8597193 57.24347,-2.9659831 6.82176,115.3767224 -71.33189,4.44898" />
  <path
     sodipodi:nodetypes="ccccc"
     inkscape:connector-curvature="0"
     id="path4127"
     style="font-size:81px;font-style:normal;font-variant:normal;font-weight:bold;font-stretch:normal;line-height:125%;letter-spacing:0px;word-spacing:0px;fill:#3659a9;fill-opacity:1;stroke:none;font-family:Horseshoes and Lemonade;-inkscape-font-specification:Horseshoes and Lemonade Bold"
     d="M 476.98484,119.30723 484.3998,6.8964929 541.49498,5.4135014 547.57524,124.646 l -70.5904,-5.33877" />
  <path
     sodipodi:nodetypes="ccccc"
     inkscape:connector-curvature="0"
     id="path4129"
     style="font-size:81px;font-style:normal;font-variant:normal;font-weight:bold;font-stretch:normal;line-height:125%;letter-spacing:0px;word-spacing:0px;fill:#3659a9;fill-opacity:1;stroke:none;font-family:Horseshoes and Lemonade;-inkscape-font-specification:Horseshoes and Lemonade Bold"
     d="M 586.01713,126.05428 588.53822,4.4489747 650.23066,0 l 7.41496,118.49101 -71.62849,7.56325" />
  <path
     sodipodi:nodetypes="ccccc"
     inkscape:connector-curvature="0"
     id="path4131"
     style="font-size:81px;font-style:normal;font-variant:normal;font-weight:bold;font-stretch:normal;line-height:125%;letter-spacing:0px;word-spacing:0px;fill:#3659a9;fill-opacity:1;stroke:none;font-family:Horseshoes and Lemonade;-inkscape-font-specification:Horseshoes and Lemonade Bold"
     d="M 690.30474,117.60121 697.7197,5.1904704 754.81487,3.7074789 760.89514,122.93998 690.30474,117.60121" />
  <path
     sodipodi:nodetypes="ccccsccccccccccccccccccc"
     inkscape:connector-curvature="0"
     id="path4096"
     style="font-size:81px;font-style:normal;font-variant:normal;font-weight:bold;font-stretch:normal;line-height:125%;letter-spacing:0px;word-spacing:0px;fill:#81bbe1;fill-opacity:1;stroke:none;font-family:Horseshoes and Lemonade;-inkscape-font-specification:Horseshoes and Lemonade Bold"
     d="m 54.965725,87.57889 -3.41088,0.741496 c -0.296652,2.273953 -0.790982,4.498439 -1.482992,6.673462 -0.692114,2.076215 -1.532476,4.201835 -2.521086,6.376862 -1.18644,1.77961 -2.619999,3.1143 -4.300675,4.00408 -1.680768,0.88981 -3.410923,1.33471 -5.19047,1.33469 -1.087566,2e-5 -2.076227,-0.29658 -2.965984,-0.88979 -0.790965,-0.59318 -1.235862,-1.63127 -1.334692,-3.11429 l 3.410881,-61.989043 c -3.9e-5,-0.691979 0.09883,-1.433474 0.296598,-2.224487 0.197692,-0.889709 0.49429,-1.680636 0.889795,-2.372787 0.395424,-0.691975 0.939186,-1.285169 1.631291,-1.77959 0.69202,-0.494241 1.631246,-0.741406 2.817684,-0.741495 l 0.148299,-3.55918 -23.876164,-1.77959 0,3.55918 c 1.977298,0.197823 3.213124,0.988752 3.707479,2.372786 0.593171,1.285347 0.889769,2.372874 0.889794,3.262582 L 22.636509,103.4469 c -2.5e-5,1.48301 -0.296622,2.71884 -0.889795,3.70748 -0.59322,0.88981 -1.829044,1.48301 -3.707478,1.77959 l 0,3.55918 38.854378,-2.07619 -1.927889,-22.83807" />
  <path
     sodipodi:nodetypes="cccccccccccccccccccccccccccccc"
     inkscape:connector-curvature="0"
     id="path4100"
     style="font-size:81px;font-style:normal;font-variant:normal;font-weight:bold;font-stretch:normal;line-height:125%;letter-spacing:0px;word-spacing:0px;fill:#81bbe1;fill-opacity:1;stroke:none;font-family:Horseshoes and Lemonade;-inkscape-font-specification:Horseshoes and Lemonade Bold"
     d="m 222.0588,104.04908 c -2.274,-0.19771 -3.85584,-1.13694 -4.74558,-2.81768 -0.88985,-1.680702 -1.58191,-3.509723 -2.07618,-5.487069 l -16.46121,-71.480193 -6.97006,0 -15.27482,72.666586 c -0.19775,0.988685 -0.44492,2.026778 -0.7415,3.114286 -0.29661,0.98868 -0.69208,1.92791 -1.18639,2.81768 -0.49435,0.88981 -1.13698,1.63131 -1.92789,2.22449 -0.69208,0.49435 -1.63131,0.74151 -2.81768,0.74149 l 0,3.26259 16.16461,0.88979 0,-3.26258 c -1.77961,-0.19772 -3.16374,-0.64262 -4.15238,-1.33469 -0.88981,-0.79092 -1.33471,-2.17504 -1.33469,-4.15238 -2e-5,-0.59318 -2e-5,-1.08751 0,-1.482992 -2e-5,-0.494308 0.0989,-1.087505 0.2966,-1.779589 l 2.96599,-13.940121 14.68161,0.889795 3.70748,12.605428 c 0.29656,1.087549 0.44486,2.422242 0.4449,4.004079 -4e-5,1.18641 -0.3955,2.02677 -1.18639,2.52108 -0.79097,0.49435 -1.8785,0.84038 -3.26259,1.0381 l 0,3.26258 24.17277,-1.03809 -0.2966,-3.26259 m -37.22309,-24.469357 5.93197,-31.142822 6.82176,32.032617 -12.75373,-0.889795" />
  <path
     sodipodi:nodetypes="ccccccccccccccccccccccccccccccccccccccccccccsccccccc"
     inkscape:connector-curvature="0"
     id="path4102"
     style="font-size:81px;font-style:normal;font-variant:normal;font-weight:bold;font-stretch:normal;line-height:125%;letter-spacing:0px;word-spacing:0px;fill:#81bbe1;fill-opacity:1;stroke:none;font-family:Horseshoes and Lemonade;-inkscape-font-specification:Horseshoes and Lemonade Bold"
     d="m 309.84633,42.384431 c 0.4943,1.581937 0.69203,3.954721 0.5932,7.11836 l -1.48299,44.638046 c -4e-5,0.790958 -0.0989,1.730184 -0.2966,2.817683 -0.19777,0.988687 -0.44494,1.977346 -0.7415,2.965984 -0.29663,0.988686 -0.6921,1.878476 -1.18639,2.669386 -0.49437,0.79095 -1.08756,1.33471 -1.77959,1.63129 -0.59323,0.19775 -1.48303,0.29662 -2.66939,0.2966 -1.08756,-0.0989 -2.12565,-0.14828 -3.11428,-0.1483 -0.6921,2e-5 -1.38416,-0.0988 -2.07619,-0.2966 -0.59321,-0.19771 -1.08754,-0.69204 -1.48299,-1.48299 -0.19775,-0.49431 -0.34605,-1.23581 -0.44489,-2.22449 -0.0989,-1.087502 -0.1483,-1.73013 -0.1483,-1.927888 l -1.3347,-53.980892 c -0.0989,-1.878376 0.19772,-3.361366 0.8898,-4.448975 0.69204,-1.186309 1.87844,-1.730073 3.55918,-1.631291 1.08749,8.4e-5 2.17502,0.04953 3.26258,0.148299 1.18636,8.5e-5 2.32332,0.04953 3.41088,0.148299 0.0989,8.5e-5 0.346,0.04953 0.7415,0.1483 0.49429,0.09896 0.98862,0.296682 1.48299,0.593196 0.59316,0.296683 1.13692,0.692145 1.63129,1.186393 0.59316,0.494413 0.98862,1.08761 1.18639,1.77959 m 16.01631,30.549626 c 0.0989,-1.087476 0.1483,-2.3233 0.1483,-3.707479 0.0989,-1.38407 0.19768,-2.669328 0.2966,-3.855778 0.0989,-1.186334 0.1483,-2.174993 0.1483,-2.965983 0.0989,-0.889732 0.1483,-1.433496 0.1483,-1.63129 -6e-5,-3.460248 -0.24722,-6.179062 -0.7415,-8.156454 -0.39552,-1.977249 -1.03815,-4.004002 -1.92789,-6.080265 -1.28531,-2.965903 -3.2132,-5.585853 -5.78367,-7.859856 -1.48304,-1.285173 -3.41091,-2.323265 -5.78366,-3.114282 -2.37283,-0.889707 -4.74561,-1.532335 -7.11836,-1.927889 -2.37283,-0.494241 -4.49845,-0.840272 -6.37687,-1.038094 -1.87849,-0.197641 -3.01543,-0.296507 -3.41088,-0.296598 -3.16373,9.1e-5 -6.03085,0.09896 -8.60135,0.296598 -2.57053,0.09896 -5.33879,0.296688 -8.30475,0.593197 l 0,5.338769 c 1.9773,0.296683 3.21313,0.840446 3.70748,1.631291 0.49431,0.791011 0.79091,1.730237 0.88979,2.817684 l 4.00408,61.840752 c 0.19771,2.6694 -1.33471,4.00409 -4.59727,4.00407 l 0,5.04217 c 2.2739,1e-5 3.95462,0.0495 5.04217,0.1483 1.08751,0.0989 2.47163,0.14832 4.15237,0.1483 1.77958,1e-5 3.85576,-0.1483 6.22857,-0.44489 2.37275,-0.29659 4.79497,-0.79092 7.26666,-1.483 2.57048,-0.79091 5.04213,-1.87844 7.41496,-3.26258 2.47161,-1.38411 4.54778,-3.16369 6.22856,-5.33877 1.08747,-1.3841 2.0267,-3.26256 2.81768,-5.635365 0.79088,-2.471626 1.43351,-5.091574 1.92789,-7.859856 0.59314,-2.86708 1.03804,-5.783628 1.3347,-8.74965 0.39541,-3.064803 0.692,-5.882485 0.88979,-8.453052" />
  <path
     sodipodi:nodetypes="ccccccccccccccccccccccccccccccccccccccccccccsccccccc"
     inkscape:connector-curvature="0"
     id="path4104"
     style="font-size:81px;font-style:normal;font-variant:normal;font-weight:bold;font-stretch:normal;line-height:125%;letter-spacing:0px;word-spacing:0px;fill:#81bbe1;fill-opacity:1;stroke:none;font-family:Horseshoes and Lemonade;-inkscape-font-specification:Horseshoes and Lemonade Bold"
     d="m 415.47673,40.678409 c 0.49427,1.581936 0.692,3.954721 0.59319,7.118359 l -1.48299,44.638046 c -5e-5,0.790958 -0.0989,1.730184 -0.2966,2.817684 -0.19778,0.988687 -0.44495,1.977346 -0.74149,2.965983 -0.29666,0.988683 -0.69212,1.878479 -1.1864,2.669389 -0.49438,0.79094 -1.08756,1.33471 -1.77959,1.63129 -0.59323,0.19775 -1.48302,0.29661 -2.66938,0.29659 -1.08756,-0.0988 -2.12566,-0.14828 -3.11428,-0.14829 -0.6921,10e-6 -1.38417,-0.0988 -2.07619,-0.2966 -0.59323,-0.19771 -1.08757,-0.69205 -1.48299,-1.48299 -0.19777,-0.49431 -0.34607,-1.235808 -0.4449,-2.224491 -0.0989,-1.087504 -0.1483,-1.730132 -0.1483,-1.927889 l -1.33469,-53.980893 c -0.0989,-1.878375 0.19769,-3.361365 0.88979,-4.448975 0.69203,-1.186309 1.87842,-1.730072 3.55918,-1.63129 1.08749,8.4e-5 2.17502,0.04952 3.26258,0.148299 1.18636,8.4e-5 2.32332,0.04952 3.41088,0.148299 0.0989,8.4e-5 0.346,0.04952 0.7415,0.148299 0.49429,0.09896 0.98861,0.296683 1.48299,0.593197 0.59314,0.296682 1.13691,0.692145 1.63129,1.186393 0.59314,0.494413 0.98861,1.08761 1.1864,1.77959 m 16.0163,30.549626 c 0.0989,-1.087476 0.1483,-2.3233 0.1483,-3.707479 0.0989,-1.384071 0.19766,-2.669328 0.2966,-3.855778 0.0989,-1.186335 0.1483,-2.174994 0.1483,-2.965983 0.0989,-0.889733 0.1483,-1.433496 0.1483,-1.631291 -7e-5,-3.460248 -0.24724,-6.179062 -0.7415,-8.156453 -0.39553,-1.977249 -1.03816,-4.004003 -1.92788,-6.080266 -1.28532,-2.965902 -3.21321,-5.585852 -5.78367,-7.859855 -1.48305,-1.285173 -3.41094,-2.323266 -5.78367,-3.114282 -2.37284,-0.889707 -4.74563,-1.532335 -7.11836,-1.927889 -2.37282,-0.494241 -4.49844,-0.840272 -6.37686,-1.038094 -1.87849,-0.197641 -3.01545,-0.296507 -3.41088,-0.296599 -3.16375,9.2e-5 -6.03087,0.09896 -8.60135,0.296599 -2.57054,0.09896 -5.33879,0.296688 -8.30476,0.593196 l 0,5.33877 c 1.97731,0.296682 3.21313,0.840446 3.70748,1.631291 0.49432,0.791011 0.79091,1.730237 0.8898,2.817683 l 4.00408,61.840745 c 0.19771,2.6694 -1.33472,4.0041 -4.59728,4.00408 l 0,5.04217 c 2.2739,10e-6 3.95463,0.0494 5.04217,0.1483 1.08749,0.0989 2.47162,0.14832 4.15238,0.1483 1.77955,10e-6 3.85574,-0.1483 6.22856,-0.4449 2.37275,-0.29659 4.79497,-0.79092 7.26666,-1.48299 2.57047,-0.79092 5.04212,-1.87844 7.41496,-3.26258 2.4716,-1.38411 4.54779,-3.1637 6.22856,-5.33877 1.08748,-1.3841 2.0267,-3.262558 2.81769,-5.635368 0.79087,-2.471625 1.4335,-5.091573 1.92789,-7.859855 0.59314,-2.867081 1.03802,-5.783629 1.33469,-8.74965 0.39539,-3.064804 0.69199,-5.882486 0.88979,-8.453052" />
  <path
     sodipodi:nodetypes="ccccccccccccccccccc"
     inkscape:connector-curvature="0"
     id="path4106"
     style="font-size:81px;font-style:normal;font-variant:normal;font-weight:bold;font-stretch:normal;line-height:125%;letter-spacing:0px;word-spacing:0px;fill:#81bbe1;fill-opacity:1;stroke:none;font-family:Horseshoes and Lemonade;-inkscape-font-specification:Horseshoes and Lemonade Bold"
     d="m 523.64582,110.09257 0,-3.55918 c -0.59323,-0.19772 -1.33473,-0.64262 -2.22449,-1.3347 -0.79096,-0.69204 -1.43359,-1.2358 -1.92789,-1.63129 -0.3955,-0.49431 -0.64266,-1.2358 -0.74149,-2.22448 -0.0989,-1.08751 -0.1483,-1.680706 -0.1483,-1.779594 l 3.41088,-61.395851 c 0.29656,-1.384039 0.84032,-2.422133 1.63129,-3.114282 0.88976,-0.691975 2.02672,-1.235738 3.41088,-1.631291 l 0,-3.559179 -23.13467,-1.927889 0,3.559179 c 1.87844,0.692153 3.11426,1.631381 3.70748,2.817684 0.69204,1.087613 0.98864,2.768337 0.88979,5.042172 l -1.33469,62.137341 c -0.39548,0.98869 -0.98868,1.87848 -1.77959,2.66939 -0.69208,0.79094 -2.12564,1.38414 -4.30067,1.77959 l 0,4.15238 22.54147,0" />
  <path
     sodipodi:nodetypes="ccccccccccccccccccccccccccc"
     inkscape:connector-curvature="0"
     id="path4108"
     style="font-size:81px;font-style:normal;font-variant:normal;font-weight:bold;font-stretch:normal;line-height:125%;letter-spacing:0px;word-spacing:0px;fill:#81bbe1;fill-opacity:1;stroke:none;font-family:Horseshoes and Lemonade;-inkscape-font-specification:Horseshoes and Lemonade Bold"
     d="m 644.54204,24.449221 -44.78635,4.152377 1.18639,24.172762 4.00408,-0.889795 c 0.19772,-2.669313 0.59318,-5.338696 1.1864,-8.008154 0.69204,-2.768173 1.58183,-4.992656 2.66938,-6.673462 1.38409,-0.988577 3.21311,-1.68064 5.48707,-2.076189 l 2.37279,65.84483 c -0.19777,1.38414 -0.59324,2.61996 -1.1864,3.70747 -0.59323,0.98868 -1.43359,1.68074 -2.52108,2.07619 -0.49437,2e-5 -1.03813,2e-5 -1.63129,0 -0.49437,2e-5 -0.9887,0.0494 -1.483,0.1483 l 0,4.74557 23.72787,-1.18639 0,-4.74557 c -0.88985,-0.0989 -1.73021,-0.29659 -2.52109,-0.5932 -0.79098,-0.29658 -1.43361,-0.84034 -1.92789,-1.63129 -0.39552,-0.79091 -0.64268,-1.6807 -0.74149,-2.66938 -0.0989,-1.087511 -0.1483,-1.927871 -0.1483,-2.521089 l 0.1483,-65.10333 4.00408,0.444898 c 0.9886,0.39555 1.8784,1.186479 2.66938,2.372786 0.79087,1.087612 1.48294,2.422302 2.07619,4.004078 0.59314,1.581936 1.08747,3.312091 1.48299,5.19047 0.49428,1.779663 0.88974,3.559251 1.18639,5.33877 l 3.26258,0 1.483,-26.100652" />
  <path
     sodipodi:nodetypes="ccccccccccccccccccc"
     inkscape:connector-curvature="0"
     id="path4110"
     style="font-size:81px;font-style:normal;font-variant:normal;font-weight:bold;font-stretch:normal;line-height:125%;letter-spacing:0px;word-spacing:0px;fill:#81bbe1;fill-opacity:1;stroke:none;font-family:Horseshoes and Lemonade;-inkscape-font-specification:Horseshoes and Lemonade Bold"
     d="m 736.96571,108.38654 0,-3.55918 c -0.59323,-0.19771 -1.33473,-0.64261 -2.22448,-1.33469 -0.79097,-0.69204 -1.4336,-1.23581 -1.92789,-1.63129 -0.3955,-0.49431 -0.64267,-1.23581 -0.7415,-2.224487 -0.0989,-1.087505 -0.1483,-1.680702 -0.1483,-1.77959 l 3.41088,-61.39585 c 0.29656,-1.38404 0.84033,-2.422134 1.63129,-3.114282 0.88976,-0.691975 2.02672,-1.235739 3.41088,-1.631291 l 0,-3.55918 -23.13466,-1.927889 0,3.55918 c 1.87843,0.692152 3.11426,1.63138 3.70747,2.817684 0.69205,1.087613 0.98865,2.768337 0.8898,5.042171 l -1.33469,62.137346 c -0.39549,0.988678 -0.98868,1.878478 -1.77959,2.669388 -0.69208,0.79094 -2.12564,1.38414 -4.30068,1.77959 l 0,4.15237 22.54147,0" />
  <g
     id="g4159"
     transform="matrix(1.8308538,0,0,1.8308538,-21.948154,-25.590447)">
    <path
       d="m 446.91964,81.327989 4.779,-65.448 32.886,1.62 2.106,62.208 -39.771,1.62"
       style="font-size:81px;font-style:normal;font-variant:normal;font-weight:bold;font-stretch:normal;line-height:125%;letter-spacing:0px;word-spacing:0px;fill:#3659a9;fill-opacity:1;stroke:none;font-family:Horseshoes and Lemonade;-inkscape-font-specification:Horseshoes and Lemonade Bold"
       id="path4133"
       inkscape:connector-curvature="0"
       sodipodi:nodetypes="ccccc" />
    <path
       d="m 481.39655,49.483989 c -4e-5,-1.997967 -0.054,-3.914965 -0.162,-5.751 -0.10804,-1.889961 -0.45904,-3.968959 -1.053,-6.237 -0.43203,-1.835955 -0.94503,-3.320953 -1.539,-4.455 -0.59403,-1.133951 -1.43103,-2.18695 -2.511,-3.159 -2.37603,-2.267947 -4.86003,-3.401946 -7.452,-3.402 -1.45802,5.4e-5 -2.75402,0.297054 -3.888,0.891 -1.08002,0.594053 -2.05202,1.404052 -2.916,2.43 -0.86402,1.02605 -1.64702,2.268049 -2.349,3.726 -0.64801,1.404046 -1.29601,2.943044 -1.944,4.617 -0.21601,0.648042 -0.43201,1.512041 -0.648,2.592 -0.21601,1.026039 -0.43201,2.106038 -0.648,3.24 -0.16201,1.134036 -0.29701,2.187035 -0.405,3.159 -0.10801,0.972033 -0.16201,1.701032 -0.162,2.187 -1e-5,1.13403 -1e-5,2.376029 0,3.726 -1e-5,1.350026 0.027,2.673025 0.081,3.969 0.054,1.242023 0.13499,2.403021 0.243,3.483 0.10799,1.080019 0.24299,1.944018 0.405,2.592 0.37799,1.404016 0.91799,2.808015 1.62,4.212 0.75599,1.350012 1.61999,2.565011 2.592,3.645 1.02598,1.080009 2.13298,1.944008 3.321,2.592 1.18798,0.648007 2.48398,0.972006 3.888,0.972 2.37597,6e-6 4.56297,-0.944993 6.561,-2.835 1.99797,-1.889989 3.53697,-4.508986 4.617,-7.857 1.02597,-3.07798 1.67396,-5.885977 1.944,-8.424 0.26996,-2.537972 0.40496,-4.50897 0.405,-5.913 m -7.047,-1.134 c -0.054,2.91603 -0.18903,5.778027 -0.405,8.586 -0.21603,2.754021 -0.70203,5.589018 -1.458,8.505 -0.91803,3.456012 -2.29503,5.18401 -4.131,5.184 -0.97202,1e-5 -1.75502,-0.566989 -2.349,-1.701 -0.59402,-1.133987 -1.02602,-2.294986 -1.296,-3.483 -0.32402,-1.511983 -0.54002,-2.969982 -0.648,-4.374 -0.10802,-1.403979 -0.16202,-2.888977 -0.162,-4.455 -2e-5,-1.025975 -2e-5,-2.294973 0,-3.807 0.054,-1.56597 0.10798,-3.212969 0.162,-4.941 0.10798,-1.727965 0.21598,-3.455964 0.324,-5.184 0.16198,-1.78196 0.35098,-3.428958 0.567,-4.941 0.37798,-2.753954 0.99898,-4.805952 1.863,-6.156 0.91798,-1.403949 1.94398,-2.105949 3.078,-2.106 0.64797,5.1e-5 1.18797,0.216051 1.62,0.648 0.48597,0.43205 0.89097,1.02605 1.215,1.782 0.32397,0.756048 0.59397,1.647047 0.81,2.673 0.26997,0.972045 0.48597,2.025044 0.648,3.159 0.26997,1.566042 0.35097,3.21304 0.243,4.941 -0.054,1.674036 -0.081,3.564035 -0.081,5.67"
       style="font-size:81px;font-style:normal;font-variant:normal;font-weight:bold;font-stretch:normal;line-height:125%;letter-spacing:0px;word-spacing:0px;fill:#81bbe1;fill-opacity:1;stroke:none;font-family:Horseshoes and Lemonade;-inkscape-font-specification:Horseshoes and Lemonade Bold"
       id="path4112"
       inkscape:connector-curvature="0"
       sodipodi:nodetypes="cccccccccccccccccccccssccccccccccccccccccccccc" />
  </g>
  <g
     id="g4155"
     transform="matrix(1.8308538,0,0,1.8308538,210.54895,-29.252155)">
    <path
       d="m 417.91816,79.07632 -39.609,2.34901 2.106,-64.47601 32.724,1.62 4.779,60.507"
       style="font-size:81px;font-style:normal;font-variant:normal;font-weight:bold;font-stretch:normal;line-height:125%;letter-spacing:0px;word-spacing:0px;fill:#3659a9;fill-opacity:1;stroke:none;font-family:Horseshoes and Lemonade;-inkscape-font-specification:Horseshoes and Lemonade Bold"
       id="path4135"
       inkscape:connector-curvature="0"
       sodipodi:nodetypes="ccccc" />
    <path
       d="m 411.89507,29.25033 -8.991,-0.486 0,1.863 c 0.53998,0.108051 1.02598,0.216051 1.458,0.324 0.43198,0.05405 0.86398,0.216051 1.296,0.486 0.21598,0.59405 0.35098,1.161049 0.405,1.701 0.054,0.540048 0.081,1.107048 0.081,1.701 l -0.405,23.814 -10.287,-27.135 -10.935,-0.648 0,1.863 c 0.216,-0.05395 0.54,-0.08095 0.972,-0.081 0.27,4.9e-5 0.54,0.02705 0.81,0.081 0.32399,4.9e-5 0.62099,0.02705 0.891,0.081 0.26999,0.378049 0.43199,0.918048 0.486,1.62 0.10799,0.648047 0.18899,1.296046 0.243,1.944 l 1.539,32.157 c -0.054,0.918012 -0.10801,1.620012 -0.162,2.106 -0.054,0.432011 -0.16201,0.86401 -0.324,1.296 -0.27001,0.594009 -0.62101,1.080009 -1.053,1.458 -0.37801,0.324008 -0.94501,0.540008 -1.701,0.648 l 0,1.782 10.449,-0.486 0,-1.782 c -0.70201,8e-6 -1.35001,-0.242991 -1.944,-0.729 -0.59401,-0.53999 -1.05301,-1.727989 -1.377,-3.564 l -1.539,-28.674 13.284,31.023 3.24,0 0.243,-36.774 c -3e-5,-0.539952 0.027,-1.106952 0.081,-1.701 0.054,-0.647951 0.26997,-1.13395 0.648,-1.458 0.26997,-0.21595 0.67497,-0.35095 1.215,-0.405 0.53997,-0.05395 0.99897,-0.107949 1.377,-0.162 l 0,-1.863"
       style="font-size:81px;font-style:normal;font-variant:normal;font-weight:bold;font-stretch:normal;line-height:125%;letter-spacing:0px;word-spacing:0px;fill:#81bbe1;fill-opacity:1;stroke:none;font-family:Horseshoes and Lemonade;-inkscape-font-specification:Horseshoes and Lemonade Bold"
       id="path4114"
       inkscape:connector-curvature="0"
       sodipodi:nodetypes="ccccccccccccccccccccccccccccccccccc" />
  </g>
  <path
     style="fill:#3659a9;fill-opacity:1;stroke:none"
     d="m 92.781882,10.152811 23.244558,-1.0662636 2.98554,42.1723216 -28.149373,4.47831 z"
     id="path4163"
     inkscape:connector-curvature="0"
     sodipodi:nodetypes="ccccc" />
  <path
     style="fill:#81bbe1;fill-opacity:1;stroke:none"
     d="m 100.45898,16.763649 9.16988,1.706022 -0.63976,21.751792 -8.53012,-1.919275 z"
     id="path4165"
     inkscape:connector-curvature="0" />
  <path
     sodipodi:nodetypes="ccccc"
     inkscape:connector-curvature="0"
     id="path4171"
     d="m 679.64723,244.28271 41.75209,-12.30675 c 1.95969,15.45184 2.4956,19.30017 2.58842,27.95711 l -45.2076,-1.34136 c -0.28428,-7.15417 0.21205,-9.76028 0.86709,-14.309 z"
     style="fill:#ae3a38;fill-opacity:1;stroke:none" />
  <path
     style="fill:#452200;fill-opacity:1;stroke:none"
     d="m 426.23588,249.0869 c 0,0 7.03283,5.13128 2.09602,8.81701 -4.35664,3.25261 -11.32282,-1.56543 -11.32282,-1.56543 7.27083,0.0904 9.45282,-0.362 9.2268,-7.25152 z"
     id="path4173"
     inkscape:connector-curvature="0"
     sodipodi:nodetypes="csccc" />
  <path
     sodipodi:nodetypes="csccc"
     inkscape:connector-curvature="0"
     id="path4189"
     d="m 431.57465,247.32343 c 0,0 -1.36731,7.08774 3.71089,6.53413 4.48147,-0.48851 4.01209,-4.69601 4.01209,-4.69601 -3.60355,1.11169 -4.57572,0.59504 -7.72298,-1.83818 z"
     style="fill:#452200;fill-opacity:1;stroke:none" />
</svg>
