<?xml version="1.0" encoding="UTF-8" standalone="no"?>
<!-- Created with Inkscape (http://www.inkscape.org/) -->

<svg
   xmlns:dc="http://purl.org/dc/elements/1.1/"
   xmlns:cc="http://creativecommons.org/ns#"
   xmlns:rdf="http://www.w3.org/1999/02/22-rdf-syntax-ns#"
   xmlns:svg="http://www.w3.org/2000/svg"
   xmlns="http://www.w3.org/2000/svg"
   xmlns:sodipodi="http://sodipodi.sourceforge.net/DTD/sodipodi-0.dtd"
   xmlns:inkscape="http://www.inkscape.org/namespaces/inkscape"
   id="svg2"
   version="1.1"
   inkscape:version="0.48.3.1 r9886"
   width="670.18805"
   height="676.2262"
   sodipodi:docname="burger.svg">
  <metadata
     id="metadata8">
    <rdf:RDF>
      <cc:Work
         rdf:about="">
        <dc:format>image/svg+xml</dc:format>
        <dc:type
           rdf:resource="http://purl.org/dc/dcmitype/StillImage" />
        <dc:title />
      </cc:Work>
    </rdf:RDF>
  </metadata>
  <defs
     id="defs6" />
  <sodipodi:namedview
     pagecolor="#ffffff"
     bordercolor="#666666"
     borderopacity="1"
     objecttolerance="10"
     gridtolerance="10"
     guidetolerance="10"
     inkscape:pageopacity="0"
     inkscape:pageshadow="2"
     inkscape:window-width="1391"
     inkscape:window-height="876"
     id="namedview4"
     showgrid="false"
     inkscape:object-paths="true"
     inkscape:zoom="9.9460576"
     inkscape:cx="179.08322"
     inkscape:cy="230.80793"
     inkscape:window-x="49"
     inkscape:window-y="24"
     inkscape:window-maximized="1"
     inkscape:current-layer="svg2"
     fit-margin-top="0"
     fit-margin-left="0"
     fit-margin-right="0"
     fit-margin-bottom="0" />
  <path
     sodipodi:nodetypes="csssssscsssssccssssssccscsssc"
     inkscape:connector-curvature="0"
     id="path3786-6"
     d="m 220.91808,428.85482 c 1.17586,-1.17587 2.68921,-1.12379 5.11819,0.17616 2.86906,1.53548 3.80061,1.36436 5.54272,-1.01813 1.15171,-1.57508 1.76065,-3.40324 1.35316,-4.06256 -0.40751,-0.65935 -0.066,-1.1988 0.75875,-1.1988 0.82481,0 1.90555,-1.05769 2.40161,-2.35042 0.58882,-1.53442 -0.72968,-3.19416 -3.79784,-4.78075 -4.22238,-2.18349 -4.79402,-2.18475 -5.62761,-0.0126 -1.41991,3.70019 -5.73989,3.08313 -4.55484,-0.65063 0.73811,-2.32563 -0.17789,-3.66416 -3.78349,-5.5287 -4.70705,-2.43409 -4.78491,-2.40699 -7.35375,2.56056 -2.43483,4.70845 -2.42394,5.14676 0.17497,7.04713 1.52421,1.11452 3.54181,2.28326 4.48359,2.59719 1.09005,0.36333 0.70946,2.10131 -1.04732,4.78248 m -108.49779,28.85548 c 0.57039,-6.33407 0.004,-6.57381 -11.149782,-4.72998 -5.48141,0.90602 -5.907105,1.36378 -5.907105,6.35261 0,3.38721 0.728477,5.28163 1.969032,5.12054 4.43066,-0.57534 5.907097,0.28418 5.907097,3.43882 0,2.6593 -0.707544,3.14362 -3.550246,2.43016 -3.319297,-0.83309 -3.515819,-0.45803 -3.020839,5.7656 l 0.529433,6.65665 6.171282,-0.58853 c 5.850768,-0.55786 6.171228,-0.86612 6.171228,-5.93625 0,-4.05222 0.66787,-5.34199 2.75665,-5.32373 0.009,-0.48503 12.30312,1.43947 13.86654,0.73258 3.7495,-1.69528 -1.07798,-6.42573 -1.06096,-8.38275 0.004,-0.63776 -12.72087,-0.30393 -12.71536,-0.99887 0.0109,-1.39855 0.022,-2.91201 0.0332,-4.53685 z"
     style="fill:#b0b3c4;fill-opacity:1" />
  <g
     transform="matrix(0.68920362,0,0,0.6861902,-8.9811847,160.47878)"
     style="font-size:48px;font-style:normal;font-variant:normal;font-weight:bold;font-stretch:normal;line-height:125%;letter-spacing:0px;word-spacing:0px;fill:#57801c;fill-opacity:1;stroke:none;font-family:Horseshoes and Lemonade;-inkscape-font-specification:Horseshoes and Lemonade Bold"
     id="flowRoot2987">
    <path
       id="path3063"
       style="font-size:200px;fill:#aad673;fill-opacity:1"
       d="m 985.44062,195.45208 -97.8,5.8 5.20001,-159.199997 80.79999,4 11.8,149.399997"
       inkscape:connector-curvature="0"
       sodipodi:nodetypes="ccccc" />
    <path
       id="path3061"
       style="font-size:200px;fill:#aad673;fill-opacity:1"
       d="m 778.06562,195.65208 5.40001,-153.799997 80.79999,4.2 12,153.199997 -98.2,-3.6"
       inkscape:connector-curvature="0"
       sodipodi:nodetypes="ccccc" />
    <path
       id="path3059"
       style="font-size:200px;fill:#aad673;fill-opacity:1"
       d="m 669.69062,205.45208 10,-157.599997 77,-4 8.2,154.599997 -95.2,7"
       inkscape:connector-curvature="0"
       sodipodi:nodetypes="ccccc" />
    <path
       id="path3057"
       style="font-size:200px;fill:#aad673;fill-opacity:1"
       d="m 657.31562,195.45208 -97.8,5.8 5.20001,-159.199997 80.79999,4 11.8,149.399997"
       inkscape:connector-curvature="0"
       sodipodi:nodetypes="ccccc" />
    <path
       id="path3055"
       style="font-size:200px;fill:#aad673;fill-opacity:1"
       d="m 449.94062,205.45208 9.4,-157.599997 76.8,-3.8 10,155.199997 -96.2,6.2"
       inkscape:connector-curvature="0"
       sodipodi:nodetypes="ccccc" />
    <path
       id="path3053"
       style="font-size:200px;fill:#aad673;fill-opacity:1"
       d="m 340.56562,203.45208 9.80001,-159.599997 77.19999,4 9.2,153.599997 -96.2,2"
       inkscape:connector-curvature="0"
       sodipodi:nodetypes="ccccc" />
    <path
       id="path3051"
       style="font-size:200px;fill:#aad673;fill-opacity:1"
       d="m 122.20625,195.65208 5.4,-153.799997 80.8,4.2 12,153.199997 -98.2,-3.6"
       inkscape:connector-curvature="0"
       sodipodi:nodetypes="ccccc" />
    <path
       d="m 108.83125,42.052083 -9.8,161.199997 -76.8,-4 -9.2,-153.199997 95.8,-4"
       style="font-size:200px;fill:#aad673;fill-opacity:1"
       id="path3008"
       inkscape:connector-curvature="0"
       sodipodi:nodetypes="ccccc" />
    <path
       inkscape:connector-curvature="0"
       id="path3065"
       style="font-size:144px;fill:#aad673;fill-opacity:1"
       d="m 41.590286,334.49347 7.056,-113.472 55.584004,-2.88 6.62401,112.032 -69.264014,4.32"
       sodipodi:nodetypes="ccccc" />
    <path
       inkscape:connector-curvature="0"
       id="path3067"
       style="font-size:144px;fill:#aad673;fill-opacity:1"
       d="m 120.34032,325.99747 3.88801,-110.736 58.17601,3.024 8.64,110.304 -70.70402,-2.592"
       sodipodi:nodetypes="ccccc" />
    <path
       inkscape:connector-curvature="0"
       id="path3069"
       style="font-size:144px;fill:#aad673;fill-opacity:1"
       d="m 826.84034,331.46947 6.768,-110.304 55.296,-3.024 7.2,116.352 -69.264,-3.024"
       sodipodi:nodetypes="ccccc" />
    <path
       inkscape:connector-curvature="0"
       id="path3071"
       style="font-size:144px;fill:#aad673;fill-opacity:1"
       d="m 974.71034,331.46947 -68.976,-2.88 6.624,-110.304 55.296,-2.88 7.056,116.064"
       sodipodi:nodetypes="ccccc" />
    <path
       d="m 122.20625,195.65208 5.4,-153.799997 80.8,4.2 12,153.199997 -98.2,-3.6 m 72.8,-103.399997 1.4,-25.6 -56.4,-1.8 0,4.8 c 1.46664,0.13346 2.59997,0.53346 3.4,1.2 0.9333,0.533458 1.59997,1.200124 2,2 0.39997,0.800123 0.59997,1.600122 0.6,2.4 0.1333,0.666787 0.19997,1.266787 0.2,1.8 l 2.2,86.799997 c 0.1333,2.2667 -0.33337,3.93336 -1.4,5 -0.93336,1.0667 -2.53336,1.80003 -4.8,2.2 l 0,6.6 53,-1.8 -2,-27 -5.6,0 c -7e-5,1.46672 -0.0667,2.80005 -0.2,4 -0.13341,1.06671 -0.46674,2.13338 -1,3.2 -1.06674,2.00004 -1.9334,3.46671 -2.6,4.4 -0.5334,0.93337 -1.3334,2.0667 -2.4,3.4 -2.00006,2.53337 -3.86673,4.2667 -5.6,5.2 -1.73339,0.80003 -3.93339,1.20003 -6.6,1.2 -2.26672,3e-5 -4.00005,-0.39997 -5.2,-1.2 -1.20005,-0.79997 -1.73338,-2.3333 -1.6,-4.6 l 1.6,-41.8 c 1.06662,0.26674 2.13328,0.60008 3.2,1 1.19995,0.40008 2.19995,0.93341 3,1.6 0.53328,0.26674 1.46661,1.20007 2.8,2.8 1.33327,1.46674 2.33327,2.66674 3,3.6 1.0666,1.46673 1.59994,3.20006 1.6,5.2 l 4.8,0 -1,-34 -4.8,0 c -0.13339,0.93343 -0.40006,1.93343 -0.8,3 -0.40006,1.06676 -0.80006,1.93342 -1.2,2.6 -1.46672,2.13342 -3.00006,4.13342 -4.6,6 -1.46672,1.73342 -3.40005,2.73342 -5.8,3 l 1.4,-37.999997 c 0.13328,-2.933213 0.46662,-4.866545 1,-5.8 0.53328,-1.066543 2.13328,-1.599876 4.8,-1.6 2.79994,1.24e-4 5.26661,0.600124 7.4,1.8 2.13327,1.066788 3.93327,2.466787 5.4,4.2 0.6666,0.800118 1.33326,1.73345 2,2.8 0.79993,1.066781 1.59993,2.133447 2.4,3.2 0.39993,1.466778 0.66659,2.866776 0.8,4.2 0.26659,1.33344 0.53326,2.666772 0.8,4 l 4.8,0"
       style="font-size:200px;fill:#6d9842;fill-opacity:1"
       id="path3010"
       inkscape:connector-curvature="0" />
    <path
       d="m 340.56562,203.45208 9.80001,-159.599997 77.19999,4 9.2,153.599997 -96.2,2 m 80.2,-58.8 c -8e-5,-6.66661 -2.13341,-12.0666 -6.39999,-16.2 -4.13341,-4.13326 -10.80007,-6.99992 -20,-8.6 9.46659,-1.86659 16.13325,-5.13325 20,-9.8 3.86658,-4.66657 5.79991,-10.066567 5.79999,-16.199997 -8e-5,-4.399893 -0.73341,-8.333222 -2.2,-11.8 -1.33341,-3.599882 -3.73341,-6.866545 -7.2,-9.8 -1.3334,-0.799875 -3.00007,-1.466541 -5,-2 -1.86673,-0.533207 -3.86673,-0.933206 -6,-1.2 -2.13339,-0.399872 -4.26672,-0.666539 -6.39999,-0.8 -2.00006,-0.266538 -3.80006,-0.399871 -5.40001,-0.4 l -29.4,-0.2 0.2,5 c 2.79998,0.533457 4.46664,1.400122 5,2.6 0.53331,1.066787 0.86664,2.733452 1,5 l 3.2,88.199997 c 0.26664,3.06669 -1.73336,4.60003 -6,4.6 l 0,6.8 c 2.39997,0.40002 4.53331,0.73335 6.40001,1 1.86663,0.13335 3.59996,0.26668 5.19999,0.4 1.7333,0.13335 3.39996,0.26668 5,0.4 1.59996,2e-5 3.33329,2e-5 5.2,0 1.46662,2e-5 3.19995,-0.13332 5.2,-0.4 1.99995,-0.26665 4.13328,-0.73331 6.40001,-1.4 2.2666,-0.66665 4.53326,-1.53331 6.79999,-2.6 2.39993,-1.19998 4.59993,-2.59998 6.6,-4.2 2.53326,-2.1333 4.59993,-4.59997 6.2,-7.4 1.59992,-2.79996 2.79992,-5.53329 3.6,-8.2 0.93325,-2.79996 1.53325,-5.33329 1.80001,-7.6 0.26657,-2.39995 0.39991,-4.13328 0.39999,-5.2 m -22.2,-48.599997 c -6e-5,2.266765 -0.20006,4.666767 -0.6,7.199997 -0.26673,2.40009 -0.93339,4.73342 -2,7 -0.93339,2.13342 -2.46672,3.93342 -4.59999,5.4 -2.00006,1.33342 -4.66672,2.00008 -8,2 l -1.60001,0 0.8,-39.399997 c -4e-5,-1.333214 0.26662,-2.533213 0.80001,-3.6 0.66661,-1.199877 1.93328,-1.799876 3.79999,-1.8 4.93328,1.24e-4 8.26661,2.533454 10,7.6 0.66661,1.866781 1.06661,4.266778 1.20001,7.2 0.13326,2.933439 0.19993,5.733436 0.19999,8.4 m 0.6,44.399997 c -6e-5,1.20006 -0.13339,3.06672 -0.4,5.6 -0.13339,2.40005 -0.40006,5.00005 -0.8,7.8 -0.26673,2.66671 -0.66673,5.33337 -1.2,8 -0.53339,2.53337 -1.20006,4.6667 -2,6.4 -1.06672,2.2667 -2.26672,4.13336 -3.6,5.6 -1.33338,1.33336 -3.06672,2.00002 -5.2,2 -2.26671,2e-5 -3.80004,-0.93331 -4.59999,-2.8 -0.66672,-1.86664 -1.00005,-3.5333 -1,-5 l 1.39999,-45.8 c 3.06662,8e-5 5.99995,0.60008 8.8,1.8 2.93328,1.20007 5.26661,3.46674 7,6.8 0.66661,1.06673 1.06661,2.20007 1.2,3.4 0.26661,1.20006 0.39994,3.26673 0.4,6.2"
       style="font-size:200px;fill:#6d9842;fill-opacity:1"
       id="path3012"
       inkscape:connector-curvature="0" />
    <path
       d="m 449.94062,205.45208 9.4,-157.599997 76.8,-3.8 10,155.199997 -96.2,6.2 m 80.6,-136.199997 -22.4,-0.4 0,4.8 c 1.33327,0.533456 2.4666,1.066788 3.4,1.6 0.93327,0.400121 1.93327,1.00012 3,1.8 0.93327,1.466785 1.39993,3.066783 1.4,4.8 0.13327,1.733446 0.2666,3.266778 0.40001,4.6 l 3.59999,69.199997 c 0.13326,2.40004 -7e-5,4.93337 -0.4,7.6 -0.40007,2.6667 -1.1334,5.13336 -2.19999,7.4 -1.33341,2.66669 -3.06674,4.53336 -5.20001,5.6 -2.1334,0.93336 -4.46673,1.40002 -7,1.4 -3.06672,2e-5 -5.53338,-0.59998 -7.39999,-1.8 -1.86672,-1.19998 -3.33339,-2.93331 -4.40001,-5.2 -0.66671,-1.7333 -1.13338,-3.9333 -1.4,-6.6 -0.26671,-2.79996 -0.40004,-5.53329 -0.4,-8.2 l -1,-64.799997 c -4e-5,-1.866559 0.46662,-3.533224 1.4,-5 1.06662,-1.466555 2.79995,-2.866553 5.2,-4.2 l 0,-4.8 -31.6,-1.2 0,4.8 3.4,0.6 c 2.26664,1.066781 3.39998,2.733446 3.4,5 l 1,70.399997 c -3e-5,4.40004 0.39997,8.33337 1.2,11.8 0.93331,3.33336 2.3333,6.20002 4.20001,8.6 1.99996,2.26669 4.66662,4.00002 8,5.2 3.33328,1.20002 7.53328,1.80002 12.59999,1.8 4.39994,2e-5 8.33327,-0.46665 11.8,-1.4 3.4666,-1.06665 6.4666,-3.06665 9,-6 1.86659,-2.26664 3.39992,-5.33331 4.60001,-9.2 1.19991,-3.86663 1.66658,-8.13329 1.39999,-12.8 l -3.6,-68.199997 c 0.13326,-1.866555 0.26659,-3.599886 0.4,-5.2 0.26659,-1.733216 0.73326,-3.133215 1.40001,-4.2 0.53325,-0.533213 1.39991,-1.066546 2.59999,-1.6 1.33325,-0.533212 2.53325,-0.999878 3.6,-1.4 l 0,-4.8"
       style="font-size:200px;fill:#6d9842;fill-opacity:1"
       id="path3014"
       inkscape:connector-curvature="0" />
    <path
       d="m 657.31562,195.45208 -97.8,5.8 5.20001,-159.199997 80.79999,4 11.8,149.399997 m -19,-44 c 0.13325,0.66671 0.19992,1.46671 0.2,2.4 -8e-5,0.80004 -8e-5,1.53338 0,2.2 -8e-5,1.46671 -0.20008,3.20004 -0.6,5.2 -0.26675,2.00004 -0.60008,3.73337 -1,5.2 -0.26675,0.6667 -0.73341,1.33336 -1.4,2 -0.53341,0.6667 -1.20008,1.00003 -2,1 -2.93341,3e-5 -4.40007,-3.7333 -4.39999,-11.2 -8e-5,-1.99996 0.0666,-3.73329 0.19999,-5.2 0.13326,-1.46662 0.26659,-2.93328 0.40001,-4.4 0.13325,-1.46661 0.26658,-2.99995 0.4,-4.6 0.13325,-1.59994 0.19992,-3.39994 0.19999,-5.4 -7e-5,-1.99994 -0.20007,-4.0666 -0.59999,-6.2 -0.40008,-2.2666 -1.20008,-4.33326 -2.40001,-6.2 -1.7334,-2.26659 -3.80007,-4.19992 -6.19999,-5.8 -2.40007,-1.59992 -5.7334,-2.93325 -10,-4 4.2666,-0.53325 7.73326,-1.59992 10.39999,-3.2 2.79993,-1.73325 4.99993,-3.59991 6.60001,-5.6 1.73325,-2.13324 2.99992,-4.33324 3.79999,-6.6 0.79992,-2.266566 1.39992,-4.399897 1.80001,-6.399997 0.26658,-1.066564 0.46658,-2.399896 0.59999,-4 0.26659,-1.733226 0.39992,-3.199891 0.40001,-4.4 -9e-5,-2.799887 -0.53342,-5.533218 -1.6,-8.2 -1.06675,-2.666546 -3.20008,-4.93321 -6.4,-6.8 -2.26674,-1.333207 -4.73341,-2.266539 -7.40001,-2.8 -2.66673,-0.533205 -6.53339,-0.799871 -11.59999,-0.8 -2.93339,1.29e-4 -5.66672,0.133462 -8.20001,0.4 -2.40004,0.266795 -4.8667,0.600128 -7.39999,1 -2.40004,0.400127 -4.93337,0.866793 -7.60001,1.4 -2.66669,0.533459 -5.66669,1.133458 -9,1.8 l 0,4.6 c 1.86665,0.266786 3.33331,0.666786 4.4,1.2 1.19998,0.400118 1.79998,1.133451 1.80001,2.2 l 2.79999,78.999997 c -3e-5,1.20004 -0.40003,2.6667 -1.2,4.4 -0.80003,1.60003 -2.73336,2.60003 -5.8,3 l 0,4.6 26,0 0,-4.6 c -2.53338,-0.26663 -4.33338,-1.06663 -5.39999,-2.4 -1.06672,-1.46663 -1.53338,-3.1333 -1.4,-5 l 1.59999,-42.2 c 2.93329,8e-5 5.39995,0.33342 7.40001,1 2.13327,0.53341 3.8666,1.66675 5.19999,3.4 0.93328,1.60008 1.46661,3.20007 1.6,4.8 0.26661,1.46674 0.39994,3.00007 0.4,4.6 -6e-5,2.00007 -0.20006,3.80006 -0.6,5.4 -0.40005,1.46673 -0.60005,2.33339 -0.59999,2.6 l -0.6,15.8 c -0.1334,3.73337 0.0666,6.6667 0.6,8.8 0.53327,2.00003 1.4666,4.20003 2.79999,6.6 2.66661,5.20002 6.93327,7.80002 12.8,7.8 4.66659,2e-5 8.33326,-1.59998 11,-4.8 2.66658,-3.3333 3.99992,-8.86663 4,-16.6 -8e-5,-1.86662 -0.13342,-3.46662 -0.4,-4.8 l -3.6,-0.2 m -27.59999,-39.2 c -0.80006,0.80009 -1.60006,1.53342 -2.40001,2.2 -0.80005,0.53342 -2.13338,0.80008 -4,0.8 l -5.59999,-0.6 2,-33.999997 c 0.13328,-1.999882 0.59995,-3.533214 1.4,-4.6 0.79994,-1.066545 2.26661,-1.599878 4.39999,-1.6 2.26662,1.22e-4 3.99995,0.400122 5.20001,1.2 1.19993,0.80012 2.33327,2.066785 3.4,3.8 0.79993,1.466782 1.39993,3.000114 1.79999,4.6 0.53327,1.466778 0.79994,3.200109 0.80001,5.2 -7e-5,1.600106 -0.1334,3.46677 -0.40001,5.6 -0.26673,2.133433 -0.66673,4.333431 -1.19999,6.599997 -0.5334,2.13343 -1.26673,4.20009 -2.20001,6.2 -0.80006,1.86676 -1.86672,3.40009 -3.19999,4.6"
       style="font-size:200px;fill:#6d9842;fill-opacity:1"
       id="path3016"
       inkscape:connector-curvature="0" />
    <path
       d="m 669.69062,205.45208 10,-157.599997 77,-4 8.2,154.599997 -95.2,7 m 82.40001,-81 -30.6,-1.6 -0.20001,6.6 c 0.53328,-0.13326 0.93328,-0.19993 1.20001,-0.2 0.39993,7e-5 0.73327,7e-5 1,0 1.33327,7e-5 2.53326,0.1334 3.6,0.4 0.39993,0.26674 0.73326,1.26674 1,3 0.2666,1.7334 0.4666,3.20006 0.59999,4.4 l -1,17.8 c -0.13339,2.40004 -0.46673,4.66671 -1,6.8 -0.40006,2.13337 -1.13339,4.4667 -2.19999,7 -1.60007,3.06669 -3.9334,4.60003 -7,4.6 -2.00006,3e-5 -3.66672,-0.66664 -5,-2 -1.20005,-1.46664 -2.13339,-3.3333 -2.80001,-5.6 -0.80004,-2.9333 -1.53337,-6.19996 -2.19999,-9.8 -0.53338,-3.73329 -1.00005,-7.59995 -1.4,-11.6 -0.40005,-3.99994 -0.73338,-7.93327 -1,-11.8 -0.13338,-3.99993 -0.20005,-7.73326 -0.20001,-11.2 -4e-5,-0.13326 -4e-5,-0.73325 0,-1.8 -4e-5,-1.06659 -0.0667,-2.26658 -0.2,-3.6 -4e-5,-1.46658 -4e-5,-2.99991 0,-4.6 -4e-5,-1.73324 -4e-5,-3.39991 0,-5 -4e-5,-2.7999 0.1333,-5.9999 0.40001,-9.599997 0.39995,-3.599897 0.99995,-6.999893 1.79999,-10.2 0.79996,-3.199887 1.93329,-5.866551 3.4,-8 1.46662,-2.266546 3.33329,-3.399879 5.6,-3.4 5.99995,1.21e-4 10.46661,2.600119 13.4,7.8 3.0666,5.200108 5.33327,12.400101 6.80001,21.599997 l 5.4,0 -2.20001,-40.999997 -8,0.8 1.4,12.2 -5.8,-3.2 c -1.46673,-0.799876 -3.13339,-1.466542 -5,-2 -1.73339,-0.666541 -3.53338,-0.999874 -5.39999,-1 -6.00005,1.26e-4 -11.06672,1.533458 -15.20001,4.6 -4.00003,2.933452 -7.33336,6.666782 -10,11.2 -2.66669,4.266773 -4.40002,9.333434 -5.19999,15.199997 -0.6667,5.73343 -1.00003,11.53342 -1,17.4 -3e-5,3.46674 0.1333,7.13341 0.4,11 0.39997,3.86673 0.99997,7.80006 1.79999,11.8 0.79998,4.00005 1.79998,8.00005 3,12 1.33331,3.86671 2.93331,7.53337 4.80001,11 4.93329,9.33336 12.13328,14.00002 21.59999,14 3.86661,2e-5 7.26661,-0.86664 10.2,-2.6 2.93327,-1.73331 5.93327,-4.59997 9,-8.6 l 0.20001,14.6 6.4,0 c 0.53325,-11.19997 0.93325,-20.06663 1.19999,-26.6 0.26659,-6.53328 0.46659,-11.46661 0.6,-14.8 0.26659,-3.33327 0.46659,-5.53327 0.6,-6.6 0.13326,-1.19993 0.39992,-1.99993 0.8,-2.4 1.06659,-0.13327 1.99992,-0.2666 2.80001,-0.4 0.93324,-0.13326 1.93324,-0.2666 3,-0.4 l 0.6,-6.2"
       style="font-size:200px;fill:#6d9842;fill-opacity:1"
       id="path3018"
       inkscape:connector-curvature="0" />
    <path
       d="m 778.06562,195.65208 5.40001,-153.799997 80.79999,4.2 12,153.199997 -98.2,-3.6 m 72.80001,-103.399997 1.39999,-25.6 -56.39999,-1.8 0,4.8 c 1.46664,0.13346 2.59997,0.53346 3.39999,1.2 0.93331,0.533458 1.59998,1.200124 2,2 0.39997,0.800123 0.59997,1.600122 0.60001,2.4 0.1333,0.666787 0.19996,1.266787 0.19999,1.8 l 2.2,86.799997 c 0.13331,2.2667 -0.33336,3.93336 -1.39999,5 -0.93337,1.0667 -2.53337,1.80003 -4.80001,2.2 l 0,6.6 53,-1.8 -2,-27 -5.59999,0 c -8e-5,1.46672 -0.0667,2.80005 -0.20001,4 -0.1334,1.06671 -0.46673,2.13338 -1,3.2 -1.06673,2.00004 -1.9334,3.46671 -2.6,4.4 -0.5334,0.93337 -1.3334,2.0667 -2.4,3.4 -2.00006,2.53337 -3.86672,4.2667 -5.6,5.2 -1.73339,0.80003 -3.93338,1.20003 -6.6,1.2 -2.26671,3e-5 -4.00004,-0.39997 -5.19999,-1.2 -1.20005,-0.79997 -1.73339,-2.3333 -1.60001,-4.6 l 1.60001,-41.8 c 1.06661,0.26674 2.13328,0.60008 3.19999,1 1.19995,0.40008 2.19995,0.93341 3,1.6 0.53328,0.26674 1.46662,1.20007 2.80001,2.8 1.33327,1.46674 2.33327,2.66674 3,3.6 1.0666,1.46673 1.59993,3.20006 1.6,5.2 l 4.79999,0 -1,-34 -4.79999,0 c -0.1334,0.93343 -0.40007,1.93343 -0.80001,3 -0.40005,1.06676 -0.80005,1.93342 -1.19999,2.6 -1.46673,2.13342 -3.00006,4.13342 -4.6,6 -1.46672,1.73342 -3.40006,2.73342 -5.80001,3 l 1.40001,-37.999997 c 0.13328,-2.933213 0.46661,-4.866545 1,-5.8 0.53328,-1.066543 2.13328,-1.599876 4.79999,-1.6 2.79995,1.24e-4 5.26661,0.600124 7.4,1.8 2.13327,1.066788 3.93327,2.466787 5.4,4.2 0.6666,0.800118 1.33327,1.73345 2,2.8 0.79993,1.066781 1.59993,2.133447 2.40001,3.2 0.39992,1.466778 0.66659,2.866776 0.79999,4.2 0.2666,1.33344 0.53326,2.666772 0.8,4 l 4.80001,0"
       style="font-size:200px;fill:#6d9842;fill-opacity:1"
       id="path3020"
       inkscape:connector-curvature="0" />
    <path
       d="m 985.44062,195.45208 -97.8,5.8 5.20001,-159.199997 80.79999,4 11.8,149.399997 m -19,-44 c 0.13325,0.66671 0.19992,1.46671 0.2,2.4 -8e-5,0.80004 -8e-5,1.53338 0,2.2 -8e-5,1.46671 -0.20008,3.20004 -0.6,5.2 -0.26675,2.00004 -0.60008,3.73337 -1,5.2 -0.26675,0.6667 -0.73341,1.33336 -1.4,2 -0.53341,0.6667 -1.20008,1.00003 -2,1 -2.93341,3e-5 -4.40007,-3.7333 -4.39999,-11.2 -8e-5,-1.99996 0.0666,-3.73329 0.19999,-5.2 0.13326,-1.46662 0.26659,-2.93328 0.40001,-4.4 0.13325,-1.46661 0.26658,-2.99995 0.4,-4.6 0.13325,-1.59994 0.19992,-3.39994 0.19999,-5.4 -7e-5,-1.99994 -0.20007,-4.0666 -0.59999,-6.2 -0.40008,-2.2666 -1.20008,-4.33326 -2.40001,-6.2 -1.7334,-2.26659 -3.80007,-4.19992 -6.19999,-5.8 -2.40007,-1.59992 -5.7334,-2.93325 -10,-4 4.2666,-0.53325 7.73326,-1.59992 10.39999,-3.2 2.79993,-1.73325 4.99993,-3.59991 6.60001,-5.6 1.73325,-2.13324 2.99992,-4.33324 3.79999,-6.6 0.79992,-2.266566 1.39992,-4.399897 1.80001,-6.399997 0.26658,-1.066564 0.46658,-2.399896 0.59999,-4 0.26659,-1.733226 0.39992,-3.199891 0.40001,-4.4 -9e-5,-2.799887 -0.53342,-5.533218 -1.6,-8.2 -1.06675,-2.666546 -3.20008,-4.93321 -6.4,-6.8 -2.26674,-1.333207 -4.73341,-2.266539 -7.40001,-2.8 -2.66673,-0.533205 -6.53339,-0.799871 -11.59999,-0.8 -2.93339,1.29e-4 -5.66672,0.133462 -8.20001,0.4 -2.40004,0.266795 -4.8667,0.600128 -7.39999,1 -2.40004,0.400127 -4.93337,0.866793 -7.60001,1.4 -2.66669,0.533459 -5.66669,1.133458 -9,1.8 l 0,4.6 c 1.86665,0.266786 3.33331,0.666786 4.4,1.2 1.19998,0.400118 1.79998,1.133451 1.80001,2.2 l 2.79999,78.999997 c -3e-5,1.20004 -0.40003,2.6667 -1.2,4.4 -0.80003,1.60003 -2.73336,2.60003 -5.8,3 l 0,4.6 26,0 0,-4.6 c -2.53338,-0.26663 -4.33338,-1.06663 -5.39999,-2.4 -1.06672,-1.46663 -1.53338,-3.1333 -1.4,-5 l 1.59999,-42.2 c 2.93329,8e-5 5.39995,0.33342 7.40001,1 2.13327,0.53341 3.8666,1.66675 5.19999,3.4 0.93328,1.60008 1.46661,3.20007 1.6,4.8 0.26661,1.46674 0.39994,3.00007 0.4,4.6 -6e-5,2.00007 -0.20006,3.80006 -0.6,5.4 -0.40005,1.46673 -0.60005,2.33339 -0.59999,2.6 l -0.6,15.8 c -0.1334,3.73337 0.0666,6.6667 0.6,8.8 0.53327,2.00003 1.4666,4.20003 2.79999,6.6 2.66661,5.20002 6.93327,7.80002 12.8,7.8 4.66659,2e-5 8.33326,-1.59998 11,-4.8 2.66658,-3.3333 3.99992,-8.86663 4,-16.6 -8e-5,-1.86662 -0.13342,-3.46662 -0.4,-4.8 l -3.6,-0.2 m -27.59999,-39.2 c -0.80006,0.80009 -1.60006,1.53342 -2.40001,2.2 -0.80005,0.53342 -2.13338,0.80008 -4,0.8 l -5.59999,-0.6 2,-33.999997 c 0.13328,-1.999882 0.59995,-3.533214 1.4,-4.6 0.79994,-1.066545 2.26661,-1.599878 4.39999,-1.6 2.26662,1.22e-4 3.99995,0.400122 5.20001,1.2 1.19993,0.80012 2.33327,2.066785 3.4,3.8 0.79993,1.466782 1.39993,3.000114 1.79999,4.6 0.53327,1.466778 0.79994,3.200109 0.80001,5.2 -7e-5,1.600106 -0.1334,3.46677 -0.40001,5.6 -0.26673,2.133433 -0.66673,4.333431 -1.19999,6.599997 -0.5334,2.13343 -1.26673,4.20009 -2.20001,6.2 -0.80006,1.86676 -1.86672,3.40009 -3.19999,4.6"
       style="font-size:200px;fill:#6d9842;fill-opacity:1"
       id="path3022"
       inkscape:connector-curvature="0" />
    <path
       d="m 41.590286,334.49347 7.056,-113.472 55.584004,-2.88 6.62401,112.032 -69.264014,4.32 m 42.048,-86.832 c 0.479953,1.53608 0.671952,3.84007 0.576,6.912 l -1.44,43.344 c -4.6e-5,0.76803 -0.09605,1.68003 -0.288,2.736 -0.192046,0.96002 -0.432045,1.92002 -0.72,2.88 -0.288045,0.96002 -0.672044,1.82402 -1.152,2.592 -0.480043,0.76802 -1.056043,1.29602 -1.728,1.584 -0.576042,0.19202 -1.440041,0.28802 -2.592,0.288 -1.056039,-0.096 -2.064038,-0.14398 -3.024,-0.144 -0.672036,2e-5 -1.344035,-0.096 -2.016,-0.288 -0.576034,-0.19198 -1.056034,-0.67198 -1.44,-1.44 -0.192033,-0.47998 -0.336033,-1.19998 -0.432,-2.16 -0.09603,-1.05598 -0.144033,-1.67998 -0.144,-1.872 l -1.296,-52.416 c -0.09603,-1.82392 0.191969,-3.26392 0.864,-4.32 0.671967,-1.15192 1.823966,-1.67992 3.456,-1.584 1.055963,8e-5 2.111962,0.0481 3.168,0.144 1.15196,8e-5 2.255959,0.0481 3.312,0.144 0.09596,8e-5 0.335958,0.0481 0.72,0.144 0.479957,0.0961 0.959956,0.28808 1.44,0.576 0.575955,0.28808 1.103955,0.67208 1.584,1.152 0.575954,0.48008 0.959953,1.05608 1.152,1.728 m 15.551996,29.664 c 0.0959,-1.05595 0.14394,-2.25595 0.144,-3.6 0.0959,-1.34395 0.19194,-2.59194 0.288,-3.744 0.0959,-1.15194 0.14394,-2.11194 0.144,-2.88 0.0959,-0.86394 0.14394,-1.39194 0.144,-1.584 -6e-5,-3.35994 -0.24006,-5.99993 -0.72,-7.92 -0.384058,-1.91993 -1.008058,-3.88793 -1.871996,-5.904 -1.248059,-2.87992 -3.120058,-5.42392 -5.616,-7.632 -1.440054,-1.24792 -3.312052,-2.25592 -5.616,-3.024 -2.304047,-0.86391 -4.608045,-1.48791 -6.912,-1.872 -2.30404,-0.47991 -4.368038,-0.81591 -6.192,-1.008 -1.824034,-0.19191 -2.928033,-0.28791 -3.312,-0.288 -3.07203,9e-5 -5.856027,0.0961 -8.352,0.288 -2.496022,0.0961 -5.184019,0.28809 -8.064,0.576 l 0,5.184 c 1.919982,0.28808 3.11998,0.81608 3.6,1.584 0.479979,0.76808 0.767979,1.68008 0.864,2.736 l 3.888,60.048 c 0.191975,2.59202 -1.296024,3.88801 -4.464,3.888 l 0,4.896 c 2.207977,10e-6 3.839976,0.048 4.896,0.144 1.055974,0.096 2.399972,0.14401 4.032,0.144 1.727969,1e-5 3.743967,-0.14399 6.048,-0.432 2.303962,-0.28799 4.65596,-0.76799 7.056,-1.44 2.495955,-0.76799 4.895953,-1.82399 7.2,-3.168 2.399948,-1.34398 4.415946,-3.07198 6.048,-5.184 1.055943,-1.34398 1.967942,-3.16798 2.736,-5.472 0.767941,-2.39997 1.39194,-4.94397 1.872,-7.632 0.575939,-2.78396 1.007938,-5.61596 1.295998,-8.496 0.38394,-2.97596 0.671938,-5.71195 0.863998,-8.208"
       style="font-size:144px;fill:#6d9842;fill-opacity:1"
       id="path3024"
       inkscape:connector-curvature="0" />
    <path
       d="m 120.34032,325.99747 3.88801,-110.736 58.17601,3.024 8.64,110.304 -70.70402,-2.592 m 52.41602,-74.448 1.008,-18.432 -40.608,-1.296 0,3.456 c 1.05598,0.0961 1.87198,0.38409 2.448,0.864 0.67198,0.38409 1.15198,0.86409 1.44,1.44 0.28798,0.57609 0.43198,1.15209 0.432,1.728 0.096,0.48009 0.14398,0.91209 0.144,1.296 l 1.584,62.496 c 0.096,1.63202 -0.24002,2.83202 -1.008,3.6 -0.67202,0.76802 -1.82402,1.29602 -3.456,1.584 l 0,4.752 38.16,-1.296 -1.44,-19.44 -4.032,0 c -5e-5,1.05603 -0.0481,2.01603 -0.144,2.88 -0.096,0.76803 -0.33605,1.53603 -0.72,2.304 -0.76805,1.44003 -1.39205,2.49603 -1.872,3.168 -0.38405,0.67202 -0.96005,1.48802 -1.728,2.448 -1.44005,1.82402 -2.78404,3.07202 -4.032,3.744 -1.24804,0.57602 -2.83204,0.86402 -4.752,0.864 -1.63204,2e-5 -2.88004,-0.28798 -3.744,-0.864 -0.86403,-0.57598 -1.24803,-1.67998 -1.152,-3.312 l 1.152,-30.096 c 0.76796,0.19205 1.53596,0.43205 2.304,0.72 0.86396,0.28805 1.58396,0.67205 2.16,1.152 0.38396,0.19205 1.05596,0.86405 2.016,2.016 0.95996,1.05605 1.67996,1.92005 2.16,2.592 0.76796,1.05605 1.15196,2.30404 1.152,3.744 l 3.456,0 -0.72,-24.48 -3.456,0 c -0.096,0.67207 -0.28804,1.39207 -0.576,2.16 -0.28804,0.76806 -0.57604,1.39206 -0.864,1.872 -1.05604,1.53606 -2.16004,2.97606 -3.312,4.32 -1.05604,1.24806 -2.44804,1.96806 -4.176,2.16 l 1.008,-27.36 c 0.096,-2.11191 0.33596,-3.50391 0.72,-4.176 0.38396,-0.76791 1.53596,-1.15191 3.456,-1.152 2.01596,9e-5 3.79196,0.43209 5.328,1.296 1.53595,0.76809 2.83195,1.77609 3.888,3.024 0.47995,0.57608 0.95995,1.24808 1.44,2.016 0.57595,0.76808 1.15195,1.53608 1.728,2.304 0.28795,1.05608 0.47995,2.06408 0.576,3.024 0.19195,0.96008 0.38395,1.92008 0.576,2.88 l 3.456,0"
       style="font-size:144px;fill:#6d9842;fill-opacity:1"
       id="path3026"
       inkscape:connector-curvature="0" />
    <path
       d="m 826.84034,331.46947 6.768,-110.304 55.296,-3.024 7.2,116.352 -69.264,-3.024 m 50.544,-40.752 -3.312,0.72 c -0.28805,2.20803 -0.76805,4.36803 -1.44,6.48 -0.67205,2.01603 -1.48805,4.08002 -2.448,6.192 -1.15205,1.72802 -2.54405,3.02402 -4.176,3.888 -1.63204,0.86402 -3.31204,1.29602 -5.04,1.296 -1.05604,2e-5 -2.01604,-0.28798 -2.88,-0.864 -0.76804,-0.57598 -1.20003,-1.58398 -1.296,-3.024 l 3.312,-60.192 c -4e-5,-0.67192 0.096,-1.39192 0.288,-2.16 0.19196,-0.86392 0.47996,-1.63192 0.864,-2.304 0.38396,-0.67191 0.91196,-1.24791 1.584,-1.728 0.67196,-0.47991 1.58396,-0.71991 2.736,-0.72 l 0.144,-3.456 -23.184,-1.728 0,3.456 c 1.91998,0.19209 3.11998,0.96009 3.6,2.304 0.57598,1.24809 0.86397,2.30409 0.864,3.168 l -1.008,64.08 c -2e-5,1.44002 -0.28802,2.64002 -0.864,3.6 -0.57602,0.86402 -1.77602,1.44002 -3.6,1.728 l 0,3.456 37.728,-2.016 -1.872,-22.176"
       style="font-size:144px;fill:#6d9842;fill-opacity:1"
       id="path3028"
       inkscape:connector-curvature="0" />
    <path
       d="m 974.71034,331.46947 -68.976,-2.88 6.624,-110.304 55.296,-2.88 7.056,116.064 m -9.504,-22.032 c -2.20806,-0.19198 -3.74406,-1.10398 -4.608,-2.736 -0.86406,-1.63198 -1.53606,-3.40798 -2.016,-5.328 l -15.984,-69.408 -6.768,0 -14.832,70.56 c -0.19202,0.96002 -0.43202,1.96802 -0.72,3.024 -0.28802,0.96002 -0.67202,1.87202 -1.152,2.736 -0.48002,0.86402 -1.10402,1.58402 -1.872,2.16 -0.67202,0.48002 -1.58401,0.72002 -2.736,0.72 l 0,3.168 15.696,0.864 0,-3.168 c -1.72803,-0.19199 -3.07203,-0.62399 -4.032,-1.296 -0.86402,-0.76798 -1.29602,-2.11198 -1.296,-4.032 -2e-5,-0.57598 -2e-5,-1.05598 0,-1.44 -2e-5,-0.47998 0.096,-1.05598 0.288,-1.728 l 2.88,-13.536 14.256,0.864 3.6,12.24 c 0.28795,1.05602 0.43195,2.35202 0.432,3.888 -5e-5,1.15202 -0.38405,1.96802 -1.152,2.448 -0.76804,0.48002 -1.82404,0.81602 -3.168,1.008 l 0,3.168 23.472,-1.008 -0.288,-3.168 m -36.144,-23.76 5.76,-30.24 6.624,31.104 -12.384,-0.864"
       style="font-size:144px;fill:#6d9842;fill-opacity:1"
       id="path3030"
       inkscape:connector-curvature="0" />
    <path
       inkscape:connector-curvature="0"
       d="m 108.83125,42.052081 -9.8,161.199999 -76.799993,-4 -9.2,-153.199999 95.799993,-4 m -24.99999,136.200009 1.8,-30.80001 -4.4,0 c -1.46674,3.46672 -2.93341,6.86671 -4.4,10.20001 -1.33341,3.33337 -2.7334,6.13337 -4.2,8.39999 -1.06673,1.4667 -2.46673,2.80003 -4.2,4 -1.60006,1.06669 -4.00006,1.60003 -7.2,1.6 -3.733388,3e-5 -5.600053,-2.19997 -5.600003,-6.6 l -1.8,-86.399998 c -4.9e-5,-1.066549 0.06662,-2.066548 0.2,-3.000001 0.266618,-1.066545 0.733285,-1.933211 1.399999,-2.6 0.79995,-0.799876 1.799949,-1.599875 3.000001,-2.399999 1.333283,-0.933208 2.333283,-1.466539 3.000003,-1.600001 l 0.2,-4.8 -32.200003,2 0,4.8 c 2.533307,0.266792 4.133305,1.200124 4.8,2.8 0.799971,1.466788 1.266637,3.066786 1.4,4.800001 l 3.6,85.599998 c 0.133299,1.8667 -0.2667,3.53336 -1.200001,5 -0.800031,1.33336 -2.466695,2.13336 -4.999999,2.4 l 0,4.80001 50.800003,1.8"
       style="font-size:200px;font-style:normal;font-variant:normal;font-weight:bold;font-stretch:normal;line-height:125%;letter-spacing:0px;word-spacing:0px;fill:#6d9842;fill-opacity:1;stroke:none;font-family:Horseshoes and Lemonade;-inkscape-font-specification:Horseshoes and Lemonade Bold"
       id="path3008-2" />
  </g>
  <g
     transform="matrix(0.73397136,0,0,0.73397136,28.099555,147.2283)"
     style="font-size:4px;font-style:normal;font-variant:normal;font-weight:bold;font-stretch:normal;line-height:125%;letter-spacing:0px;word-spacing:0px;fill:#cc0000;fill-opacity:1;stroke:none;font-family:Ubuntu;-inkscape-font-specification:Sans Bold"
     id="flowRoot2999">
    <path
       d="m 181.046,708.28967 9.516,-187.392 106.384,4.88 3.904,187.392 -119.804,-4.88 m 108.092,-160.796 -32.452,-2.44 -12.2,47.336 -14.884,-49.288 -33.672,2.44 0,5.856 c 3.90397,0.48815 6.1813,1.38281 6.832,2.684 0.65064,1.13881 1.0573,2.92814 1.22,5.368 l 5.612,105.164 c -4e-5,0.97604 -0.0814,2.19603 -0.244,3.66 -4e-5,1.46403 -0.32537,2.8467 -0.976,4.148 -0.48804,1.30136 -1.46403,2.52136 -2.928,3.66 -1.30136,1.13869 -3.17203,1.87069 -5.612,2.196 l 0,5.856 30.012,0 0,-5.612 c -3.57872,-0.48798 -6.18138,-1.87064 -7.808,-4.148 -0.81338,-1.30131 -1.38271,-3.09064 -1.708,-5.368 -0.16271,-2.2773 -0.32538,-4.31063 -0.488,-6.1 l -5.612,-107.36 23.668,65.88 8.052,0 16.348,-69.54 -2.44,119.316 c -9e-5,1.30136 -0.24409,2.60269 -0.732,3.904 -0.48809,1.30136 -0.89475,2.35869 -1.22,3.172 -1.46408,1.46402 -4.22941,2.52135 -8.296,3.172 l 0,5.856 37.088,2.684 0,-5.856 c -5.36811,-0.48798 -7.97077,-3.98531 -7.808,-10.492 l 2.44,-110.044 c -1.1e-4,-0.3252 0.0812,-1.38253 0.244,-3.172 0.16256,-1.95186 0.65056,-3.49719 1.464,-4.636 0.32522,-0.32519 0.65056,-0.48785 0.976,-0.488 0.48789,1.5e-4 1.05722,0.16281 1.708,0.488 0.81322,0.16281 1.62655,0.24414 2.44,0.244 0.32522,1.4e-4 0.65055,-0.0812 0.976,-0.244 l 0,-8.296"
       style="font-size:244px;fill:#cc0000;font-family:Horseshoes and Lemonade;-inkscape-font-specification:Horseshoes and Lemonade Bold"
       id="path3021"
       inkscape:connector-curvature="0" />
    <path
       d="m 314.4835,713.16967 14.396,-197.152 99.064,4.88 6.344,187.392 -119.804,4.88 m 99.064,-103.456 c -1.1e-4,-6.01857 -0.16277,-11.79323 -0.488,-17.324 -0.32544,-5.69322 -1.38277,-11.95588 -3.172,-18.788 -1.30144,-5.53053 -2.84677,-10.00386 -4.636,-13.42 -1.78943,-3.41586 -4.31076,-6.58785 -7.564,-9.516 -7.15742,-6.83184 -14.64008,-10.24784 -22.448,-10.248 -4.39206,1.6e-4 -8.29606,0.89483 -11.712,2.684 -3.25339,1.78949 -6.18138,4.22949 -8.784,7.32 -2.60271,3.09081 -4.96138,6.83214 -7.076,11.224 -1.95204,4.22947 -3.90404,8.86546 -5.856,13.908 -0.6507,1.95212 -1.30137,4.55479 -1.952,7.808 -0.6507,3.09078 -1.30137,6.34411 -1.952,9.76 -0.48803,3.4161 -0.8947,6.5881 -1.22,9.516 -0.32536,2.9281 -0.48803,5.12409 -0.488,6.588 -3e-5,3.41609 -3e-5,7.15742 0,11.224 -3e-5,4.06674 0.0813,8.05207 0.244,11.956 0.16264,3.7414 0.40664,7.23873 0.732,10.492 0.3253,3.25339 0.73197,5.85605 1.22,7.808 1.13863,4.22938 2.7653,8.45871 4.88,12.688 2.27729,4.0667 4.87996,7.7267 7.808,10.98 3.09062,3.25336 6.42528,5.85602 10.004,7.808 3.57861,1.95202 7.4826,2.92802 11.712,2.928 7.15726,2e-5 13.74525,-2.84665 19.764,-8.54 6.01857,-5.6933 10.65457,-13.58263 13.908,-23.668 3.09056,-9.27194 5.04256,-17.7306 5.856,-25.376 0.81323,-7.64525 1.21989,-13.58258 1.22,-17.812 m -21.228,-3.416 c -0.16275,8.78409 -0.56942,17.40541 -1.22,25.864 -0.65075,8.29606 -2.11475,16.83605 -4.392,25.62 -2.76541,10.4107 -6.91341,15.61603 -12.444,15.616 -2.92807,3e-5 -5.28673,-1.70797 -7.076,-5.124 -1.78939,-3.41596 -3.09072,-6.91329 -3.904,-10.492 -0.97606,-4.55462 -1.62672,-8.94661 -1.952,-13.176 -0.32539,-4.22927 -0.48805,-8.7026 -0.488,-13.42 -5e-5,-3.09059 -5e-5,-6.91326 0,-11.468 0.16261,-4.71725 0.32528,-9.67858 0.488,-14.884 0.32528,-5.20523 0.65061,-10.41056 0.976,-15.616 0.48794,-5.36788 1.05728,-10.32921 1.708,-14.884 1.13861,-8.29587 3.00927,-14.47719 5.612,-18.544 2.76527,-4.22918 5.85593,-6.34385 9.272,-6.344 1.95193,1.5e-4 3.57859,0.65082 4.88,1.952 1.46392,1.30148 2.68392,3.09081 3.66,5.368 0.97592,2.27748 1.78925,4.96147 2.44,8.052 0.81325,2.92813 1.46391,6.10013 1.952,9.516 0.81325,4.71746 1.05725,9.67878 0.732,14.884 -0.16275,5.04277 -0.24409,10.7361 -0.244,17.08"
       style="font-size:244px;fill:#cc0000;font-family:Horseshoes and Lemonade;-inkscape-font-specification:Horseshoes and Lemonade Bold"
       id="path3023"
       inkscape:connector-curvature="0" />
    <path
       d="m 567.481,703.40967 -119.316,7.076 6.344,-194.224 98.576,4.88 14.396,182.268 m -23.18,-53.68 c 0.16256,0.81338 0.2439,1.78938 0.244,2.928 -10e-5,0.97605 -10e-5,1.87071 0,2.684 -10e-5,1.78938 -0.2441,3.90404 -0.732,6.344 -0.32544,2.44004 -0.7321,4.5547 -1.22,6.344 -0.32544,0.81337 -0.89477,1.6267 -1.708,2.44 -0.65077,0.81336 -1.4641,1.22003 -2.44,1.22 -3.57876,3e-5 -5.36809,-4.55463 -5.368,-13.664 -9e-5,-2.43995 0.0812,-4.55462 0.244,-6.344 0.16257,-1.78928 0.32524,-3.57861 0.488,-5.368 0.16257,-1.78928 0.32524,-3.65994 0.488,-5.612 0.16257,-1.95194 0.24391,-4.14794 0.244,-6.588 -9e-5,-2.43993 -0.24409,-4.96126 -0.732,-7.564 -0.48809,-2.76526 -1.46409,-5.28659 -2.928,-7.564 -2.11476,-2.76525 -4.63609,-5.12391 -7.564,-7.076 -2.92808,-1.95191 -6.99474,-3.57857 -12.2,-4.88 5.20526,-0.65057 9.43459,-1.9519 12.688,-3.904 3.41591,-2.11457 6.09991,-4.3919 8.052,-6.832 2.11457,-2.60256 3.6599,-5.28656 4.636,-8.052 0.9759,-2.76522 1.7079,-5.36788 2.196,-7.808 0.32523,-1.30121 0.56923,-2.92788 0.732,-4.88 0.32523,-2.11454 0.4879,-3.90387 0.488,-5.368 -10e-5,-3.41587 -0.65077,-6.75053 -1.952,-10.004 -1.30143,-3.25319 -3.90409,-6.01852 -7.808,-8.296 -2.76542,-1.62652 -5.77475,-2.76518 -9.028,-3.416 -3.25341,-0.65051 -7.97074,-0.97585 -14.152,-0.976 -3.57873,1.5e-4 -6.91339,0.16282 -10.004,0.488 -2.92805,0.32549 -5.93738,0.73215 -9.028,1.22 -2.92805,0.48815 -6.01871,1.05748 -9.272,1.708 -3.25337,0.65082 -6.91337,1.38282 -10.98,2.196 l 0,5.612 c 2.2773,0.32548 4.06663,0.81347 5.368,1.464 1.46397,0.48814 2.19596,1.38281 2.196,2.684 l 3.416,96.38 c -4e-5,1.46404 -0.48804,3.25337 -1.464,5.368 -0.97604,1.95203 -3.3347,3.17203 -7.076,3.66 l 0,5.612 31.72,0 0,-5.612 c -3.09073,-0.3253 -5.28672,-1.3013 -6.588,-2.928 -1.30139,-1.7893 -1.87072,-3.82263 -1.708,-6.1 l 1.952,-51.484 c 3.57861,9e-5 6.58794,0.40676 9.028,1.22 2.6026,0.65076 4.71726,2.03342 6.344,4.148 1.13859,1.95209 1.78926,3.90408 1.952,5.856 0.32526,1.78941 0.48793,3.66008 0.488,5.612 -7e-5,2.44007 -0.24407,4.63607 -0.732,6.588 -0.48807,1.7894 -0.73207,2.84673 -0.732,3.172 l -0.732,19.276 c -0.16274,4.55471 0.0813,8.13337 0.732,10.736 0.65059,2.44003 1.78926,5.12403 3.416,8.052 3.25325,6.34402 8.45858,9.51602 15.616,9.516 5.69324,2e-5 10.16657,-1.95198 13.42,-5.856 3.25323,-4.06664 4.87989,-10.8173 4.88,-20.252 -1.1e-4,-2.27729 -0.16278,-4.22928 -0.488,-5.856 l -4.392,-0.244 m -33.672,-47.824 c -0.97607,0.9761 -1.95207,1.87076 -2.928,2.684 -0.97607,0.65076 -2.60273,0.9761 -4.88,0.976 l -6.832,-0.732 2.44,-41.48 c 0.16261,-2.43986 0.73194,-4.31052 1.708,-5.612 0.97594,-1.30119 2.76527,-1.95185 5.368,-1.952 2.76526,1.5e-4 4.87993,0.48814 6.344,1.464 1.46393,0.97614 2.84659,2.52147 4.148,4.636 0.97592,1.78947 1.70792,3.66014 2.196,5.612 0.65059,1.78946 0.97592,3.90413 0.976,6.344 -8e-5,1.95213 -0.16275,4.22946 -0.488,6.832 -0.32541,2.60278 -0.81341,5.28678 -1.464,8.052 -0.65074,2.60278 -1.54541,5.12411 -2.684,7.564 -0.97607,2.27744 -2.27741,4.1481 -3.904,5.612"
       style="font-size:244px;fill:#cc0000;font-family:Horseshoes and Lemonade;-inkscape-font-specification:Horseshoes and Lemonade Bold"
       id="path3025"
       inkscape:connector-curvature="0" />
    <path
       d="m 583.5545,720.73367 4.148,-200.08 101.504,-7.32 12.2,194.956 -117.852,12.444 m 91.5,-174.704 -73.688,6.832 1.952,39.772 6.588,-1.464 c 0.3253,-4.39189 0.97596,-8.78388 1.952,-13.176 1.13863,-4.55454 2.60263,-8.21454 4.392,-10.98 2.27729,-1.62653 5.28662,-2.7652 9.028,-3.416 l 3.904,108.336 c -0.32539,2.27736 -0.97606,4.31069 -1.952,6.1 -0.97605,1.62669 -2.35872,2.76535 -4.148,3.416 -0.81338,2e-5 -1.70805,2e-5 -2.684,0 -0.81338,2e-5 -1.62671,0.0814 -2.44,0.244 l 0,7.808 39.04,-1.952 0,-7.808 c -1.46408,-0.16265 -2.84675,-0.48798 -4.148,-0.976 -1.30141,-0.48798 -2.35874,-1.38264 -3.172,-2.684 -0.65074,-1.30131 -1.05741,-2.76531 -1.22,-4.392 -0.16274,-1.7893 -0.24408,-3.17197 -0.244,-4.148 l 0.244,-107.116 6.588,0.732 c 1.62658,0.65081 3.09058,1.95214 4.392,3.904 1.30125,1.78947 2.43991,3.98547 3.416,6.588 0.97591,2.60279 1.78924,5.44946 2.44,8.54 0.81324,2.92812 1.46391,5.85611 1.952,8.784 l 5.368,0 2.44,-42.944"
       style="font-size:244px;fill:#cc0000;font-family:Horseshoes and Lemonade;-inkscape-font-specification:Horseshoes and Lemonade Bold"
       id="path3027"
       inkscape:connector-curvature="0" />
  </g>
  <path
     style="fill:#b3c0a0;fill-opacity:1"
     d="m 199.98426,425.7722 c -6.50987,0 -24.19501,5.90246 -27.95972,7.68377 -1.82093,0.86159 -4.51426,2.47483 -4.86256,1.96705 -0.34645,-0.50509 0.5475,-1.51066 0.9404,-2.0588 1.1493,-1.60347 2.00391,-1.39935 -3.5093,-0.64223 -26.97381,3.70426 -44.49682,12.19533 -51.07982,24.79447 -0.34794,15.86438 -1.98793,3.80703 0.27523,16.5373 16.39998,23.792 43.48362,32.58402 70.41539,29.42766 25.50233,-2.98884 56.8212,-0.78199 83.76448,-21.00994 3.02522,-2.5107 3.12214,-14.05974 0.16056,-21.14754 -4.91664,-11.7672 -18.66638,-22.34297 -34.81777,-26.78996 -14.07185,-3.87442 -14.14432,-3.9068 -12.24815,-5.80295 -3.83023,-1.28552 -0.63659,-0.3837 -6.30756,-2.45423 -3.00708,4.58938 -8.5324,5.62357 -9.97743,1.85787 -0.4987,-1.29957 -2.68196,-2.36247 -4.79375,-2.36247 z"
     id="path3784-0"
     inkscape:connector-curvature="0"
     sodipodi:nodetypes="sssssccsccsccss" />
  <g
     id="g3881"
     transform="matrix(0.73397136,0,0,0.73397136,-769.59349,134.56316)">
    <path
       inkscape:connector-curvature="0"
       id="path3861"
       d="m 1903.4373,505.34967 0,-24.51065 -89.8301,-10.01463 0,34.52374 z"
       style="fill:#c3c3cd;fill-opacity:1;stroke:none"
       sodipodi:nodetypes="ccccc" />
    <path
       inkscape:connector-curvature="0"
       id="path3859"
       d="m 1152.9594,486.03969 661.0363,-16.4564 1.1957,36.1627 -660.6233,3.59783 z"
       style="fill:#a6a7b8;fill-opacity:1;stroke:none"
       sodipodi:nodetypes="ccccc" />
  </g>
  <path
     style="fill:#bfc9d1;fill-opacity:1;stroke:none"
     d="m 491.20153,0 52.01919,12.004417 -33.83064,69.480181 19.5322,74.396292 -85.01091,72.20324 -17.461,64.75114 9.82181,53.47429 -9.82181,-7.27543 -8.73048,-40.37853 9.09426,-64.75115 79.66575,-87.6687 -26.55525,-65.842472 z"
     id="path3002"
     inkscape:connector-curvature="0" />
  <path
     style="fill:#f1efd9;fill-opacity:1;stroke:none"
     d="m 444.83252,335.81483 c -31.30419,0 -56.67635,25.75735 -56.67635,57.52501 0,31.76766 25.37216,57.50207 56.67635,57.50207 31.30418,0 56.67635,-25.73441 56.67635,-57.50207 0,-31.76766 -25.37217,-57.52501 -56.67635,-57.52501 z m 14.33538,9.65631 c 0.32409,0.0291 0.63641,0.12448 0.91746,0.29819 1.28947,0.79692 3.66248,6.39872 -0.13762,11.10131 4.75763,3.63772 0.94908,10.20679 -0.38992,10.20679 -1.19358,0 -3.05009,-1.06292 -4.12859,-2.36247 -1.41884,-1.70958 -5.17002,-2.36247 -13.57847,-2.36247 -10.40595,0 -11.62886,0.322 -11.62886,3.02763 0,5.10541 -1.76414,5.06899 -4.8855,5.06899 -1.64013,0 -3.06113,-0.88958 -3.14231,-1.97255 -1.26085,-6.68787 -0.18046,-4.89111 1.812,-7.54614 -4.0818,-6.51305 -1.59123,-7.98866 -0.48168,-9.38107 1.8742,-2.35184 2.27447,-2.26699 4.56438,0.96334 2.05175,2.89438 4.00008,3.54977 10.59672,3.53223 10.86402,-0.029 15.16109,-1.36778 15.16109,-4.702 0,-2.97276 3.05258,-6.07538 5.3213,-5.87178 z m 20.55119,25.06971 c 1.13059,-0.0541 2.33584,0.45508 3.46343,1.58263 1.28863,1.28877 3.22992,5.32726 2.66064,9.771 -0.24719,1.9292 -0.20833,3.29267 -2.77532,5.84883 4.87864,3.94433 2.23476,16.89753 -3.73867,14.15188 -1.88087,-1.00655 -3.41755,-2.88245 -3.41755,-4.15152 0,-2.79164 1.7173,-2.79458 -29.15243,0.0688 -13.862,1.28576 -26.79021,2.33586 -28.73956,2.33953 -2.36031,0.004 -3.55518,0.95577 -3.55518,2.84414 0,6.55932 -8.075,8.98068 -11.10131,3.32581 -1.04877,-1.95961 -1.25241,-4.98997 -0.52755,-7.47734 0.35554,-1.21996 2.99135,-2.8132 3.23407,-5.16073 0.21519,-2.0818 -1.95163,-4.86793 -1.92668,-6.90392 0.0882,-7.30489 0.37359,-7.86725 3.99097,-7.86725 2.93889,0 4.29102,1.16396 5.45891,4.72494 0.85251,2.59912 1.59345,4.85563 1.65144,5.02311 0.0583,0.16747 13.19332,-1.05746 29.19829,-2.72946 16.00476,-1.67199 29.24297,-3.06183 29.40473,-3.0735 0.16163,-0.0111 0.50828,-2.24891 0.77985,-4.97724 0.44279,-4.45085 2.60464,-7.2206 5.09192,-7.33972 z m -3.94509,36.2169 c 1.87413,-0.0424 4.86256,2.00925 4.86256,3.80748 0,2.98086 -4.59485,2.79924 -5.75709,-0.22937 -0.51304,-1.33693 -0.59966,-2.77197 -0.18349,-3.18818 0.26313,-0.26313 0.64552,-0.38016 1.07802,-0.38993 z m -7.61495,1.72025 c 0.54571,-0.026 1.0702,0.12979 1.49087,0.55048 0.90089,0.90097 1.19384,2.77408 0.66517,4.15153 -1.37752,3.58997 -5.37946,4.70875 -6.49106,1.81199 -1.01589,-2.6474 1.97025,-6.40152 4.33502,-6.514 z m -31.69839,4.83962 c 2.13894,-0.12861 3.75498,2.07047 2.68358,4.86256 -1.16709,3.04149 -7.33971,3.2922 -7.33971,0.29818 0,-1.19346 1.09501,-3.08839 2.43128,-4.1974 0.74857,-0.62125 1.51186,-0.92047 2.22485,-0.96334 z m 47.63933,1.05509 c 1.34329,-0.0235 3.02886,0.563 3.71572,1.67437 1.62201,2.62437 -1.51351,4.90865 -3.71572,2.70652 -1.0396,-1.03967 -1.88081,-2.44921 -1.88081,-3.14232 0,-0.82123 0.83602,-1.22033 1.88081,-1.23857 z m -40.36843,2.50008 c 2.4519,0.014 5.96169,3.15083 4.74788,5.11487 -1.52688,2.47042 -3.30996,2.27402 -5.71121,-0.61929 -1.29033,-1.55463 -1.47368,-2.97608 -0.50461,-3.9451 0.38,-0.37999 0.90211,-0.5537 1.46794,-0.55048 z m 12.43164,1.812 c 2.58128,-0.19115 5.91288,1.702 4.72494,3.62398 -1.05618,1.70908 -5.99577,2.00911 -7.54614,0.45873 -0.57008,-0.57006 -0.26174,-1.97489 0.6881,-3.11938 0.49868,-0.60087 1.27267,-0.89962 2.1331,-0.96333 z m -30.52862,2.38541 c 0.54572,-0.026 1.07021,0.12979 1.49088,0.55047 0.90088,0.90098 1.19377,2.77408 0.66516,4.15153 -1.37751,3.58997 -5.4024,4.70877 -6.51399,1.81199 -1.01583,-2.64739 1.99318,-6.40151 4.35795,-6.51399 z m -7.17916,9.58749 c 0.59182,-0.0823 0.73397,0.66943 0.73397,2.40835 0,3.37943 -2.21842,4.49794 -3.80747,1.92667 -0.47481,-0.7682 0.17784,-2.25518 1.46794,-3.3258 0.73195,-0.60747 1.25047,-0.95984 1.60556,-1.00922 z"
     id="path3019"
     inkscape:connector-curvature="0"
     sodipodi:nodetypes="ssssssccscssscccsssssccccsscscsccsccsccsssscssccssssssssscssscccsscsssscccsssccs" />
  <path
     style="fill:#7e8c6a;fill-opacity:1;stroke:none"
     d="m 215.80472,435.18707 c 0.80808,1.13194 0.3954,2.81182 -0.92175,3.75213 -1.31716,0.94032 -3.04001,0.78498 -3.8481,-0.34695 -0.80808,-1.13195 -0.39539,-2.81183 0.92177,-3.75214 1.31716,-0.94031 3.04,-0.78497 3.84808,0.34696 z"
     id="path3817"
     inkscape:connector-curvature="0" />
  <path
     style="fill:#7e8c6a;fill-opacity:1;stroke:none"
     d="m 209.00447,438.50153 c 0.67587,0.93743 0.33072,2.32865 -0.77094,3.10739 -1.10165,0.77873 -2.54261,0.65009 -3.21848,-0.28734 -0.67587,-0.93743 -0.33071,-2.32866 0.77095,-3.1074 1.10165,-0.77873 2.5426,-0.65008 3.21847,0.28735 z"
     id="path3819"
     inkscape:connector-curvature="0" />
  <path
     style="fill:#7e8c6a;fill-opacity:1;stroke:none"
     d="m 214.39421,441.89332 c 0.32915,1.10781 -0.45524,2.30754 -1.75199,2.67968 -1.29676,0.37214 -2.61481,-0.22423 -2.94396,-1.33204 -0.32914,-1.10781 0.45526,-2.30754 1.75202,-2.67968 1.29676,-0.37214 2.61479,0.22423 2.94393,1.33204 z"
     id="path3821"
     inkscape:connector-curvature="0" />
  <path
     style="fill:#7e8c6a;fill-opacity:1;stroke:none"
     d="m 156.83558,441.59564 c -0.93744,-0.67586 -2.32866,-0.3307 -3.10739,0.77095 -0.77874,1.10165 -0.6501,2.54261 0.28734,3.21848 0.93743,0.67587 2.32865,0.3307 3.10739,-0.77095 0.77874,-1.10165 0.65009,-2.54261 -0.28734,-3.21848 z"
     id="path3823"
     inkscape:connector-curvature="0" />
  <path
     style="fill:#7e8c6a;fill-opacity:1;stroke:none"
     d="m 151.06289,443.89797 c -1.10781,-0.32914 -2.30753,0.45525 -2.67968,1.75201 -0.37214,1.29676 0.22424,2.61481 1.33205,2.94395 1.1078,0.32915 2.30753,-0.45526 2.67967,-1.75201 0.37214,-1.29676 -0.22423,-2.6148 -1.33204,-2.94395 z"
     id="path3825"
     inkscape:connector-curvature="0" />
  <path
     sodipodi:nodetypes="csssscscccsccsssssssssccsccccccccssccsssssssssscc"
     inkscape:connector-curvature="0"
     id="path3808"
     d="m 244.22897,453.75486 c 2.08624,-0.0731 3.73777,0.46288 4.95431,1.42207 1.62205,1.27891 2.35501,3.22904 2.47715,5.1378 0.12214,1.90875 -0.32209,3.81385 -1.1927,5.32129 -0.87061,1.50744 -2.30622,2.71629 -4.05979,2.54596 -1.8284,-0.1776 -3.12199,-0.77255 -3.87628,-1.72024 -0.75426,-0.9477 -0.85401,-2.11261 -0.71103,-3.09645 0.28594,-1.96766 1.46794,-3.60104 1.46794,-3.60104 l 0.92204,0.6275 0.7294,0.49639 c 0,0 -0.93578,1.48089 -1.1239,2.77533 -0.0941,0.64721 -0.0177,1.13996 0.29818,1.53676 0.31582,0.3968 0.97785,0.8177 2.47715,0.96333 0.73425,0.0713 1.49422,-0.43054 2.1331,-1.53675 0.63889,-1.10622 1.01303,-2.70398 0.91747,-4.1974 -0.0956,-1.49342 -0.62559,-2.82485 -1.69731,-3.66985 -1.07172,-0.84501 -2.78505,-1.30456 -5.55066,-0.73398 -5.44142,1.12264 -9.54122,3.26626 -14.08307,4.86256 -4.54186,1.5963 -9.52604,2.56524 -16.42261,1.19271 -12.62783,-2.51313 -28.47323,1.58385 -38.94635,7.13328 -5.23657,2.77471 -9.12314,5.9633 -10.57378,8.53241 -0.72532,1.28457 -0.83514,2.30567 -0.48167,3.18819 0.35347,0.88253 1.27826,1.7963 3.18819,2.56891 1.62596,0.6577 2.57589,0.47047 3.23406,0.0229 0.65816,-0.44754 1.09755,-1.31079 1.26151,-2.29366 0.16396,-0.98287 0.004,-2.02754 -0.29817,-2.59184 -0.1511,-0.28215 -0.29694,-0.42706 -0.41286,-0.48167 -0.11593,-0.0547 -0.22057,-0.0841 -0.50461,0.0229 -0.98279,0.37021 -1.38294,0.74341 -1.46794,0.87158 -0.085,0.12816 -0.0646,0.0106 0,0.13763 0.12914,0.25404 0.82572,0.75691 0.82572,0.75691 l -0.45313,0.96371 -0.51021,0.8024 c 0,0 -1.09532,-0.46647 -1.67437,-1.60557 -0.28953,-0.56954 -0.35057,-1.47739 0.11468,-2.17897 0.46525,-0.70157 1.26148,-1.17919 2.45422,-1.6285 0.69537,-0.26198 1.45133,-0.26599 2.06429,0.0229 0.61296,0.28892 1.055,0.79626 1.35326,1.35326 0.59653,1.11399 0.73417,2.52312 0.50461,3.89921 -0.22956,1.37611 -0.87343,2.76744 -2.13311,3.62399 -1.25967,0.85655 -3.06656,1.01208 -5.11486,0.1835 -2.2115,-0.89461 -3.68394,-2.12451 -4.31208,-3.6928 -0.62815,-1.56829 -0.29559,-3.3111 0.61928,-4.93137 1.82976,-3.24054 5.95348,-6.43871 11.37656,-9.31226 10.84618,-5.7471 26.93213,-9.99548 40.27668,-7.33972 6.54145,1.30187 11.00857,0.40813 15.36752,-1.12389 4.35897,-1.53201 8.61749,-3.74697 14.35832,-4.93137 0.78827,-0.16264 1.52943,-0.2738 2.22485,-0.29818 z"
     style="fill:#646c58;fill-opacity:1" />
  <path
     sodipodi:nodetypes="ccsscccsssccc"
     inkscape:connector-curvature="0"
     id="path3029"
     d="m 192.75923,435.08446 c 1.43614,0.0275 2.5822,0.72245 2.84414,1.85786 0.34928,1.51388 -1.03427,3.25559 -3.09644,3.85336 -2.06217,0.59776 -3.98576,-0.1605 -4.33502,-1.67438 -0.34927,-1.51387 1.03427,-3.25558 3.09644,-3.85334 0.51553,-0.14949 1.01217,-0.19272 1.49088,-0.1835 z m -15.18403,2.43128 c 3.26479,0.0355 5.91314,1.66704 6.03233,3.85335 0.12711,2.33204 -2.65506,4.39321 -6.21583,4.58732 -3.56078,0.19413 -6.57035,-1.49837 -6.69749,-3.83041 -0.12712,-2.33208 2.65506,-4.39321 6.21583,-4.58732 0.22254,-0.0122 0.44751,-0.0253 0.66516,-0.0229 z"
     style="fill:#4c5244;fill-opacity:1" />
</svg>
