<?xml version="1.0" encoding="UTF-8" standalone="no"?>
<!-- Created with Inkscape (http://www.inkscape.org/) -->

<svg
   xmlns:dc="http://purl.org/dc/elements/1.1/"
   xmlns:cc="http://creativecommons.org/ns#"
   xmlns:rdf="http://www.w3.org/1999/02/22-rdf-syntax-ns#"
   xmlns:svg="http://www.w3.org/2000/svg"
   xmlns="http://www.w3.org/2000/svg"
   xmlns:xlink="http://www.w3.org/1999/xlink"
   xmlns:sodipodi="http://sodipodi.sourceforge.net/DTD/sodipodi-0.dtd"
   xmlns:inkscape="http://www.inkscape.org/namespaces/inkscape"
   id="svg2"
   version="1.1"
   inkscape:version="0.48.3.1 r9886"
   width="950.17645"
   height="502.03479"
   sodipodi:docname="seloupoivre.svg">
  <metadata
     id="metadata8">
    <rdf:RDF>
      <cc:Work
         rdf:about="">
        <dc:format>image/svg+xml</dc:format>
        <dc:type
           rdf:resource="http://purl.org/dc/dcmitype/StillImage" />
        <dc:title></dc:title>
      </cc:Work>
    </rdf:RDF>
  </metadata>
  <defs
     id="defs6">
    <linearGradient
       id="linearGradient4174">
      <stop
         style="stop-color:#65696f;stop-opacity:1;"
         offset="0"
         id="stop4176" />
      <stop
         style="stop-color:#babdc2;stop-opacity:1;"
         offset="1"
         id="stop4178" />
    </linearGradient>
    <linearGradient
       id="linearGradient4046">
      <stop
         style="stop-color:#afc8de;stop-opacity:1;"
         offset="0"
         id="stop4048" />
      <stop
         style="stop-color:#f8f9fd;stop-opacity:1;"
         offset="1"
         id="stop4050" />
    </linearGradient>
    <linearGradient
       inkscape:collect="always"
       xlink:href="#linearGradient4174-4"
       id="linearGradient4180-2"
       x1="197.0433"
       y1="291.3959"
       x2="227.98232"
       y2="260.11243"
       gradientUnits="userSpaceOnUse" />
    <linearGradient
       id="linearGradient4174-4">
      <stop
         style="stop-color:#65696f;stop-opacity:1;"
         offset="0"
         id="stop4176-1" />
      <stop
         style="stop-color:#babdc2;stop-opacity:1;"
         offset="1"
         id="stop4178-7" />
    </linearGradient>
  </defs>
  <sodipodi:namedview
     pagecolor="#ffffff"
     bordercolor="#666666"
     borderopacity="1"
     objecttolerance="10"
     gridtolerance="10"
     guidetolerance="10"
     inkscape:pageopacity="0"
     inkscape:pageshadow="2"
     inkscape:window-width="1391"
     inkscape:window-height="876"
     id="namedview4"
     showgrid="false"
     inkscape:zoom="1.4142136"
     inkscape:cx="258.25215"
     inkscape:cy="335.87062"
     inkscape:window-x="49"
     inkscape:window-y="24"
     inkscape:window-maximized="1"
     inkscape:current-layer="svg2"
     fit-margin-top="0"
     fit-margin-left="0"
     fit-margin-right="0"
     fit-margin-bottom="0" />
  <g
     transform="translate(-0.907373,-0.7583839)"
     id="g3348">
    <path
       sodipodi:nodetypes="cscsscscsssscssscssssccscscssssssscssssssssssscccssssssssssssssssssssssssssssssssscsccccssssccccccscsccscsccccsscsccscscscscssccccccscccssssssssssssssssssscsssssssssssscsssssssscsssscssssssscss"
       inkscape:connector-curvature="0"
       id="path3286"
       d="m 498.59393,296.95673 c -0.55878,-0.55868 -0.39097,-60.05945 -0.47102,-66.83985 l -0.14546,-12.32799 -7.63571,0.0199 c -7.4217,0.0194 -7.65127,0.18129 -8.18729,5.77185 -0.44622,4.65428 -0.0396,5.55538 2.13139,4.72235 1.84818,-0.70927 2.68275,-0.0421 2.68275,2.14466 0,1.74577 -1.15087,3.61577 -2.55761,4.15557 -1.49501,0.57371 -2.55749,3.12859 -2.55749,6.15006 0,3.45761 0.84663,5.1686 2.55749,5.1686 1.42085,0 2.55761,1.5156 2.55761,3.41008 0,1.87555 -1.08698,3.41006 -2.4155,3.41006 -1.32853,0 -2.69056,0.8252 -3.02668,1.83374 -0.71409,2.14211 -9.90321,0.29923 -9.90321,-1.98602 0,-0.81824 1.95158,-1.97752 4.3368,-2.57619 5.0894,-1.27735 4.69346,-4.70505 -0.63403,-5.48896 -4.33398,-0.63775 -4.71834,-2.45739 -1.14518,-5.42279 1.40664,-1.16742 2.5575,-3.27545 2.5575,-4.68448 0,-1.93724 -1.24727,-2.31249 -5.11509,-1.53891 -5.44655,1.08933 -6.29097,-0.32896 -3.40547,-5.72047 2.48446,-4.64218 -0.92892,-6.01026 -6.26769,-2.51213 l -4.40812,2.88829 0.80082,-5.45681 c 1.04076,-7.09048 -2.55921,-8.57779 -8.11921,-3.35443 l -4.17592,3.923 0,-5.12815 c 0,-6.02041 -3.98952,-7.00055 -6.41487,-1.57598 -1.11095,2.48488 -0.44815,8.16286 2.20594,18.89748 2.08679,8.43995 3.45858,15.92078 3.04841,16.62411 -1.50231,2.57611 -13.63575,1.30243 -16.24281,-1.70503 -3.81137,-4.39663 -4.29121,-37.93708 -0.54283,-37.93708 1.4305,0 2.60086,-1.15089 2.60086,-2.55754 0,-2.10597 -3.23643,-2.58264 -18.32909,-2.69965 -10.08108,-0.0781 -20.0816,-0.33547 -22.22344,-0.57185 -2.14195,-0.23636 -5.02875,0.40302 -6.41518,1.42087 -1.56509,1.14894 -9.62408,1.64869 -21.25502,1.318 -17.21308,-0.4894 -18.73408,-0.80085 -18.73408,-3.83633 0,-3.13315 -1.43498,-3.30372 -27.79219,-3.30372 -18.41769,0 -28.44318,0.65113 -29.72245,1.93041 -1.96321,1.9632 -18.88862,2.37529 -20.75015,0.50522 -0.56069,-0.56328 0.72338,-2.43714 2.85355,-4.16416 4.04615,-3.28043 3.33552,-4.98734 -1.73611,-4.16995 -2.37824,0.38331 -2.76612,-0.36515 -1.92533,-3.71509 0.97291,-3.87641 0.69471,-4.1052 -3.66243,-3.01161 -4.42835,1.11145 -4.64647,0.90902 -3.58358,-3.32589 1.20412,-4.79748 -0.34428,-5.82632 -3.70729,-2.46333 -1.59136,1.59137 -2.04604,1.21248 -2.04604,-1.70502 -4.31167,-9.15206 -3.98142,-0.23298 -5.09933,0.50176 -0.9597,0.59313 -2.2052,-0.12107 -2.76778,-1.58723 -1.45729,-3.79761 -3.49326,-3.29572 -4.74906,1.17072 -0.98438,3.50116 -1.2326,3.57567 -2.84113,0.85251 -2.3655,-4.00462 -5.00313,-3.77989 -5.00313,0.42626 0,3.907 -1.73073,4.35072 -4.98779,1.27878 -1.85389,-1.74851 -2.10524,-1.26055 -1.3995,2.71695 0.77289,4.35594 0.44832,4.76951 -3.19638,4.07278 -2.66531,-0.50951 -4.05663,0.0206 -4.05663,1.54563 0,1.27662 0.76727,2.32111 1.70503,2.32111 0.93779,0 1.70505,1.1509 1.70505,2.55757 0,1.42086 -1.51559,2.55754 -3.41008,2.55754 -4.20607,0 -4.4359,2.65917 -0.42626,4.9319 2.79625,1.58498 2.77052,1.84885 -0.40921,4.19744 -3.31373,2.44753 -3.28039,2.55747 1.4266,4.7021 4.34743,1.98082 4.53784,2.40202 1.94351,4.29905 -3.63606,2.65877 -1.55278,6.32687 2.92784,5.15515 2.80675,-0.73396 3.20877,-0.22921 2.39618,3.00843 -1.31414,5.23597 0.57316,6.71466 4.28396,3.35641 2.83774,-2.5681 3.11796,-2.44873 4.17939,1.78034 1.04235,4.15305 1.38192,4.31201 4.0511,1.89643 3.6669,-3.31849 5.20244,-3.34181 5.20244,-0.079 0,1.40665 1.1509,2.55755 2.55756,2.55755 1.42085,0 2.55754,-1.51558 2.55754,-3.41007 0,-4.04962 2.61612,-4.52837 4.06814,-0.74446 1.35652,3.53503 4.45705,1.47241 4.45705,-2.96501 0,-2.82271 0.83293,-3.34899 4.2626,-2.69337 4.58628,0.87674 5.69288,-1.71506 2.21654,-5.19141 -1.59136,-1.59137 -1.02301,-2.04605 2.55755,-2.04605 2.9554,0 4.6036,-0.91567 4.6036,-2.55756 0,-1.40665 -0.81255,-2.55756 -1.80566,-2.55756 -0.99312,0 -1.33147,-0.76725 -0.7519,-1.70503 0.57959,-0.93777 7.9139,-1.70504 16.29848,-1.70504 9.02645,0 15.2447,-0.69548 15.2447,-1.70502 0,-0.93778 3.06907,-1.70504 6.82015,-1.70504 l 6.82017,0 0,11.93525 c 0,11.54881 -0.13612,15.93526 -4.20262,15.93526 8.50676,1.91978 8.90985,1.22398 12.72774,1.70508 l 0,-16.78778 0,-12.78777 7.6727,0 c 6.53595,0 7.67269,0.5052 7.67269,3.41006 0,3.73179 1.21121,4.01525 14.91908,3.49175 8.00443,-0.30569 8.96272,0.0327 9.05799,3.19831 0.67834,22.53512 0.57604,29.11971 -4.14584,29.6876 14.49282,1.55338 4.00202,0.17128 12.41458,0.6683 l 0.50119,-19.39167 0.50118,-13.39168 12.25583,-0.0365 c 6.74073,-0.0199 12.81492,-0.59547 13.49822,-1.27878 0.68331,-0.68322 6.86901,-1.24229 13.74596,-1.24229 l 12.50357,0 0,18.65478 c 0,10.59731 -0.73642,19.10993 -1.70496,19.70855 -2.63419,1.62799 -2.01435,8.89417 0.85254,9.99428 3.03542,1.16483 7.67259,-0.34859 7.67259,-2.50404 0,-1.86319 13.11436,-2.04804 14.25588,-0.20092 0.44927,0.72695 -1.51167,6.89918 -4.35765,13.71608 -4.59786,11.01338 -4.89649,12.71842 -2.68039,15.30243 1.37178,1.5994 3.01947,4.37903 3.66163,6.17693 0.91734,2.56819 1.61252,2.82404 3.24303,1.19353 1.14141,-1.14146 2.17132,-2.8043 2.28852,-3.69518 0.11733,-0.89089 0.309,-2.38706 0.42622,-3.32482 0.34211,-2.73703 5.01434,-1.96318 6.73748,1.11593 2.52803,4.5173 7.4351,1.60207 6.1205,-3.63604 -1.21729,-4.84985 -0.44703,-5.22267 4.48065,-2.16874 2.81947,1.74733 3.71537,1.6871 4.97309,-0.3344 0.9152,-1.47102 0.89418,-3.66119 -0.0518,-5.42927 -2.37466,-4.43706 -1.98218,-5.0572 2.49045,-3.93462 5.42267,1.361 7.10234,-1.81388 3.7038,-7.00081 -2.66375,-4.06529 -2.61825,-4.18761 1.55798,-4.18761 2.36602,0 4.35052,-0.95907 4.41005,-2.13129 0.0599,-1.17222 0.82013,-0.35565 1.69053,1.81456 0.87042,2.17025 2.35628,3.46769 3.30206,2.88321 0.94568,-0.58448 1.7194,0.0513 1.7194,1.41306 0,1.36168 -1.15088,2.91741 -2.55751,3.45721 -1.52162,0.5839 -2.55759,3.14886 -2.55759,6.33245 0,4.18148 0.59015,5.12459 2.70001,4.31496 1.73005,-0.66389 2.41914,-0.27005 1.91816,1.09635 -0.42997,1.17284 -1.68983,1.92569 -2.79966,1.67298 -1.37077,-0.31216 -1.8492,1.87468 -1.49194,6.82015 0.2969,4.10917 1.3923,7.27963 2.51513,7.27963 6.51197,0.0478 0.39849,0.40078 13.89864,0.73618 z M 340.46995,209.12164 c 0.0823,-1.9863 0.48584,-2.3903 1.0302,-1.03014 0.49254,1.23081 0.4319,2.70141 -0.1346,3.268 -0.56659,0.56655 -0.96955,-0.4405 -0.8955,-2.23786 z m 45.90138,1.10055 c 0,-0.87949 1.53461,-1.48347 3.41012,-1.3422 1.87552,0.14135 3.41003,0.86086 3.41003,1.59907 0,0.73822 -1.53451,1.3422 -3.41003,1.3422 -1.87551,0 -3.41012,-0.71956 -3.41012,-1.59907 z m -97.18706,-3.66689 c 0,-0.85482 1.66242,-1.55418 3.69426,-1.55418 2.03183,0 3.16053,0.53372 2.50821,1.18605 -1.84283,1.84281 -6.20247,2.10156 -6.20247,0.36813 z m -75.02159,94.90217 c 0,-3.41464 4.90303,-3.51089 6.20355,-0.12172 1.77994,4.63841 5.73171,2.87508 5.73171,-2.55756 0,-5.44881 1.45744,-6.38573 4.77409,-3.06906 3.36113,3.36111 6.24891,-0.78889 3.77091,-5.41911 -2.59751,-4.85348 -1.0936,-6.18874 4.23555,-3.76061 3.90299,1.77832 4.26981,1.59807 4.26981,-2.09817 0,-2.22398 -1.1509,-4.48524 -2.55756,-5.02505 -3.95866,-1.51907 -3.01777,-4.77984 1.27878,-4.4318 6.94288,0.5624 7.30507,-0.14135 2.21413,-4.30224 l -5.03229,-4.11292 4.70862,-1.79021 c 5.45502,-2.07405 4.51352,-5.20673 -1.56483,-5.20673 -5.16276,0 -5.23452,-1.13415 -0.32563,-5.14702 5.15189,-4.21153 2.18805,-7.6978 -4.4112,-5.18877 -5.19127,1.97372 -5.67442,0.77855 -1.87694,-4.64309 2.42545,-3.46281 2.4152,-3.8976 -0.11457,-4.86837 -1.52786,-0.5863 -3.64706,-0.19684 -4.70936,0.86546 -3.37794,3.37793 -6.19054,2.21742 -5.38553,-2.22214 0.96477,-5.32035 -2.03568,-7.1919 -5.90953,-3.68612 -4.12053,3.72903 -5.29968,3.42742 -5.29968,-1.35558 0,-6.25381 -4.66109,-6.98356 -5.98898,-0.93765 -1.07671,4.90201 -5.9463,7.19605 -5.9463,2.80125 0,-3.27466 -3.48273,-6.17372 -6.17542,-5.14045 -1.29236,0.49594 -2.34976,2.6099 -2.34976,4.6977 0,5.43579 -1.80876,6.50405 -5.4433,3.21483 -4.62955,-4.18969 -7.8483,-0.626 -5.02711,5.56585 2.04826,4.49544 2.03646,4.50547 -3.96785,3.37906 -6.77511,-1.27103 -8.22678,1.6917 -3.26165,6.65683 3.19525,3.19523 2.29781,4.68304 -2.9916,4.95965 -5.43004,0.28394 -5.8771,4.07928 -0.75539,6.41288 5.54628,2.52707 5.59133,4.50106 0.13402,5.87077 -4.74293,1.1904 -4.6659,1.0753 -3.22764,4.8233 0.5692,1.48337 2.871,2.69702 5.1151,2.69702 4.65483,0 5.25529,2.01724 1.52261,5.1151 -1.40665,1.16742 -2.55755,3.2776 -2.55755,4.68928 0,2.04323 1.403,2.34236 6.87925,1.46668 l 6.87922,-1.10004 -2.57175,4.9732 c -2.1221,4.1037 -2.17767,5.30025 -0.3179,6.84372 1.6953,1.40697 3.01594,1.02842 5.32902,-1.5275 3.86771,-4.27377 7.54601,-1.81111 6.38288,4.27341 -0.44703,2.33847 -0.10946,4.25177 0.75001,4.25177 2.64617,0 5.6549,-3.92123 5.6549,-7.36992 0,-4.55819 4.398,-0.83449 5.85074,4.95369 0.94173,3.75216 1.37117,3.96308 3.57737,1.75689 1.37883,-1.37892 2.50705,-3.71287 2.50705,-5.18651 z"
       style="fill:#888d96;fill-opacity:1" />
    <g
       transform="matrix(1.6722419,0,0,1.6722419,0.28409657,-23.21575)"
       id="g4035">
      <g
         id="g4031"
         transform="translate(0,-0.76450185)">
        <path
           inkscape:connector-curvature="0"
           id="path4025"
           d="m 294.16332,161.40421 31.25963,0.33978 -0.33978,4.16228 -31.34457,-0.0849 z"
           style="fill:#888d96;fill-opacity:1;stroke:none" />
        <path
           id="path4027"
           d="m 334.34215,165.2692 c 0,2.36913 -2.0917,4.2897 -4.67195,4.2897 -2.58025,0 -4.67196,-1.92057 -4.67196,-4.2897 0,-2.36914 2.09171,-4.28971 4.67196,-4.28971 2.58025,0 4.67195,1.92057 4.67195,4.28971 z"
           style="fill:#888d96;fill-opacity:1;stroke:none"
           transform="translate(-1.0193358,-1.3591144)"
           inkscape:connector-curvature="0" />
      </g>
    </g>
  </g>
  <path
     style="fill:#8f9396;fill-opacity:1"
     d="m 696.43971,190.52891 c -0.55423,-1.44429 -1.71119,-2.62597 -2.57104,-2.62597 -0.85983,0 -1.56334,1.18168 -1.56334,2.62597 0,1.44428 1.15696,2.62597 2.57104,2.62597 1.5661,0 2.17716,-1.02639 1.56334,-2.62597 z M 680.05077,180.025 c 0,-1.44428 -0.78779,-2.62597 -1.75065,-2.62597 -0.96286,0 -1.75066,1.18169 -1.75066,2.62597 0,1.44429 0.7878,2.62598 1.75066,2.62598 0.96286,0 1.75065,-1.18169 1.75065,-2.62598 z m 29.76106,0 c 0,-1.44428 -0.76306,-2.62597 -1.69571,-2.62597 -0.93262,0 -1.24225,1.18169 -0.68802,2.62597 0.55423,1.44429 1.31729,2.62598 1.69572,2.62598 0.37839,0 0.68801,-1.18169 0.68801,-2.62598 z m -46.64597,-0.14498 c 3.10813,-1.19264 1.84241,-5.98233 -1.5809,-5.98233 -2.93265,0 -4.84593,2.94046 -3.41733,5.25196 1.26373,2.04474 1.48788,2.07749 4.99823,0.73044 z m 29.77255,-6.85765 c -0.55424,-1.4443 -1.71119,-2.62599 -2.57104,-2.62599 -0.85984,0 -1.56335,1.18169 -1.56335,2.62599 0,1.44429 1.15698,2.62597 2.57104,2.62597 1.56612,0 2.17716,-1.02638 1.56335,-2.62597 z m -12.88764,-6.12728 c 0,-0.96286 -0.8343,-1.75065 -1.85398,-1.75065 -1.01968,0 -1.36707,0.78779 -0.77201,1.75065 0.59509,0.96285 1.42939,1.75064 1.85398,1.75064 0.4246,0 0.77201,-0.78779 0.77201,-1.75064 z m 22.75846,-9.62858 c 0,-1.44428 -0.78779,-2.62597 -1.75065,-2.62597 -0.96286,0 -1.75066,1.18169 -1.75066,2.62597 0,1.44428 0.7878,2.62597 1.75066,2.62597 0.96286,0 1.75065,-1.18169 1.75065,-2.62597 z m -28.01042,-6.89929 c 0,-1.84777 -3.35968,-2.62406 -4.35898,-1.0072 -0.60478,0.97856 0.12843,1.77921 1.62968,1.77921 1.50112,0 2.7293,-0.34741 2.7293,-0.77201 z"
     id="path3973"
     inkscape:connector-curvature="0"
     sodipodi:nodetypes="cssscsssssssssscsscccssscssssssssssssss" />
  <path
     style="fill:#708dbd;fill-opacity:1;stroke:none"
     d="m 950.01701,311.32298 0,-26.70503 -207.10598,0 -40.23357,14.50023 z"
     id="path3953"
     inkscape:connector-curvature="0"
     sodipodi:nodetypes="ccccc" />
  <path
     style="fill:#8eb7e3;fill-opacity:1;stroke:none"
     d="m 816.93816,299.4418 41.62288,-14.95026 7.61395,0.0849 -41.92399,15.12015 z"
     id="path3083"
     inkscape:connector-curvature="0"
     sodipodi:nodetypes="ccccc" />
  <path
     style="fill:#8eb7e3;fill-opacity:1;stroke:none"
     d="m 892.93816,299.61168 41.62288,-14.95026 7.61395,0.0849 -41.92399,15.12015 z"
     id="path3078"
     inkscape:connector-curvature="0"
     sodipodi:nodetypes="ccccc" />
  <g
     transform="matrix(1.6722419,0,0,1.6722419,239.74044,354.4503)"
     style="font-size:100px;font-style:normal;font-variant:normal;font-weight:bold;font-stretch:normal;line-height:125%;letter-spacing:0px;word-spacing:0px;fill:#000000;fill-opacity:1;stroke:none;font-family:Ubuntu;-inkscape-font-specification:Sans Bold"
     id="flowRoot3003">
    <g
       id="g3059">
      <path
         id="path3012"
         style="fill:#3659a9;fill-opacity:1;font-family:Horseshoes and Lemonade;-inkscape-font-specification:Horseshoes and Lemonade Bold"
         d="m 20.5625,-196.14583 4,72.6 -46.4,4.1 0.3,-79.8 42.1,3.1"
         inkscape:connector-curvature="0"
         sodipodi:nodetypes="ccccc" />
      <path
         sodipodi:nodetypes="ccccccccccccccccccccccccccscccccccccccccccccccccccccccccccccccccc"
         inkscape:connector-curvature="0"
         d="m 2.8625,-161.74583 c -1.2000276,-1.19996 -2.3666931,-2.53329 -3.5,-4 -1.0666909,-1.53329 -2.0000233,-3.03329 -2.8,-4.5 -0.8666883,-1.53329 -1.6000209,-3.09995 -2.2,-4.7 -0.5333531,-1.59995 -0.8000195,-3.13328 -0.8,-4.6 -1.95e-5,-1.59994 0.3333135,-2.89994 1,-3.9 0.6666455,-0.99994 1.9666442,-1.49994 3.9,-1.5 1.3333076,6e-5 2.4666398,0.33339 3.4,1 0.9333046,0.66673 1.8333037,1.66672 2.7,3 0.3333025,0.53339 0.6999688,1.06672 1.1,1.6 0.399968,0.46672 0.7999676,1.00005 1.2,1.6 0.199967,0.33339 0.3999668,0.90005 0.6,1.7 0.266633,0.73338 0.4666328,1.46672 0.6,2.2 l 2.9,0.2 0.9,-15 -4.4,-0.1 c -0.1333666,0.26673 -0.2000332,0.7334 -0.2,1.4 l 0,1.7 c -3.32e-5,0.46673 -0.2333663,0.70006 -0.7,0.7 -0.2000323,6e-5 -0.6000319,-0.13327 -1.2,-0.4 -0.5333641,-0.26661 -1.2000301,-0.56661 -2,-0.9 -0.7333619,-0.33327 -1.5000278,-0.63327 -2.3,-0.9 -0.8000262,-0.2666 -1.5000255,-0.39994 -2.1,-0.4 -2.1333561,6e-5 -3.8000211,0.40006 -5,1.2 -1.2000187,0.73339 -2.233351,1.66673 -3.1,2.8 -0.7333494,0.93339 -1.300016,1.90006 -1.7,2.9 -0.400015,0.93339 -0.700014,1.83339 -0.9,2.7 -0.200014,0.86672 -0.333347,1.63339 -0.4,2.3 -0.06668,0.66672 -0.100014,1.10005 -0.1,1.3 -1.4e-5,1.46672 0.03332,2.63338 0.1,3.5 0.133319,0.86671 0.299986,1.90004 0.5,3.1 0.266652,1.20004 0.533318,2.33337 0.8,3.4 0.266651,1.00004 0.666651,1.93337 1.2,2.8 0.3333167,0.6667 0.7999829,1.40004 1.4,2.2 0.6666483,0.73337 1.3666476,1.53337 2.1,2.4 0.7333128,0.8667 1.4999787,1.73336 2.3,2.6 0.7999771,0.80003 1.566643,1.60003 2.3,2.4 1.933307,2.06669 3.6999719,4.20002 5.3,6.4 0.8666361,1.33335 1.5333021,2.56669 2,3.7 0.4666345,1.13335 0.6999676,2.36668 0.7,3.7 -3.24e-5,0.26668 -0.033366,0.73335 -0.1,1.4 -0.066699,0.60001 -0.2666987,1.23334 -0.6,1.9 -0.3333647,0.66668 -0.8666975,1.26668 -1.6,1.8 -0.6666961,0.53334 -1.6666951,0.80001 -3,0.8 -1.9333585,1e-5 -3.5666902,-0.49999 -4.9,-1.5 -1.2666876,-1.06666 -2.3333532,-2.36666 -3.2,-3.9 -0.8666848,-1.59999 -1.5666841,-3.29998 -2.1,-5.1 -0.5333497,-1.86665 -0.966683,-3.59998 -1.3,-5.2 l -3,-0.2 -0.9,18.9 3.4,0.1 c 0.133318,-0.66666 0.266651,-1.19999 0.4,-1.6 0.199984,-0.39999 0.399984,-0.86666 0.6,-1.4 0.4666501,-0.26666 0.9999829,-0.39999 1.6,-0.4 0.3999819,0.0667 0.9333147,0.26667 1.6,0.6 0.6666467,0.26667 1.4333126,0.60001 2.3,1 0.8666442,0.33334 1.7666433,0.66667 2.7,1 0.9333081,0.26667 1.7999739,0.40001 2.6,0.4 1.8666379,1e-5 3.433303,-0.33333 4.7,-1 1.2666338,-0.66666 2.3666327,-1.56666 3.3,-2.7 1.199964,-1.46666 2.033296,-3.03332 2.5,-4.7 0.533295,-1.66665 0.799962,-3.46665 0.8,-5.4 -3.8e-5,-3.53331 -0.833371,-6.76664 -2.5,-9.7 -0.7333683,-1.3333 -1.7333673,-2.76664 -3,-4.3 -1.2666981,-1.5333 -2.5666968,-2.99996 -3.9,-4.4"
         style="fill:#81bbe1;fill-opacity:1;font-family:Horseshoes and Lemonade;-inkscape-font-specification:Horseshoes and Lemonade Bold"
         id="path3041" />
    </g>
    <g
       id="g3063"
       transform="translate(5.7662338,0.48051948)">
      <path
         id="path3014"
         style="fill:#3659a9;fill-opacity:1;font-family:Horseshoes and Lemonade;-inkscape-font-specification:Horseshoes and Lemonade Bold"
         d="m 32.15,-121.34583 2.7,-76.9 40.4,2.1 6,76.6 -49.1,-1.8"
         inkscape:connector-curvature="0"
         sodipodi:nodetypes="ccccc" />
      <path
         sodipodi:nodetypes="cccccccccccccccccccccccccccccccccccccccccccccc"
         inkscape:connector-curvature="0"
         d="m 68.55,-173.04583 0.7,-12.8 -28.2,-0.9 0,2.4 c 0.73332,0.0667 1.299986,0.26673 1.7,0.6 0.466652,0.26673 0.799985,0.60006 1,1 0.199985,0.40006 0.299985,0.80006 0.3,1.2 0.06665,0.33339 0.09999,0.63339 0.1,0.9 l 1.1,43.4 c 0.06665,1.13334 -0.166683,1.96668 -0.7,2.5 -0.466682,0.53334 -1.266681,0.90001 -2.4,1.1 l 0,3.3 26.5,-0.9 -1,-13.5 -2.8,0 c -3.6e-5,0.73335 -0.03337,1.40002 -0.1,2 -0.0667,0.53335 -0.233369,1.06668 -0.5,1.6 -0.533368,1.00002 -0.966701,1.73335 -1.3,2.2 -0.266701,0.46668 -0.6667,1.03335 -1.2,1.7 -1.000032,1.26668 -1.933364,2.13334 -2.8,2.6 -0.866696,0.40001 -1.966695,0.60001 -3.3,0.6 -1.133359,1e-5 -2.000025,-0.19999 -2.6,-0.6 -0.600024,-0.39999 -0.86669,-1.16666 -0.8,-2.3 l 0.8,-20.9 c 0.533308,0.13337 1.066641,0.30003 1.6,0.5 0.599974,0.20003 1.099973,0.4667 1.5,0.8 0.266639,0.13337 0.733305,0.60003 1.4,1.4 0.666637,0.73336 1.166637,1.33336 1.5,1.8 0.533303,0.73336 0.799969,1.60003 0.8,2.6 l 2.4,0 -0.5,-17 -2.4,0 c -0.0667,0.46671 -0.20003,0.96671 -0.4,1.5 -0.20003,0.53337 -0.40003,0.96671 -0.6,1.3 -0.733362,1.06671 -1.500028,2.06671 -2.3,3 -0.73336,0.8667 -1.700026,1.3667 -2.9,1.5 l 0.7,-19 c 0.06664,-1.46661 0.233308,-2.43328 0.5,-2.9 0.266641,-0.53327 1.06664,-0.79994 2.4,-0.8 1.399971,6e-5 2.633303,0.30006 3.7,0.9 1.066634,0.53339 1.966633,1.23339 2.7,2.1 0.333299,0.40006 0.666632,0.86672 1,1.4 0.399964,0.53339 0.799964,1.06672 1.2,1.6 0.199963,0.73339 0.333296,1.43338 0.4,2.1 0.133296,0.66672 0.266629,1.33338 0.4,2 l 2.4,0"
         style="fill:#81bbe1;fill-opacity:1;font-family:Horseshoes and Lemonade;-inkscape-font-specification:Horseshoes and Lemonade Bold"
         id="path3043" />
    </g>
    <g
       id="g3067"
       transform="translate(13.935065,-0.96103896)">
      <path
         id="path3016"
         style="fill:#3659a9;fill-opacity:1;font-family:Horseshoes and Lemonade;-inkscape-font-specification:Horseshoes and Lemonade Bold"
         d="m 86.8375,-117.54583 4.7,-76.6 38.4,-2.1 5,80.8 -48.1,-2.1"
         inkscape:connector-curvature="0"
         sodipodi:nodetypes="ccccc" />
      <path
         sodipodi:nodetypes="ccccsccccccccccccccccccc"
         inkscape:connector-curvature="0"
         d="m 121.9375,-145.84583 -2.3,0.5 c -0.20004,1.53335 -0.53337,3.03335 -1,4.5 -0.4667,1.40001 -1.03337,2.83335 -1.7,4.3 -0.80003,1.20001 -1.7667,2.10001 -2.9,2.7 -1.13336,0.60001 -2.30003,0.90001 -3.5,0.9 -0.73336,1e-5 -1.40003,-0.19999 -2,-0.6 -0.53336,-0.39999 -0.83336,-1.09999 -0.9,-2.1 l 2.3,-41.8 c -3e-5,-0.46661 0.0666,-0.96661 0.2,-1.5 0.13331,-0.59994 0.33331,-1.13328 0.6,-1.6 0.26664,-0.46661 0.63331,-0.86661 1.1,-1.2 0.46664,-0.33328 1.09997,-0.49994 1.9,-0.5 l 0.1,-2.4 -16.1,-1.2 0,2.4 c 1.333318,0.13339 2.16665,0.66672 2.5,1.6 0.39998,0.86672 0.59998,1.60006 0.6,2.2 l -0.7,44.5 c -2e-5,1.00001 -0.200017,1.83334 -0.6,2.5 -0.400016,0.60001 -1.233348,1.00001 -2.5,1.2 l 0,2.4 26.2,-1.4 -1.3,-15.4"
         style="fill:#81bbe1;fill-opacity:1;font-family:Horseshoes and Lemonade;-inkscape-font-specification:Horseshoes and Lemonade Bold"
         id="path3045" />
    </g>
    <g
       id="g3091">
      <path
         inkscape:connector-curvature="0"
         id="path3018"
         style="fill:#3659a9;fill-opacity:1;font-family:Horseshoes and Lemonade;-inkscape-font-specification:Horseshoes and Lemonade Bold"
         d="m -126.8919,86.255469 5.9,-79.8000002 40.599999,2 2.6,78.8000002 -49.099999,-1"
         sodipodi:nodetypes="ccccc" />
      <path
         sodipodi:nodetypes="cccccccccccccccccccccccccccccccccccccsccccc"
         inkscape:connector-curvature="0"
         d="m -88.554854,29.92245 c -0.270694,-1.981546 -0.736441,-3.667356 -1.397254,-5.057438 -0.660886,-1.389962 -1.615918,-2.470663 -2.865094,-3.242104 -1.258272,-0.837366 -2.876735,-1.356452 -4.855402,-1.557265 -1.912672,-0.209706 -4.289146,-0.120619 -7.129416,0.26725 -0.33028,0.04517 -1.11841,0.186465 -2.36439,0.423861 -1.18898,0.162454 -2.57159,0.384943 -4.14783,0.667447 -1.51023,0.273589 -3.11951,0.560697 -4.82786,0.861255 -1.7174,0.234626 -3.23211,0.475158 -4.54416,0.721577 l 0.32479,2.377923 c 0.66954,-0.02413 1.17396,-0.02571 1.51326,-0.0048 0.33928,0.02098 0.61702,0.08399 0.83324,0.18898 0.15015,0.114122 0.33187,0.459376 0.54518,1.035751 0.27934,0.567468 0.4506,1.08237 0.51376,1.544685 l 8.63431,44.743141 c 0.19229,0.915741 0.0979,1.702417 -0.28323,2.360038 -0.32417,0.582566 -1.24135,1.010622 -2.75153,1.284165 l 0.32478,2.377923 12.650839,-1.223233 -0.324781,-2.377923 c -1.074931,0.01225 -1.978728,-0.200735 -2.711408,-0.638955 -0.73273,-0.438204 -1.25084,-1.275795 -1.55434,-2.512773 l -2.45952,-23.180396 2.37792,-0.324781 c 1.84946,-0.252573 3.581837,-0.623751 5.197114,-1.113545 1.681274,-0.498737 3.209362,-1.380306 4.584275,-2.644697 0.492303,-0.336345 1.043132,-0.98351 1.652469,-1.941481 0.666302,-1.032969 1.244029,-2.222089 1.733189,-3.56736 0.555137,-1.354211 0.955652,-2.855551 1.201543,-4.504031 0.31187,-1.6574 0.355045,-3.311801 0.129546,-4.963186 m -9.538757,1.100964 c 0.288661,2.113761 0.359704,4.358123 0.21312,6.733096 -0.146643,2.375062 -0.649142,4.361335 -1.507488,5.958816 -0.486244,0.873879 -1.193181,1.609644 -2.120801,2.207303 -0.87064,0.522657 -2.06557,0.88772 -3.58477,1.095185 l -1.28804,0.175923 -2.66591,-19.518784 c -0.12633,-0.924691 -0.0364,-1.744397 0.26969,-2.459118 0.30609,-0.714604 1.08664,-1.157639 2.34168,-1.329115 1.58526,-0.216457 2.83431,-0.185198 3.74716,0.09378 0.9128,0.279103 1.68755,0.778856 2.32427,1.499259 0.804852,0.966695 1.336498,1.903366 1.594937,2.810013 0.324431,0.897734 0.549816,1.808956 0.676152,2.733645"
         style="fill:#81bbe1;fill-opacity:1;font-family:Horseshoes and Lemonade;-inkscape-font-specification:Horseshoes and Lemonade Bold"
         id="path3047" />
    </g>
    <g
       id="g3087">
      <path
         inkscape:connector-curvature="0"
         id="path3020"
         style="fill:#3659a9;fill-opacity:1;font-family:Horseshoes and Lemonade;-inkscape-font-specification:Horseshoes and Lemonade Bold"
         d="m -64.204401,87.255469 5.9,-80.8000002 40.6,2 2.6,76.8000002 -49.1,2"
         sodipodi:nodetypes="ccccc" />
      <path
         sodipodi:nodetypes="cccccccccccccccccccccssccccccccccccccccccccccc"
         inkscape:connector-curvature="0"
         d="m -23.604401,44.855469 c -5e-5,-2.46663 -0.0667,-4.83329 -0.2,-7.1 -0.13338,-2.33329 -0.56671,-4.89995 -1.3,-7.7 -0.53338,-2.26661 -1.16671,-4.09995 -1.9,-5.5 -0.73338,-1.39994 -1.76671,-2.69994 -3.1,-3.9 -2.93337,-2.79994 -6.00003,-4.19994 -9.2,-4.2 -1.80003,6e-5 -3.40003,0.36673 -4.8,1.1 -1.33336,0.7334 -2.53336,1.73339 -3.6,3 -1.06669,1.26673 -2.03335,2.80006 -2.9,4.6 -0.80002,1.73339 -1.60002,3.63338 -2.4,5.7 -0.26668,0.80005 -0.53335,1.86671 -0.8,3.2 -0.26668,1.26671 -0.53335,2.60004 -0.8,4 -0.20002,1.40004 -0.36668,2.70004 -0.5,3.9 -0.13335,1.20004 -0.20001,2.10004 -0.2,2.7 -1e-5,1.40003 -1e-5,2.93337 0,4.6 -1e-5,1.6667 0.0333,3.30003 0.1,4.9 0.0666,1.53336 0.16665,2.96669 0.3,4.3 0.13332,1.33335 0.29998,2.40002 0.5,3.2 0.46665,1.73335 1.13332,3.46668 2,5.2 0.93331,1.66668 1.99998,3.16668 3.2,4.5 1.26664,1.33334 2.63331,2.40001 4.1,3.2 1.46664,0.8 3.06664,1.2 4.8,1.2 2.9333,0 5.6333,-1.16666 8.1,-3.5 2.46663,-2.33332 4.36662,-5.56665 5.7,-9.7 1.26662,-3.79998 2.06662,-7.26664 2.4,-10.4 0.33329,-3.1333 0.49995,-5.56663 0.5,-7.3 m -8.7,-1.4 c -0.0667,3.60003 -0.23337,7.13336 -0.5,10.6 -0.2667,3.40002 -0.8667,6.90002 -1.8,10.5 -1.13337,4.26668 -2.83337,6.40001 -5.1,6.4 -1.20003,1e-5 -2.16669,-0.69999 -2.9,-2.1 -0.73336,-1.39999 -1.26669,-2.83332 -1.6,-4.3 -0.40003,-1.86665 -0.66669,-3.66665 -0.8,-5.4 -0.13336,-1.73331 -0.20002,-3.56664 -0.2,-5.5 -2e-5,-1.26664 -2e-5,-2.8333 0,-4.7 0.0666,-1.9333 0.13331,-3.96663 0.2,-6.1 0.13331,-2.13329 0.26664,-4.26663 0.4,-6.4 0.19997,-2.19995 0.43331,-4.23329 0.7,-6.1 0.46664,-3.39995 1.23331,-5.93328 2.3,-7.6 1.1333,-1.73327 2.39997,-2.59994 3.8,-2.6 0.79997,6e-5 1.46663,0.26673 2,0.8 0.59997,0.53339 1.09996,1.26672 1.5,2.2 0.39996,0.93339 0.7333,2.03339 1,3.3 0.3333,1.20005 0.59996,2.50005 0.8,3.9 0.3333,1.93338 0.4333,3.96671 0.3,6.1 -0.0667,2.06671 -0.10004,4.40004 -0.1,7"
         style="fill:#81bbe1;fill-opacity:1;font-family:Horseshoes and Lemonade;-inkscape-font-specification:Horseshoes and Lemonade Bold"
         id="path3049" />
    </g>
    <g
       id="g3083">
      <path
         inkscape:connector-curvature="0"
         id="path3022"
         style="fill:#3659a9;fill-opacity:1;font-family:Horseshoes and Lemonade;-inkscape-font-specification:Horseshoes and Lemonade Bold"
         d="m 4.983099,84.655469 5,-75.8000002 38.5,-1 4.1,80.4000002 -47.6,-3.6"
         sodipodi:nodetypes="ccccc" />
      <path
         sodipodi:nodetypes="ccccccccccccccccccc"
         inkscape:connector-curvature="0"
         d="m 34.483099,75.355469 0,-2.4 c -0.40004,-0.13333 -0.90003,-0.43333 -1.5,-0.9 -0.53337,-0.46666 -0.9667,-0.83332 -1.3,-1.1 -0.2667,-0.33332 -0.43337,-0.83332 -0.5,-1.5 -0.0667,-0.73332 -0.10003,-1.13332 -0.1,-1.2 l 2.3,-41.4 c 0.19997,-0.93328 0.56663,-1.63328 1.1,-2.1 0.59996,-0.46661 1.36663,-0.83328 2.3,-1.1 l 0,-2.4 -15.6,-1.3 0,2.4 c 1.26664,0.46672 2.09998,1.10006 2.5,1.9 0.46664,0.73339 0.66664,1.86672 0.6,3.4 l -0.9,41.9 c -0.26669,0.66668 -0.66669,1.26668 -1.2,1.8 -0.46669,0.53334 -1.43336,0.93334 -2.9,1.2 l 0,2.8 15.2,0"
         style="fill:#81bbe1;fill-opacity:1;font-family:Horseshoes and Lemonade;-inkscape-font-specification:Horseshoes and Lemonade Bold"
         id="path3051" />
    </g>
    <g
       id="g3079">
      <path
         inkscape:connector-curvature="0"
         id="path3024"
         style="fill:#3659a9;fill-opacity:1;font-family:Horseshoes and Lemonade;-inkscape-font-specification:Horseshoes and Lemonade Bold"
         d="m 75.170599,88.255469 4.7,-78.8000002 38.400001,4.1000002 5,71.6 -48.100001,3.1"
         sodipodi:nodetypes="ccccc" />
      <path
         sodipodi:nodetypes="cccccccccccccccccccccccc"
         inkscape:connector-curvature="0"
         d="m 114.8706,26.155469 -11.8,1 0,2.4 c 2.39996,0.26672 3.59996,1.30005 3.6,3.1 -4e-5,0.20005 -0.0334,0.53338 -0.1,1 -4e-5,0.40005 -0.0334,0.76671 -0.1,1.1 l -4.3,26.8 -8.1,-33 c -0.133361,-0.53328 -0.200021,-1.13328 -0.200001,-1.8 -2e-5,-0.73328 0.266641,-1.23328 0.800001,-1.5 0.53331,-0.33328 1.19997,-0.49994 2,-0.5 l 0,-2.4 -14.900001,2 0,2.4 c 0.66665,0.13339 1.26665,0.26672 1.8,0.4 0.53332,0.0667 0.96665,0.26672 1.3,0.6 0.26665,0.40005 0.49998,0.90005 0.7,1.5 0.19998,0.60005 0.36665,1.23338 0.5,1.9 l 11.000001,48.2 5.3,0 8.6,-45.6 c 0.26662,-1.39995 0.69996,-2.56662 1.3,-3.5 0.59996,-0.93328 1.46662,-1.49995 2.6,-1.7 l 0,-2.4"
         style="fill:#81bbe1;fill-opacity:1;font-family:Horseshoes and Lemonade;-inkscape-font-specification:Horseshoes and Lemonade Bold"
         id="path3053" />
    </g>
    <g
       id="g3071">
      <path
         inkscape:connector-curvature="0"
         id="path3026"
         style="fill:#3659a9;fill-opacity:1;font-family:Horseshoes and Lemonade;-inkscape-font-specification:Horseshoes and Lemonade Bold"
         d="m 188.8581,85.255469 -48.9,2.9 2.6,-79.6000002 40.4,2.0000002 5.9,74.7"
         sodipodi:nodetypes="ccccc" />
      <path
         sodipodi:nodetypes="cccccccccccccccccccccccccccccccccccccccccccccccccccsccccccccccccccccccc"
         inkscape:connector-curvature="0"
         d="m 179.3581,63.255469 c 0.0666,0.33335 0.0999,0.73335 0.1,1.2 -5e-5,0.40002 -5e-5,0.76668 0,1.1 -5e-5,0.73335 -0.10005,1.60002 -0.3,2.6 -0.13338,1.00001 -0.30004,1.86668 -0.5,2.6 -0.13338,0.33334 -0.36671,0.66668 -0.7,1 -0.26671,0.33334 -0.60004,0.50001 -1,0.5 -1.46671,10e-6 -2.20004,-1.86665 -2.2,-5.6 -4e-5,-0.99998 0.0333,-1.86665 0.1,-2.6 0.0666,-0.73331 0.13329,-1.46665 0.2,-2.2 0.0666,-0.73331 0.13329,-1.49998 0.2,-2.3 0.0666,-0.79998 0.1,-1.69998 0.1,-2.7 -4e-5,-0.99997 -0.10004,-2.03331 -0.3,-3.1 -0.20004,-1.1333 -0.60004,-2.16664 -1.2,-3.1 -0.86671,-1.1333 -1.90004,-2.09997 -3.1,-2.9 -1.20004,-0.79996 -2.8667,-1.46663 -5,-2 2.1333,-0.26663 3.86663,-0.79996 5.2,-1.6 1.39996,-0.86663 2.49996,-1.79996 3.3,-2.8 0.86663,-1.06662 1.49996,-2.16662 1.9,-3.3 0.39996,-1.13329 0.69996,-2.19995 0.9,-3.2 0.13329,-0.53329 0.23329,-1.19995 0.3,-2 0.13329,-0.86662 0.19996,-1.59995 0.2,-2.2 -4e-5,-1.39995 -0.26671,-2.76661 -0.8,-4.1 -0.53338,-1.33328 -1.60004,-2.46661 -3.2,-3.4 -1.13337,-0.66661 -2.3667,-1.13327 -3.7,-1.4 -1.33337,-0.26661 -3.2667,-0.39994 -5.8,-0.4 -1.4667,6e-5 -2.83336,0.0667 -4.1,0.2 -1.20002,0.13339 -2.43336,0.30006 -3.7,0.5 -1.20002,0.20006 -2.46669,0.43339 -3.8,0.7 -1.33335,0.26673 -2.83335,0.56673 -4.5,0.9 l 0,2.3 c 0.93332,0.13339 1.66665,0.33339 2.2,0.6 0.59998,0.20006 0.89998,0.56672 0.9,1.1 l 1.4,39.5 c -2e-5,0.60001 -0.20002,1.33335 -0.6,2.2 -0.40002,0.80001 -1.36668,1.30001 -2.9,1.5 l 0,2.3 13,0 0,-2.3 c -1.26669,-0.13332 -2.16669,-0.53332 -2.7,-1.2 -0.53336,-0.73332 -0.76669,-1.56665 -0.7,-2.5 l 0.8,-21.1 c 1.46664,4e-5 2.69997,0.1667 3.7,0.5 1.06664,0.2667 1.9333,0.83337 2.6,1.7 0.46663,0.80003 0.7333,1.60003 0.8,2.4 0.1333,0.73336 0.19997,1.50003 0.2,2.3 -3e-5,1.00003 -0.10003,1.90003 -0.3,2.7 -0.20003,0.73336 -0.30003,1.16669 -0.3,1.3 l -0.3,7.9 c -0.0667,1.86668 0.0333,3.33335 0.3,4.4 0.26663,1.00001 0.7333,2.10001 1.4,3.3 1.3333,2.60001 3.46663,3.90001 6.4,3.9 2.33329,1e-5 4.16662,-0.79999 5.5,-2.4 1.33329,-1.66666 1.99995,-4.43332 2,-8.3 -5e-5,-0.93332 -0.0667,-1.73332 -0.2,-2.4 l -1.8,-0.1 m -13.8,-19.6 c -0.40003,0.40004 -0.80003,0.7667 -1.2,1.1 -0.40003,0.2667 -1.0667,0.40004 -2,0.4 l -2.8,-0.3 1,-17 c 0.0666,-0.99994 0.29997,-1.76661 0.7,-2.3 0.39997,-0.53328 1.1333,-0.79994 2.2,-0.8 1.1333,6e-5 1.99997,0.20006 2.6,0.6 0.59997,0.40006 1.16663,1.03339 1.7,1.9 0.39997,0.73339 0.69997,1.50005 0.9,2.3 0.26663,0.73339 0.39996,1.60005 0.4,2.6 -4e-5,0.80005 -0.0667,1.73338 -0.2,2.8 -0.13337,1.06671 -0.33337,2.16671 -0.6,3.3 -0.2667,1.06671 -0.63337,2.10004 -1.1,3.1 -0.40003,0.93337 -0.93337,1.70004 -1.6,2.3"
         style="fill:#81bbe1;fill-opacity:1;font-family:Horseshoes and Lemonade;-inkscape-font-specification:Horseshoes and Lemonade Bold"
         id="path3055" />
    </g>
    <g
       id="g3075">
      <path
         inkscape:connector-curvature="0"
         id="path3028"
         style="fill:#3659a9;fill-opacity:1;font-family:Horseshoes and Lemonade;-inkscape-font-specification:Horseshoes and Lemonade Bold"
         d="m 208.5456,85.355469 2.7,-76.9000002 40.4,2.1000002 6,76.6 -49.1,-1.8"
         sodipodi:nodetypes="ccccc" />
      <path
         sodipodi:nodetypes="cccccccccccccccccccccccccccccccccccccccccccccc"
         inkscape:connector-curvature="0"
         d="m 244.9456,33.655469 0.7,-12.8 -28.2,-0.9 0,2.4 c 0.73332,0.0667 1.29998,0.26673 1.7,0.6 0.46665,0.26673 0.79998,0.60006 1,1 0.19998,0.40006 0.29998,0.80006 0.3,1.2 0.0666,0.33339 0.1,0.63339 0.1,0.9 l 1.1,43.4 c 0.0666,1.13334 -0.16669,1.96668 -0.7,2.5 -0.46668,0.53334 -1.26668,0.90001 -2.4,1.1 l 0,3.3 26.5,-0.9 -1,-13.5 -2.8,0 c -4e-5,0.73335 -0.0334,1.40002 -0.1,2 -0.0667,0.53335 -0.23337,1.06668 -0.5,1.6 -0.53337,1.00002 -0.9667,1.73335 -1.3,2.2 -0.2667,0.46668 -0.6667,1.03335 -1.2,1.7 -1.00003,1.26668 -1.93337,2.13334 -2.8,2.6 -0.8667,0.40001 -1.9667,0.60001 -3.3,0.6 -1.13336,1e-5 -2.00003,-0.19999 -2.6,-0.6 -0.60003,-0.39999 -0.86669,-1.16666 -0.8,-2.3 l 0.8,-20.9 c 0.53331,0.13337 1.06664,0.30003 1.6,0.5 0.59997,0.20003 1.09997,0.4667 1.5,0.8 0.26664,0.13337 0.7333,0.60003 1.4,1.4 0.66663,0.73336 1.16663,1.33336 1.5,1.8 0.5333,0.73336 0.79997,1.60003 0.8,2.6 l 2.4,0 -0.5,-17 -2.4,0 c -0.0667,0.46671 -0.20003,0.96671 -0.4,1.5 -0.20003,0.53337 -0.40003,0.96671 -0.6,1.3 -0.73336,1.06671 -1.50003,2.06671 -2.3,3 -0.73336,0.8667 -1.70003,1.3667 -2.9,1.5 l 0.7,-19 c 0.0666,-1.46661 0.23331,-2.43328 0.5,-2.9 0.26664,-0.53327 1.06664,-0.79994 2.4,-0.8 1.39997,6e-5 2.6333,0.30006 3.7,0.9 1.06663,0.53339 1.96663,1.23339 2.7,2.1 0.3333,0.40006 0.66663,0.86672 1,1.4 0.39996,0.53339 0.79996,1.06672 1.2,1.6 0.19996,0.73339 0.33329,1.43338 0.4,2.1 0.13329,0.66672 0.26663,1.33338 0.4,2 l 2.4,0"
         style="fill:#81bbe1;fill-opacity:1;font-family:Horseshoes and Lemonade;-inkscape-font-specification:Horseshoes and Lemonade Bold"
         id="path3057" />
    </g>
    <g
       transform="translate(-131.78246,-198.21428)"
       style="font-size:50px;fill:#000000;font-family:Ubuntu;-inkscape-font-specification:Sans Bold"
       id="flowRoot3122">
      <g
         id="g3137"
         transform="translate(1.9220779,4.2045455)">
        <path
           sodipodi:nodetypes="ccccc"
           inkscape:connector-curvature="0"
           id="path3133"
           style="fill:#3659a9;fill-opacity:1;font-family:Horseshoes and Lemonade;-inkscape-font-specification:Horseshoes and Lemonade Bold"
           d="m 218.36323,165.39023 -22.71948,1.89935 1.7,-39.66039 19.5474,-0.18182 1.47208,37.94286" />
        <path
           sodipodi:nodetypes="cccccccccccccccccccccccccscccccccccccccccccccc"
           inkscape:connector-curvature="0"
           d="m 212.09375,153.38958 c -2e-5,1e-5 -2e-5,0.15001 0,0.45 -2e-5,0.26668 -0.0334,0.60001 -0.1,1 -0.0334,0.36668 -0.10002,0.76668 -0.2,1.2 -0.0667,0.40001 -0.18335,0.76668 -0.35,1.1 -0.36668,0.70001 -0.83335,1.16668 -1.4,1.4 -0.53335,0.23334 -1.08335,0.35001 -1.65,0.35 -0.56668,1e-5 -1.13335,-0.11666 -1.7,-0.35 -0.53335,-0.23332 -0.95001,-0.69999 -1.25,-1.4 -0.10001,-0.26666 -0.18335,-0.58332 -0.25,-0.95 -0.0667,-0.36666 -0.11668,-0.73332 -0.15,-1.1 -0.0333,-0.36665 -0.05,-0.69999 -0.05,-1 -1e-5,-0.29999 -1e-5,-0.51665 0,-0.65 l 0,-18.75 c -1e-5,-0.2333 0.0167,-0.46663 0.05,-0.7 0.0333,-0.26663 0.13332,-0.49997 0.3,-0.7 0.23332,-0.2333 0.46665,-0.4333 0.7,-0.6 0.23332,-0.19997 0.43332,-0.29997 0.6,-0.3 l 0,-1.2 -7.9,0.9 0,1.2 c 0.1,-0.0333 0.21666,-0.0666 0.35,-0.1 0.13333,-0.0666 0.26666,-0.1333 0.4,-0.2 0.43333,0.1667 0.69999,0.43337 0.8,0.8 0.1,0.33337 0.14999,0.63337 0.15,0.9 l 0,18.95 c -1e-5,2.30001 0.48333,4.01668 1.45,5.15 0.96666,1.13334 2.64999,1.70001 5.05,1.7 0.89999,1e-5 1.81665,-0.11666 2.75,-0.35 0.96665,-0.23333 1.78332,-0.73333 2.45,-1.5 0.36665,-0.46666 0.64998,-0.99999 0.85,-1.6 0.19998,-0.59999 0.34998,-1.16666 0.45,-1.7 0.1,-0.56665 0.14998,-1.04999 0.15,-1.45 0.0333,-0.39999 0.05,-0.64999 0.05,-0.75 l 0.45,-15.35 c -2e-5,-0.39997 0.0333,-0.8333 0.1,-1.3 0.0667,-0.49997 0.18331,-0.84997 0.35,-1.05 0.16665,-0.0666 0.39998,-0.1333 0.7,-0.2 0.29998,-0.1 0.58331,-0.14997 0.85,-0.15 l 0,-1.2 -5.6,-0.9 0,1.2 c 0.53332,0.10003 1.06665,0.5167 1.6,1.25 0.23331,0.3667 0.36665,0.75003 0.4,1.15 0.0333,0.3667 0.05,0.7667 0.05,1.2 l -0.45,15.6"
           style="fill:#81bbe1;fill-opacity:1;font-family:Horseshoes and Lemonade;-inkscape-font-specification:Horseshoes and Lemonade Bold"
           id="path3135" />
      </g>
      <g
         id="g3143">
        <path
           sodipodi:nodetypes="ccccc"
           inkscape:connector-curvature="0"
           id="path3131"
           style="fill:#3659a9;fill-opacity:1;font-family:Horseshoes and Lemonade;-inkscape-font-specification:Horseshoes and Lemonade Bold"
           d="m 169.95,125.48958 21.39091,0.95 0.0993,38.76039 -23.33117,0.95 1.84091,-40.66039" />
        <path
           sodipodi:nodetypes="cccccsccccccccccccccccccscccccccccccccccccccccccccccccccccc"
           inkscape:connector-curvature="0"
           d="m 179.9,134.23958 c 0.43332,3e-5 0.79999,0.1667 1.1,0.5 0.33332,0.30003 0.59998,0.70003 0.8,1.2 0.23332,0.4667 0.39998,1.00003 0.5,1.6 0.13332,0.60003 0.23332,1.1667 0.3,1.7 0.0333,0.46669 0.0667,0.98336 0.1,1.55 0.0333,0.56669 0.05,1.15003 0.05,1.75 0.0333,0.60002 0.05,1.18336 0.05,1.75 -2e-5,0.53336 -2e-5,0.98336 0,1.35 -2e-5,0.53335 -0.0167,1.20002 -0.05,2 -2e-5,0.76669 -0.05,1.61668 -0.15,2.55 -0.0667,0.90002 -0.18335,1.86668 -0.35,2.9 -0.13335,1.03335 -0.33335,2.06668 -0.6,3.1 -0.0667,0.30001 -0.16668,0.60001 -0.3,0.9 -0.10002,0.30001 -0.25001,0.58334 -0.45,0.85 -0.16668,0.23334 -0.38335,0.43334 -0.65,0.6 -0.23335,0.16668 -0.51668,0.25001 -0.85,0.25 -0.60001,1e-5 -1.08335,-0.24999 -1.45,-0.75 -0.36668,-0.49999 -0.63334,-1.11666 -0.8,-1.85 -0.10001,-0.49999 -0.16668,-0.98332 -0.2,-1.45 -0.0333,-0.49999 -0.05,-0.83332 -0.05,-1 -1e-5,-0.16665 -1e-5,-0.54999 0,-1.15 0.0333,-0.63332 0.05,-1.34998 0.05,-2.15 -10e-6,-0.79998 -10e-6,-1.63331 0,-2.5 0.0333,-0.86665 0.05,-1.63331 0.05,-2.3 -1e-5,-1.06664 -1e-5,-2.14998 0,-3.25 0.0333,-1.09997 0.1,-2.14997 0.2,-3.15 0.16666,-1.49997 0.46666,-2.69997 0.9,-3.6 0.43332,-0.9333 1.03332,-1.39997 1.8,-1.4 m 8.5,10.8 c -2e-5,-0.99998 -0.0667,-2.03331 -0.2,-3.1 -0.13336,-1.09997 -0.38335,-2.23331 -0.75,-3.4 -0.10002,-0.3333 -0.25002,-0.76664 -0.45,-1.3 -0.16669,-0.5333 -0.38335,-1.0833 -0.65,-1.65 -0.23335,-0.56663 -0.50002,-1.11663 -0.8,-1.65 -0.26669,-0.5333 -0.56669,-0.9833 -0.9,-1.35 -0.53335,-0.56663 -1.15002,-1.04996 -1.85,-1.45 -0.66668,-0.39996 -1.46668,-0.59996 -2.4,-0.6 -0.73335,4e-5 -1.46668,0.15004 -2.2,0.45 -0.70001,0.30004 -1.38334,0.83337 -2.05,1.6 -0.30001,0.3667 -0.60001,0.80003 -0.9,1.3 -0.26668,0.50003 -0.51668,1.03337 -0.75,1.6 -0.23334,0.53336 -0.45001,1.08336 -0.65,1.65 -0.20001,0.53336 -0.36667,1.0167 -0.5,1.45 -0.36667,1.10003 -0.61667,2.18336 -0.75,3.25 -0.13334,1.03336 -0.20001,2.10002 -0.2,3.2 -1e-5,0.63335 -1e-5,1.36669 0,2.2 0.0333,0.83335 0.0667,1.66669 0.1,2.5 0.0333,0.80002 0.0833,1.55002 0.15,2.25 0.1,0.70001 0.19999,1.21668 0.3,1.55 0.29999,0.93335 0.63333,1.78335 1,2.55 0.36666,0.76668 0.83332,1.48334 1.4,2.15 1.36666,1.56667 2.88332,2.35001 4.55,2.35 0.39999,10e-6 0.78332,-0.05 1.15,-0.15 0.36665,-0.1 0.73332,-0.23333 1.1,-0.4 0.99998,-0.46666 1.89998,-1.23332 2.7,-2.3 0.83331,-1.09999 1.53331,-2.49999 2.1,-4.2 0.49998,-1.56665 0.86665,-3.03332 1.1,-4.4 0.23331,-1.36665 0.34998,-2.73331 0.35,-4.1"
           style="fill:#81bbe1;fill-opacity:1;font-family:Horseshoes and Lemonade;-inkscape-font-specification:Horseshoes and Lemonade Bold"
           id="path3141" />
      </g>
    </g>
  </g>
  <path
     style="fill:#f4ecdc;fill-opacity:1;stroke:none"
     d="m 492.05426,247.40137 49.43269,0.2841 3.69326,99.43362 -57.60681,-1.42048 z"
     id="path3149"
     inkscape:connector-curvature="0"
     sodipodi:nodetypes="ccccc" />
  <path
     style="fill:#d91c1c;fill-opacity:1;stroke:none"
     d="m 506.25907,250.52644 15.05708,6.5342 1.70458,51.98957 13.9207,5.68192 -22.72768,25.85273 -20.73901,-26.98912 11.64794,-2.55685 z"
     id="path3919"
     inkscape:connector-curvature="0"
     sodipodi:nodetypes="cccccccc" />
  <path
     style="fill:#d91c1c;fill-opacity:1;stroke:none"
     d="m 581.84967,354.39059 -1.80798,-8.23633 90.39879,-59.46231 1.40621,7.23189 z"
     id="path3921"
     inkscape:connector-curvature="0"
     sodipodi:nodetypes="ccccc" />
  <path
     sodipodi:nodetypes="ccccc"
     inkscape:connector-curvature="0"
     id="path3079"
     d="m 854.93816,299.56193 41.62288,-14.95026 7.61395,0.0849 -41.92399,15.12015 z"
     style="fill:#8eb7e3;fill-opacity:1;stroke:none" />
  <path
     style="fill:#8eb7e3;fill-opacity:1;stroke:none"
     d="m 776.93816,299.56193 41.62288,-14.95026 7.61395,0.0849 -41.92399,15.12015 z"
     id="path3087"
     inkscape:connector-curvature="0"
     sodipodi:nodetypes="ccccc" />
  <path
     sodipodi:nodetypes="ccccc"
     inkscape:connector-curvature="0"
     id="path3089"
     d="m 740.93816,299.4418 41.62288,-14.95026 7.61395,0.0849 -41.92399,15.12015 z"
     style="fill:#8eb7e3;fill-opacity:1;stroke:none" />
  <path
     sodipodi:nodetypes="ccccc"
     inkscape:connector-curvature="0"
     id="path3085"
     d="m 706.93816,299.61168 41.62288,-14.95026 7.61395,0.0849 -41.92399,15.12015 z"
     style="fill:#8eb7e3;fill-opacity:1;stroke:none" />
  <path
     style="fill:#355096;fill-opacity:1;stroke:none"
     d="m 950.17647,300.27551 -241.77578,-2.00887 c -21.37968,-0.22749 -23.74278,34.46788 0,35.03742 142.99551,0 240.97223,1.1221 240.97223,1.1221"
     id="path3923"
     inkscape:connector-curvature="0"
     sodipodi:nodetypes="cccc" />
  <path
     style="fill:#9dadc9;fill-opacity:1;stroke:none"
     d="m 934.63128,321.34296 c 0,4.19712 -3.37064,7.59957 -7.52855,7.59957 -4.1579,0 -7.52854,-3.40245 -7.52854,-7.59957 0,-4.19713 3.37064,-7.59957 7.52854,-7.59957 4.15791,0 7.52855,3.40244 7.52855,7.59957 z"
     id="path3925"
     inkscape:connector-curvature="0" />
  <path
     inkscape:connector-curvature="0"
     id="path3928"
     d="m 901.82381,308.94623 c 0,3.56359 -2.86187,6.45246 -6.39218,6.45246 -3.53028,0 -6.39214,-2.88887 -6.39214,-6.45246 0,-3.5636 2.86186,-6.45247 6.39214,-6.45247 3.53031,0 6.39218,2.88887 6.39218,6.45247 z"
     style="fill:#9dadc9;fill-opacity:1;stroke:none" />
  <path
     style="fill:#9dadc9;fill-opacity:1;stroke:none"
     d="m 876.57517,320.94118 c 0,4.19713 -3.37064,7.59957 -7.52855,7.59957 -4.1579,0 -7.52854,-3.40244 -7.52854,-7.59957 0,-4.19712 3.37064,-7.59957 7.52854,-7.59957 4.15791,0 7.52855,3.40245 7.52855,7.59957 z"
     id="path3930"
     inkscape:connector-curvature="0" />
  <path
     inkscape:connector-curvature="0"
     id="path3932"
     d="m 844.63426,310.20762 c 0,3.80117 -3.05266,6.88263 -6.81832,6.88263 -3.76563,0 -6.81828,-3.08146 -6.81828,-6.88263 0,-3.80118 3.05265,-6.88263 6.81828,-6.88263 3.76566,0 6.81832,3.08145 6.81832,6.88263 z"
     style="fill:#9dadc9;fill-opacity:1;stroke:none" />
  <path
     style="fill:#9dadc9;fill-opacity:1;stroke:none"
     d="m 817.11285,320.7403 c 0,4.19712 -3.37063,7.59957 -7.52855,7.59957 -4.15789,0 -7.52853,-3.40245 -7.52853,-7.59957 0,-4.19713 3.37064,-7.59957 7.52853,-7.59957 4.15792,0 7.52855,3.40244 7.52855,7.59957 z"
     id="path3945"
     inkscape:connector-curvature="0" />
  <path
     inkscape:connector-curvature="0"
     id="path3947"
     d="m 784.27091,310.35101 c 0,3.72198 -2.98905,6.73924 -6.67626,6.73924 -3.68719,0 -6.67624,-3.01726 -6.67624,-6.73924 0,-3.72199 2.98905,-6.73925 6.67624,-6.73925 3.68721,0 6.67626,3.01726 6.67626,6.73925 z"
     style="fill:#9dadc9;fill-opacity:1;stroke:none" />
  <path
     style="fill:#9dadc9;fill-opacity:1;stroke:none"
     d="m 757.44965,320.94118 c 0,4.19713 -3.37064,7.59957 -7.52855,7.59957 -4.15789,0 -7.52853,-3.40244 -7.52853,-7.59957 0,-4.19712 3.37064,-7.59957 7.52853,-7.59957 4.15791,0 7.52855,3.40245 7.52855,7.59957 z"
     id="path3949"
     inkscape:connector-curvature="0" />
  <path
     inkscape:connector-curvature="0"
     id="path3951"
     d="m 725.94216,316.41535 c 0,7.24814 -5.82086,13.12393 -13.0013,13.12393 -7.18041,0 -13.00126,-5.87579 -13.00126,-13.12393 0,-7.24815 5.82085,-13.12394 13.00126,-13.12394 7.18044,0 13.0013,5.87579 13.0013,13.12394 z"
     style="fill:#9dadc9;fill-opacity:1;stroke:none" />
  <g
     id="g4018"
     transform="matrix(1.6722419,0,0,1.6722419,0.28409657,-23.21575)">
    <path
       style="fill:#e69f16;fill-opacity:1"
       d="m 393.03412,164.35305 c 13.83843,-2.13735 17.68027,-4.14015 19.39224,-10.10944 3.62438,-12.63748 -14.26374,-29.85981 -33.3863,-32.14368 -18.10936,-2.16286 -34.09071,3.43281 -40.7005,14.25078 -2.46188,4.02924 -2.99689,8.84622 -1.43705,12.93849 2.18418,5.73018 12.33892,12.86455 21.46234,15.07867 7.2563,1.76099 23.21586,1.75417 34.66927,-0.0149 z m -36.46661,-26.42424 c -1.53385,-1.53385 -0.65085,-4.53651 1.33406,-4.53651 2.46666,0 3.42793,1.33496 2.5704,3.56964 -0.65592,1.7093 -2.66462,2.20672 -3.90446,0.96687 z m -7.84748,-2.07392 c 0.20285,-1.0533 1.23062,-2.08108 2.28393,-2.28392 1.38302,-0.26635 1.81263,0.16326 1.54628,1.54629 -0.20284,1.0533 -1.23062,2.08107 -2.28392,2.28392 -1.38303,0.26635 -1.81264,-0.16326 -1.54629,-1.54629 z"
       id="path3975"
       inkscape:connector-curvature="0"
       sodipodi:nodetypes="csssssccsssssssss" />
    <g
       transform="matrix(1.9058224,0,0,1.9058224,-301.48572,-202.4155)"
       id="g3873">
      <path
         inkscape:connector-curvature="0"
         id="path3817"
         d="m 352.12279,178.06067 c 0.33582,0.47041 0.16432,1.16852 -0.38306,1.55929 -0.54738,0.39078 -1.26335,0.32622 -1.59917,-0.14419 -0.33582,-0.4704 -0.16431,-1.16852 0.38307,-1.55929 0.54738,-0.39077 1.26334,-0.32621 1.59916,0.14419 z"
         style="fill:#ebbe65;fill-opacity:1;stroke:none" />
      <path
         inkscape:connector-curvature="0"
         id="path3819"
         d="m 349.29677,179.43808 c 0.28088,0.38957 0.13744,0.96772 -0.32038,1.29135 -0.45782,0.32362 -1.05665,0.27015 -1.33752,-0.11942 -0.28088,-0.38957 -0.13743,-0.96772 0.32039,-1.29135 0.45782,-0.32362 1.05664,-0.27016 1.33751,0.11942 z"
         style="fill:#ebbe65;fill-opacity:1;stroke:none" />
      <path
         inkscape:connector-curvature="0"
         id="path3821"
         d="m 351.53662,180.84762 c 0.13678,0.46038 -0.1892,0.95895 -0.7281,1.11361 -0.53889,0.15465 -1.08664,-0.0932 -1.22343,-0.55357 -0.13678,-0.46037 0.1892,-0.95895 0.7281,-1.11361 0.5389,-0.15465 1.08664,0.0932 1.22343,0.55357 z"
         style="fill:#ebbe65;fill-opacity:1;stroke:none" />
    </g>
    <path
       sodipodi:nodetypes="ccssssc"
       inkscape:connector-curvature="0"
       id="path3851"
       d="m 345.947,150.67053 c 0.99006,-0.41484 0.71984,-9.4868 -4.62321,-4.29646 -4.43902,7.31132 4.23261,11.14412 11.82581,8.56031 4.38721,-1.49288 9.76139,0.13383 11.9791,0.11047 8.4623,-0.0891 30.83367,-3.91681 33.05472,-12.42069 2.75311,-10.54101 -6.58745,-10.08526 -6.59678,-4.83892 -0.0131,7.37637 4.15079,2.81417 3.86104,2.30689"
       style="fill:none;stroke:#ebbe65;stroke-width:1.6795764;stroke-linecap:round;stroke-linejoin:round;stroke-miterlimit:4;stroke-opacity:1;stroke-dasharray:none" />
  </g>
  <g
     id="g4026"
     transform="matrix(1.6722419,0,0,1.6722419,172.91593,8.3939648)">
    <path
       sodipodi:nodetypes="csssssccsssssssss"
       inkscape:connector-curvature="0"
       id="path4028"
       d="m 393.03412,164.35305 c 13.83843,-2.13735 17.68027,-4.14015 19.39224,-10.10944 3.62438,-12.63748 -14.26374,-29.85981 -33.3863,-32.14368 -18.10936,-2.16286 -34.09071,3.43281 -40.7005,14.25078 -2.46188,4.02924 -2.99689,8.84622 -1.43705,12.93849 2.18418,5.73018 12.33892,12.86455 21.46234,15.07867 7.2563,1.76099 23.21586,1.75417 34.66927,-0.0149 z m -36.46661,-26.42424 c -1.53385,-1.53385 -0.65085,-4.53651 1.33406,-4.53651 2.46666,0 3.42793,1.33496 2.5704,3.56964 -0.65592,1.7093 -2.66462,2.20672 -3.90446,0.96687 z m -7.84748,-2.07392 c 0.20285,-1.0533 1.23062,-2.08108 2.28393,-2.28392 1.38302,-0.26635 1.81263,0.16326 1.54628,1.54629 -0.20284,1.0533 -1.23062,2.08107 -2.28392,2.28392 -1.38303,0.26635 -1.81264,-0.16326 -1.54629,-1.54629 z"
       style="fill:#e69f16;fill-opacity:1" />
    <g
       id="g4030"
       transform="matrix(1.9058224,0,0,1.9058224,-301.48572,-202.4155)">
      <path
         style="fill:#ebbe65;fill-opacity:1;stroke:none"
         d="m 352.12279,178.06067 c 0.33582,0.47041 0.16432,1.16852 -0.38306,1.55929 -0.54738,0.39078 -1.26335,0.32622 -1.59917,-0.14419 -0.33582,-0.4704 -0.16431,-1.16852 0.38307,-1.55929 0.54738,-0.39077 1.26334,-0.32621 1.59916,0.14419 z"
         id="path4032"
         inkscape:connector-curvature="0" />
      <path
         style="fill:#ebbe65;fill-opacity:1;stroke:none"
         d="m 349.29677,179.43808 c 0.28088,0.38957 0.13744,0.96772 -0.32038,1.29135 -0.45782,0.32362 -1.05665,0.27015 -1.33752,-0.11942 -0.28088,-0.38957 -0.13743,-0.96772 0.32039,-1.29135 0.45782,-0.32362 1.05664,-0.27016 1.33751,0.11942 z"
         id="path4034"
         inkscape:connector-curvature="0" />
      <path
         style="fill:#ebbe65;fill-opacity:1;stroke:none"
         d="m 351.53662,180.84762 c 0.13678,0.46038 -0.1892,0.95895 -0.7281,1.11361 -0.53889,0.15465 -1.08664,-0.0932 -1.22343,-0.55357 -0.13678,-0.46037 0.1892,-0.95895 0.7281,-1.11361 0.5389,-0.15465 1.08664,0.0932 1.22343,0.55357 z"
         id="path4036"
         inkscape:connector-curvature="0" />
    </g>
    <path
       style="fill:none;stroke:#ebbe65;stroke-width:1.6795764;stroke-linecap:round;stroke-linejoin:round;stroke-miterlimit:4;stroke-opacity:1;stroke-dasharray:none"
       d="m 345.947,150.67053 c 0.99006,-0.41484 0.71984,-9.4868 -4.62321,-4.29646 -4.43902,7.31132 4.23261,11.14412 11.82581,8.56031 4.38721,-1.49288 9.76139,0.13383 11.9791,0.11047 8.4623,-0.0891 30.83367,-3.91681 33.05472,-12.42069 2.75311,-10.54101 -6.58745,-10.08526 -6.59678,-4.83892 -0.0131,7.37637 4.15079,2.81417 3.86104,2.30689"
       id="path4038"
       inkscape:connector-curvature="0"
       sodipodi:nodetypes="ccssssc" />
  </g>
  <path
     style="fill:#90b2ca;fill-opacity:1;stroke:none"
     d="m 807.44487,155.91502 -4.4195,10.64696 25.11078,42.98965 -15.87001,13.2585 -41.98522,3.61594 -19.28507,-13.66026 19.68684,-43.99407 -8.03544,-7.03101 z"
     id="path4040"
     inkscape:connector-curvature="0" />
  <path
     style="fill:#b5ccde;fill-opacity:1;stroke:none"
     d="m 790.77131,168.77174 14.86558,44.59673 -49.01623,4.21862 -4.82126,-4.41951 c 0,0 17.67797,-42.38698 18.48152,-42.38698 0.80354,0 20.49039,-2.00886 20.49039,-2.00886 z"
     id="path4042"
     inkscape:connector-curvature="0" />
  <path
     style="fill:#c12923;fill-opacity:1;stroke:none"
     d="m 762.01848,168.50381 c 0.7031,0 51.62777,-10.54653 51.62777,-10.54653 -6.11171,-24.42504 -54.25222,-28.09864 -51.62777,10.54653 z"
     id="path4054"
     inkscape:connector-curvature="0"
     sodipodi:nodetypes="ccc" />
  <path
     transform="matrix(1.6300773,-0.37315023,0.37315023,1.6300773,-21.014747,153.45475)"
     style="fill:#2e3436;fill-opacity:1;stroke:none"
     d="m 468.57592,102.70747 c 0,0.82099 -1.09339,1.48654 -2.44216,1.48654 -1.34877,0 -2.44216,-0.66555 -2.44216,-1.48654 0,-0.82098 1.09339,-1.48653 2.44216,-1.48653 1.34877,0 2.44216,0.66555 2.44216,1.48653 z"
     id="path4058" />
  <path
     transform="matrix(1.1800086,-0.14569169,0.14569169,1.1800086,220.29262,95.731861)"
     style="fill:#2e3436;fill-opacity:1;stroke:none"
     d="m 468.57592,102.70747 c 0,0.82099 -1.09339,1.48654 -2.44216,1.48654 -1.34877,0 -2.44216,-0.66555 -2.44216,-1.48654 0,-0.82098 1.09339,-1.48653 2.44216,-1.48653 1.34877,0 2.44216,0.66555 2.44216,1.48653 z"
     id="path3060" />
  <path
     transform="matrix(1.1795842,-0.27002531,0.27002531,1.1795842,211.94053,148.77856)"
     style="fill:#2e3436;fill-opacity:1;stroke:none"
     d="m 468.57592,102.70747 c 0,0.82099 -1.09339,1.48654 -2.44216,1.48654 -1.34877,0 -2.44216,-0.66555 -2.44216,-1.48654 0,-0.82098 1.09339,-1.48653 2.44216,-1.48653 1.34877,0 2.44216,0.66555 2.44216,1.48653 z"
     id="path3062" />
  <path
     sodipodi:nodetypes="cssscssssscsscccssscssssssssss"
     inkscape:connector-curvature="0"
     id="path3064"
     d="m 820.20598,150.22477 c -0.75512,-2.19761 -2.23853,-2.07355 -3.6508,-2.04843 -0.8597,0.0151 -2.09067,1.08123 -2.09067,2.52553 0,1.44429 1.68428,2.72639 3.09836,2.72639 1.5661,0 3.25693,-1.60393 2.64311,-3.20349 z m 12.74909,-34.87427 c 0,-1.44428 -0.76306,-2.62597 -1.6957,-2.62597 -0.93263,0 -1.24226,1.18169 -0.68803,2.62597 0.55423,1.44429 1.31729,2.62598 1.69572,2.62598 0.3784,0 0.68801,-1.18169 0.68801,-2.62598 z m -45.64153,9.08493 c 3.10812,-1.19265 1.8424,-5.98233 -1.58091,-5.98233 -2.93264,0 -4.84592,2.94045 -3.41733,5.25196 1.26373,2.04473 1.48788,2.07749 4.99824,0.73043 z m 23.08357,-0.16868 c -0.55423,-1.4443 -1.71119,-2.62599 -2.57104,-2.62599 -0.85983,0 -1.56334,1.18169 -1.56334,2.62599 0,1.44428 1.15697,2.62597 2.57104,2.62597 1.56612,0 2.17716,-1.02639 1.56334,-2.62597 z m -2.85418,-12.81625 c 0,-0.96286 -0.8343,-1.75065 -1.85398,-1.75065 -1.01968,0 -1.36708,0.78779 -0.77201,1.75065 0.59509,0.96284 1.42938,1.75064 1.85398,1.75064 0.4246,0 0.77201,-0.7878 0.77201,-1.75064 z m 19.41398,-9.62858 c 0,-1.44429 -0.7878,-2.625979 -1.75066,-2.625979 -0.96286,0 -1.75065,1.181689 -1.75065,2.625979 0,1.44428 0.78779,2.62597 1.75065,2.62597 0.96286,0 1.75066,-1.18169 1.75066,-2.62597 z"
     style="fill:#8f9396;fill-opacity:1" />
  <g
     transform="matrix(1.6722419,0,0,1.6722419,0.85228805,-23.783942)"
     id="g3974">
    <g
       id="g4010"
       transform="translate(-29.220959,-2.0386716)">
      <g
         transform="translate(28.881181,0.67955719)"
         id="g3967">
        <path
           style="fill:#4b4944;fill-opacity:1;stroke:none"
           d="m 367.64045,48.512768 c 0.79877,0 -5.1236,64.392392 -6.94423,66.575372 0.74326,0.0318 20.19559,0.36101 20.19559,0.36101 0,0 -6.79557,-70.334168 -4.7569,-68.805164 2.03867,1.529004 -8.49446,1.868782 -8.49446,1.868782 z"
           id="path3183"
           inkscape:connector-curvature="0"
           sodipodi:nodetypes="cccsc" />
        <path
           inkscape:connector-curvature="0"
           transform="translate(-2.2935055,-1.9537269)"
           style="fill:#4b4944;fill-opacity:1;stroke:none"
           d="m 387.55998,50.827511 c 0,4.187042 -5.7522,7.58131 -12.84788,7.58131 -7.09569,0 -12.84788,-3.394268 -12.84788,-7.58131 0,-4.187042 5.75219,-7.58131 12.84788,-7.58131 7.09568,0 12.84788,3.394268 12.84788,7.58131 z"
           id="path3954" />
        <path
           inkscape:connector-curvature="0"
           transform="matrix(1.1900826,0,0,1.2825196,-73.498534,-34.121755)"
           style="fill:#4b4944;fill-opacity:1;stroke:none"
           d="m 387.55998,50.827511 c 0,4.187042 -5.7522,7.58131 -12.84788,7.58131 -7.09569,0 -12.84788,-3.394268 -12.84788,-7.58131 0,-4.187042 5.75219,-7.58131 12.84788,-7.58131 7.09568,0 12.84788,3.394268 12.84788,7.58131 z"
           id="path3956" />
        <path
           inkscape:connector-curvature="0"
           transform="translate(0.21236166,0.29730628)"
           style="fill:#4b4944;fill-opacity:1;stroke:none"
           d="m 383.77994,41.101349 c 0,1.583335 -5.55253,2.866882 -12.40192,2.866882 -6.84939,0 -12.40192,-1.283547 -12.40192,-2.866882 0,-1.583335 5.55253,-2.866882 12.40192,-2.866882 6.84939,0 12.40192,1.283547 12.40192,2.866882 z"
           id="path3960" />
      </g>
      <path
         sodipodi:nodetypes="cccsc"
         inkscape:connector-curvature="0"
         id="path3976"
         d="m 396.33113,56.521305 c 0.79877,0 -4.76321,57.233305 -6.58384,59.416285 0.74326,0.0318 15.09891,-6.00984 15.09891,-6.00984 0,0 -2.38994,-54.145496 -0.0807,-53.067841 1.15271,0.537933 -8.4344,-0.338604 -8.4344,-0.338604 z"
         style="fill:#898282;fill-opacity:1;stroke:none" />
      <path
         sodipodi:nodetypes="sssss"
         id="path3978"
         d="m 408.35622,49.723231 c -0.19502,2.302328 -2.75191,6.902739 -9.84759,6.902739 -7.09569,0 -9.88684,-2.715697 -9.88684,-6.902739 0,-4.187042 5.75219,-7.58131 12.84788,-7.58131 7.09568,0 7.13335,4.667746 6.88655,7.58131 z"
         style="fill:#898282;fill-opacity:1;stroke:none"
         inkscape:connector-curvature="0" />
      <path
         sodipodi:nodetypes="sssss"
         id="path3982"
         d="m 407.41479,18.837673 c 0,1.885462 -2.59026,3.604087 -5.78551,3.838655 -3.19525,0.234568 -5.78552,-1.103746 -5.78552,-2.989209 0,-1.885462 2.59027,-3.604087 5.78552,-3.838655 3.19525,-0.234568 5.78551,1.103746 5.78551,2.989209 z"
         style="fill:#caccd6;fill-opacity:1;stroke:none"
         inkscape:connector-curvature="0" />
      <path
         sodipodi:nodetypes="sssss"
         id="path3980"
         d="m 410.41008,31.660136 c 0.52759,3.969933 -4.04243,7.939342 -11.04281,8.364065 -8.42897,0.511397 -13.16642,-2.739267 -13.16642,-8.10923 0,-5.369964 6.84666,-9.858466 15.29004,-9.723179 5.30149,0.08494 8.55591,6.734687 8.91919,9.468344 z"
         style="fill:#898282;fill-opacity:1;stroke:none"
         inkscape:connector-curvature="0" />
      <path
         sodipodi:nodetypes="sssss"
         id="path3984"
         d="m 409.39075,42.163157 c 0,1.583335 -4.27836,3.036772 -8.7493,2.951827 -6.84815,-0.13011 -12.40192,-1.283547 -12.40192,-2.866882 0,-1.583335 5.55253,-2.866882 12.40192,-2.866882 4.47094,0 8.7493,1.198602 8.7493,2.781937 z"
         style="fill:#898282;fill-opacity:1;stroke:none"
         inkscape:connector-curvature="0" />
    </g>
  </g>
  <path
     inkscape:connector-curvature="0"
     id="path4041"
     d="m 796.28682,185.51912 8.89955,27.55097 -49.01623,4.21862 -4.82126,-4.4195 c 0,0 3.8993,-7.72727 4.70285,-7.72727 0.80354,0 40.23509,-19.62282 40.23509,-19.62282 z"
     style="fill:#e8f2ea;fill-opacity:1;stroke:none"
     sodipodi:nodetypes="ccccsc" />
  <path
     style="font-size:medium;font-style:normal;font-variant:normal;font-weight:normal;font-stretch:normal;text-indent:0;text-align:start;text-decoration:none;line-height:normal;letter-spacing:normal;word-spacing:normal;text-transform:none;direction:ltr;block-progression:tb;writing-mode:lr-tb;text-anchor:start;baseline-shift:baseline;color:#000000;fill:#b7babf;fill-opacity:1;stroke:none;stroke-width:3.4000001;marker:none;visibility:visible;display:inline;overflow:visible;enable-background:accumulate;font-family:Sans;-inkscape-font-specification:Sans"
     d="m 207.79727,244.94442 c -1.65219,-0.0536 -3.35576,0.0391 -5.04648,0.31761 0.21494,1.917 0.21415,2.12322 0.63522,3.77604 11.54282,-1.90123 22.40041,5.59541 24.35019,16.65694 0.59749,3.38974 0.29591,6.84546 -0.88226,10.09298 1.66899,0.95838 2.04024,0.91909 3.5996,1.34103 1.40609,-3.87578 1.77287,-8.05287 1.0587,-12.10452 -2.03146,-11.52495 -12.14954,-19.70464 -23.71497,-20.08008 z"
     inkscape:connector-curvature="0"
     sodipodi:nodetypes="cccsccsc" />
  <path
     style="font-size:medium;font-style:normal;font-variant:normal;font-weight:normal;font-stretch:normal;text-indent:0;text-align:start;text-decoration:none;line-height:normal;letter-spacing:normal;word-spacing:normal;text-transform:none;direction:ltr;block-progression:tb;writing-mode:lr-tb;text-anchor:start;baseline-shift:baseline;color:#000000;fill:#b7babf;fill-opacity:1;stroke:none;stroke-width:3.4000001;marker:none;visibility:visible;display:inline;overflow:visible;enable-background:accumulate;font-family:Sans;-inkscape-font-specification:Sans"
     d="m 448.02702,234.90433 c 11.38328,2.64108 18.27278,13.57741 15.56295,24.49135 -1.89616,7.63684 -8.17654,13.56086 -16.19817,15.17476 0.19354,1.74569 0.45561,2.71062 0.74109,3.77604 9.42523,-1.89629 16.93487,-8.88382 19.19783,-17.99797 3.22513,-12.98936 -5.11246,-26.08888 -18.45674,-29.18493 -0.59182,2.20871 -0.62883,2.46306 -0.84696,3.74075 z"
     inkscape:connector-curvature="0"
     sodipodi:nodetypes="csccscc" />
  <path
     style="font-size:medium;font-style:normal;font-variant:normal;font-weight:normal;font-stretch:normal;text-indent:0;text-align:start;text-decoration:none;line-height:normal;letter-spacing:normal;word-spacing:normal;text-transform:none;direction:ltr;block-progression:tb;writing-mode:lr-tb;text-anchor:start;baseline-shift:baseline;color:#000000;fill:#6a6e74;fill-opacity:1;stroke:none;stroke-width:3.4000001;marker:none;visibility:visible;display:inline;overflow:visible;enable-background:accumulate;font-family:Sans;-inkscape-font-specification:Sans"
     d="m 187.63507,256.51958 c -2.48609,3.9639 -3.76013,8.55408 -3.63488,13.19851 0.3603,13.35978 11.87207,23.8841 25.58534,23.53851 0.17525,-1.92558 0.0768,-2.09089 -0.10587,-3.84662 -11.70793,0.29505 -21.33042,-8.58371 -21.63284,-19.79776 -0.10475,-3.88376 0.94569,-7.71466 3.03495,-11.04581 -1.20287,-1.20287 -1.77154,-1.65156 -3.2467,-2.04683 z"
     id="path3396"
     inkscape:connector-curvature="0"
     sodipodi:nodetypes="csccscc" />
  <path
     style="font-size:medium;font-style:normal;font-variant:normal;font-weight:normal;font-stretch:normal;text-indent:0;text-align:start;text-decoration:none;line-height:normal;letter-spacing:normal;word-spacing:normal;text-transform:none;direction:ltr;block-progression:tb;writing-mode:lr-tb;text-anchor:start;baseline-shift:baseline;color:#000000;fill:#6a6e74;fill-opacity:1;stroke:none;stroke-width:3.4000001;marker:none;visibility:visible;display:inline;overflow:visible;enable-background:accumulate;font-family:Sans;-inkscape-font-specification:Sans"
     d="m 196.88742,267.50993 c -0.0956,0.41666 -0.16258,0.81033 -0.21174,1.23516 -0.72119,6.23237 3.67918,11.96092 9.84594,12.70444 0.2396,-1.18821 0.32965,-2.47928 0.45878,-3.81133 -4.06508,-0.49012 -6.98076,-4.22247 -6.49339,-8.43434 0.0329,-0.28458 0.0772,-0.56812 0.14116,-0.84696 -1.73902,-0.41625 -1.9282,-0.44146 -3.74075,-0.84697 z"
     id="path4274"
     inkscape:connector-curvature="0"
     sodipodi:nodetypes="csccccc" />
  <path
     style="font-size:medium;font-style:normal;font-variant:normal;font-weight:normal;font-stretch:normal;text-indent:0;text-align:start;text-decoration:none;line-height:normal;letter-spacing:normal;word-spacing:normal;text-transform:none;direction:ltr;block-progression:tb;writing-mode:lr-tb;text-anchor:start;baseline-shift:baseline;color:#000000;fill:#b7babf;fill-opacity:1;stroke:none;stroke-width:3.4000001;marker:none;visibility:visible;display:inline;overflow:visible;enable-background:accumulate;font-family:Sans;-inkscape-font-specification:Sans"
     d="m 208.77228,259.43655 c -1.45277,-0.18121 -2.9557,-0.085 -4.44656,0.3529 0.0395,1.31243 0.43252,2.07943 1.094,3.67018 3.93769,-1.15671 7.99213,1.11563 9.14014,5.18765 0.52742,1.87076 0.34221,3.88402 -0.52935,5.61113 1.18299,0.90581 1.74843,1.03698 3.42314,1.72921 1.30682,-2.58964 1.59984,-5.56811 0.81167,-8.36376 -1.27598,-4.52599 -5.13474,-7.64365 -9.49304,-8.18731 z"
     id="path4276"
     inkscape:connector-curvature="0"
     sodipodi:nodetypes="sccsccss" />
  <path
     style="font-size:medium;font-style:normal;font-variant:normal;font-weight:normal;font-stretch:normal;text-indent:0;text-align:start;text-decoration:none;line-height:normal;letter-spacing:normal;word-spacing:normal;text-transform:none;direction:ltr;block-progression:tb;writing-mode:lr-tb;text-anchor:start;baseline-shift:baseline;color:#000000;fill:#b7babf;fill-opacity:1;stroke:none;stroke-width:3.4000001;marker:none;visibility:visible;display:inline;overflow:visible;enable-background:accumulate;font-family:Sans;-inkscape-font-specification:Sans"
     d="m 242.65929,186.79386 c -1.2384,-0.0402 -2.51532,0.0293 -3.7826,0.23807 -0.047,1.08677 0.23939,1.94675 0.47614,2.83033 8.65192,-1.42506 16.79024,4.19405 18.25169,12.48522 0.44786,2.54078 0.22181,5.13102 -0.66129,7.5652 1.01566,0.58639 1.26026,0.61991 2.69808,1.00517 1.05394,-2.90509 1.32886,-6.03604 0.79355,-9.07295 -1.52268,-8.63854 -9.10669,-14.76963 -17.77557,-15.05104 z"
     id="path4278"
     inkscape:connector-curvature="0"
     sodipodi:nodetypes="sccsccss" />
  <path
     style="font-size:medium;font-style:normal;font-variant:normal;font-weight:normal;font-stretch:normal;text-indent:0;text-align:start;text-decoration:none;line-height:normal;letter-spacing:normal;word-spacing:normal;text-transform:none;direction:ltr;block-progression:tb;writing-mode:lr-tb;text-anchor:start;baseline-shift:baseline;color:#000000;fill:#6a6e74;fill-opacity:1;stroke:none;stroke-width:3.4000001;marker:none;visibility:visible;display:inline;overflow:visible;enable-background:accumulate;font-family:Sans;-inkscape-font-specification:Sans"
     d="m 227.06694,196.31948 c -1.86345,2.97114 -2.81841,6.41172 -2.72453,9.89295 0.27006,10.01383 8.89872,17.90234 19.17751,17.64331 0.17783,-1.19317 0.11553,-1.66735 -0.0794,-2.88324 -8.77569,0.22115 -15.98824,-6.43393 -16.21492,-14.83942 -0.0785,-2.91108 0.70885,-5.78253 2.27485,-8.2794 -1.43654,-1.13071 -1.4873,-1.15778 -2.43351,-1.5342 z"
     id="path4280"
     inkscape:connector-curvature="0"
     sodipodi:nodetypes="csccscc" />
  <path
     style="font-size:medium;font-style:normal;font-variant:normal;font-weight:normal;font-stretch:normal;text-indent:0;text-align:start;text-decoration:none;line-height:normal;letter-spacing:normal;word-spacing:normal;text-transform:none;direction:ltr;block-progression:tb;writing-mode:lr-tb;text-anchor:start;baseline-shift:baseline;color:#000000;fill:#6a6e74;fill-opacity:1;stroke:none;stroke-width:3.4000001;marker:none;visibility:visible;display:inline;overflow:visible;enable-background:accumulate;font-family:Sans;-inkscape-font-specification:Sans"
     d="m 234.4818,203.70786 c -0.0717,0.31231 -0.12186,0.60738 -0.15871,0.92581 -0.54056,4.67148 2.75774,8.96532 7.38004,9.52262 0.21844,-0.64689 0.10752,-1.70703 0.34387,-2.85678 -3.04698,-0.36737 -5.23243,-3.16496 -4.86712,-6.32197 0.0247,-0.2133 0.0579,-0.42583 0.10581,-0.63484 -1.72728,-0.52787 -1.6263,-0.49697 -2.80389,-0.63484 z"
     id="path4282"
     inkscape:connector-curvature="0"
     sodipodi:nodetypes="csccccc" />
  <path
     style="font-size:medium;font-style:normal;font-variant:normal;font-weight:normal;font-stretch:normal;text-indent:0;text-align:start;text-decoration:none;line-height:normal;letter-spacing:normal;word-spacing:normal;text-transform:none;direction:ltr;block-progression:tb;writing-mode:lr-tb;text-anchor:start;baseline-shift:baseline;color:#000000;fill:#b7babf;fill-opacity:1;stroke:none;stroke-width:3.4000001;marker:none;visibility:visible;display:inline;overflow:visible;enable-background:accumulate;font-family:Sans;-inkscape-font-specification:Sans"
     d="m 243.39011,197.65645 c -1.08892,-0.13583 -2.21545,-0.0637 -3.33292,0.26452 0.29023,1.46787 0.39213,1.6274 0.82,2.75098 2.9515,-0.86701 5.99051,0.83622 6.851,3.8884 0.39533,1.40223 0.25651,2.91128 -0.39677,4.20583 1.38406,0.79909 1.16161,0.6935 2.56582,1.29614 0.97952,-1.94107 1.19915,-4.17359 0.60839,-6.26907 -0.95642,-3.39245 -3.84875,-5.7293 -7.11552,-6.1368 z"
     id="path4284"
     inkscape:connector-curvature="0"
     sodipodi:nodetypes="sccsccss" />
</svg>
