<?xml version="1.0" encoding="UTF-8" standalone="no"?>
<!-- Created with Inkscape (http://www.inkscape.org/) -->

<svg
   xmlns:dc="http://purl.org/dc/elements/1.1/"
   xmlns:cc="http://creativecommons.org/ns#"
   xmlns:rdf="http://www.w3.org/1999/02/22-rdf-syntax-ns#"
   xmlns:svg="http://www.w3.org/2000/svg"
   xmlns="http://www.w3.org/2000/svg"
   xmlns:sodipodi="http://sodipodi.sourceforge.net/DTD/sodipodi-0.dtd"
   xmlns:inkscape="http://www.inkscape.org/namespaces/inkscape"
   id="svg2"
   version="1.1"
   inkscape:version="0.48.3.1 r9886"
   width="975.95148"
   height="302.85538"
   sodipodi:docname="nuggets.svg">
  <metadata
     id="metadata8">
    <rdf:RDF>
      <cc:Work
         rdf:about="">
        <dc:format>image/svg+xml</dc:format>
        <dc:type
           rdf:resource="http://purl.org/dc/dcmitype/StillImage" />
        <dc:title />
      </cc:Work>
    </rdf:RDF>
  </metadata>
  <defs
     id="defs6" />
  <sodipodi:namedview
     pagecolor="#ffffff"
     bordercolor="#666666"
     borderopacity="1"
     objecttolerance="10"
     gridtolerance="10"
     guidetolerance="10"
     inkscape:pageopacity="0"
     inkscape:pageshadow="2"
     inkscape:window-width="1391"
     inkscape:window-height="876"
     id="namedview4"
     showgrid="false"
     inkscape:zoom="0.5"
     inkscape:cx="789.45442"
     inkscape:cy="61.971365"
     inkscape:window-x="49"
     inkscape:window-y="24"
     inkscape:window-maximized="1"
     inkscape:current-layer="svg2"
     fit-margin-top="0"
     fit-margin-left="0"
     fit-margin-right="0"
     fit-margin-bottom="0" />
  <g
     id="g3786"
     transform="matrix(1.9058224,0,0,1.9058224,-24.998473,-13.749061)">
    <path
       sodipodi:nodetypes="csccscscccscssssss"
       inkscape:connector-curvature="0"
       id="path3016"
       d="m 81.454779,164.04504 c 18.242511,-0.66246 21.842571,-1.6533 23.993391,-6.60364 0.69975,-3.70851 1.12826,-7.8651 -0.40242,-11.3147 -2.17311,-4.91268 -3.02813,-5.94066 -7.630181,-9.17366 -3.43042,-2.40992 -14.8363,-4.66506 -17.52773,-4.99184 -8.246131,-1.00121 -36.146471,3.00613 -41.651801,4.4258 l -5.15974,1.2378 c -6.94405,1.66585 -15.42148,7.37836 -17.679031,11.91299 -4.03664,8.10822 -2.78674,12.31258 4.330011,14.56499 32.715241,1.58876 33.661332,0.94873 61.727501,-0.0577 z m -29.899281,-15.2281 c -0.8763,-1.41789 2.34494,-5.12105 3.92665,-4.5141 1.89215,0.72609 1.86363,1.81727 -0.0988,3.7797 -1.74698,1.74697 -3.0478,1.99655 -3.82785,0.7344 z m 8.95954,-1.74557 c -1.96889,-1.96889 -1.16703,-3.4174 1.89177,-3.4174 3.01655,0 4.06839,2.65111 1.58018,3.98276 -1.41382,0.75666 -2.29312,0.61347 -3.47195,-0.56536 z"
       style="fill:#e69f16;fill-opacity:1" />
    <path
       sodipodi:nodetypes="sscscsssscscsccscscscsssssssssccccssssss"
       inkscape:connector-curvature="0"
       id="path3020"
       d="m 35.46875,154.125 c -1.411975,0.16362 -2.522091,0.82709 -3.21875,1.71875 -0.696659,0.89166 -1.004052,1.97413 -1,3.03125 0.0041,1.05712 0.333681,2.10317 0.96875,2.90625 0.635069,0.80308 1.636709,1.34036 2.8125,1.28125 1.05903,-0.0532 1.859678,-0.35406 2.40625,-0.875 0.546572,-0.52094 0.765092,-1.20679 0.75,-1.84375 -0.01509,-0.63696 -0.211872,-1.2257 -0.5,-1.71875 -0.288128,-0.49305 -0.649759,-0.93564 -1.1875,-1.15625 -1.291909,-0.53001 -2.552968,-0.0811 -3.03125,0.84375 -0.239141,0.46241 -0.279748,1.02647 -0.0625,1.53125 0.217248,0.50478 0.682401,0.91166 1.28125,1.15625 0.369421,0.2153 0.910012,0.0317 1.071908,-0.36405 0.161895,-0.39574 -0.09501,-0.90559 -0.509408,-1.01095 -0.310052,-0.12664 -0.426929,-0.27783 -0.46875,-0.375 -0.04182,-0.0972 -0.01193,-0.16651 0.03125,-0.25 0.08636,-0.16698 0.337372,-0.44812 1.125,-0.125 0.02162,0.009 0.263644,0.2025 0.4375,0.5 0.173856,0.2975 0.304962,0.68187 0.3125,1 0.0075,0.31813 -0.06912,0.54782 -0.28125,0.75 -0.212133,0.20218 -0.614509,0.39612 -1.4375,0.4375 -0.70623,0.0355 -1.209107,-0.23235 -1.59375,-0.71875 -0.384643,-0.4864 -0.622097,-1.21156 -0.625,-1.96875 -0.0029,-0.75719 0.227908,-1.53676 0.6875,-2.125 0.459592,-0.58824 1.129568,-1.00241 2.1875,-1.125 1.017012,-0.11785 2.107994,0.21291 3.34375,0.8125 1.235756,0.59959 2.60663,1.4456 4.1875,2.1875 3.16174,1.4838 7.223334,2.48648 12.625,0.1875 4.739741,-2.01726 10.683904,-1.52156 15.4375,-0.46875 2.376798,0.5264 4.458612,1.19794 5.9375,1.71875 0.739444,0.26041 1.312975,0.46539 1.71875,0.625 0.202888,0.0798 0.358802,0.1437 0.46875,0.1875 0.985104,0.12856 1.194493,-0.96682 0.53125,-1.375 -0.105014,-0.0419 -0.240861,-0.11015 -0.4375,-0.1875 -0.417258,-0.16412 -1.02077,-0.41969 -1.78125,-0.6875 -1.520959,-0.53563 -3.671238,-1.20655 -6.125,-1.75 -4.907524,-1.0869 -11.114335,-1.66317 -16.34375,0.5625 -5.020294,2.13667 -8.439278,1.23615 -11.40625,-0.15625 -1.483486,-0.6962 -2.818897,-1.53862 -4.15625,-2.1875 -1.337353,-0.64888 -2.703355,-1.13711 -4.15625,-0.96875 z"
       style="font-size:medium;font-style:normal;font-variant:normal;font-weight:normal;font-stretch:normal;text-indent:0;text-align:start;text-decoration:none;line-height:normal;letter-spacing:normal;word-spacing:normal;text-transform:none;direction:ltr;block-progression:tb;writing-mode:lr-tb;text-anchor:start;baseline-shift:baseline;color:#000000;fill:#ebbe65;fill-opacity:1;stroke:none;stroke-width:1.5;marker:none;visibility:visible;display:inline;overflow:visible;enable-background:accumulate;font-family:Sans;-inkscape-font-specification:Sans" />
    <path
       transform="matrix(0.81388378,-0.5810277,0.5810277,0.81388378,-189.9339,156.35895)"
       style="fill:#ebbe65;fill-opacity:1;stroke:none"
       d="m 227.77841,145.15869 c 0,0.85062 -0.80239,1.54018 -1.7922,1.54018 -0.98981,0 -1.79221,-0.68956 -1.79221,-1.54018 0,-0.85062 0.8024,-1.54018 1.79221,-1.54018 0.98981,0 1.7922,0.68956 1.7922,1.54018 z"
       id="path3764"
       inkscape:connector-curvature="0" />
    <path
       transform="matrix(0.68071935,-0.48118736,0.48596226,0.67403084,-149.96146,155.9455)"
       style="fill:#ebbe65;fill-opacity:1;stroke:none"
       d="m 227.77841,145.15869 c 0,0.85062 -0.80239,1.54018 -1.7922,1.54018 -0.98981,0 -1.79221,-0.68956 -1.79221,-1.54018 0,-0.85062 0.8024,-1.54018 1.79221,-1.54018 0.98981,0 1.7922,0.68956 1.7922,1.54018 z"
       id="path3766"
       inkscape:connector-curvature="0" />
    <path
       transform="matrix(0.80127623,-0.22994895,0.23666148,0.79653515,-137.93711,83.01071)"
       style="fill:#ebbe65;fill-opacity:1;stroke:none"
       d="m 227.77841,145.15869 c 0,0.85062 -0.80239,1.54018 -1.7922,1.54018 -0.98981,0 -1.79221,-0.68956 -1.79221,-1.54018 0,-0.85062 0.8024,-1.54018 1.79221,-1.54018 0.98981,0 1.7922,0.68956 1.7922,1.54018 z"
       id="path3768"
       inkscape:connector-curvature="0" />
    <path
       transform="matrix(0.48118736,-0.68071935,-0.67403084,-0.48596226,31.963589,371.67006)"
       style="fill:#ebbe65;fill-opacity:1;stroke:none"
       d="m 227.77841,145.15869 c 0,0.85062 -0.80239,1.54018 -1.7922,1.54018 -0.98981,0 -1.79221,-0.68956 -1.79221,-1.54018 0,-0.85062 0.8024,-1.54018 1.79221,-1.54018 0.98981,0 1.7922,0.68956 1.7922,1.54018 z"
       id="path3782"
       inkscape:connector-curvature="0" />
    <path
       transform="matrix(0.22994895,-0.80127623,-0.79653515,-0.23666148,103.4422,364.35027)"
       style="fill:#ebbe65;fill-opacity:1;stroke:none"
       d="m 227.77841,145.15869 c 0,0.85062 -0.80239,1.54018 -1.7922,1.54018 -0.98981,0 -1.79221,-0.68956 -1.79221,-1.54018 0,-0.85062 0.8024,-1.54018 1.79221,-1.54018 0.98981,0 1.7922,0.68956 1.7922,1.54018 z"
       id="path3784"
       inkscape:connector-curvature="0" />
  </g>
  <g
     id="g3795"
     transform="matrix(1.9058224,0,0,1.9058224,250.5898,-14.422871)">
    <path
       style="fill:#e69f16;fill-opacity:1"
       d="m 81.454779,164.04504 c 18.242511,-0.66246 21.842571,-1.6533 23.993391,-6.60364 0.69975,-3.70851 1.12826,-7.8651 -0.40242,-11.3147 -2.17311,-4.91268 -3.02813,-5.94066 -7.630181,-9.17366 -3.43042,-2.40992 -14.8363,-4.66506 -17.52773,-4.99184 -8.246131,-1.00121 -36.146471,3.00613 -41.651801,4.4258 l -5.15974,1.2378 c -6.94405,1.66585 -15.42148,7.37836 -17.679031,11.91299 -4.03664,8.10822 -2.78674,12.31258 4.330011,14.56499 32.715241,1.58876 33.661332,0.94873 61.727501,-0.0577 z m -29.899281,-15.2281 c -0.8763,-1.41789 2.34494,-5.12105 3.92665,-4.5141 1.89215,0.72609 1.86363,1.81727 -0.0988,3.7797 -1.74698,1.74697 -3.0478,1.99655 -3.82785,0.7344 z m 8.95954,-1.74557 c -1.96889,-1.96889 -1.16703,-3.4174 1.89177,-3.4174 3.01655,0 4.06839,2.65111 1.58018,3.98276 -1.41382,0.75666 -2.29312,0.61347 -3.47195,-0.56536 z"
       id="path3797"
       inkscape:connector-curvature="0"
       sodipodi:nodetypes="csccscscccscssssss" />
    <path
       style="font-size:medium;font-style:normal;font-variant:normal;font-weight:normal;font-stretch:normal;text-indent:0;text-align:start;text-decoration:none;line-height:normal;letter-spacing:normal;word-spacing:normal;text-transform:none;direction:ltr;block-progression:tb;writing-mode:lr-tb;text-anchor:start;baseline-shift:baseline;color:#000000;fill:#ebbe65;fill-opacity:1;stroke:none;stroke-width:1.5;marker:none;visibility:visible;display:inline;overflow:visible;enable-background:accumulate;font-family:Sans;-inkscape-font-specification:Sans"
       d="m 35.46875,154.125 c -1.411975,0.16362 -2.522091,0.82709 -3.21875,1.71875 -0.696659,0.89166 -1.004052,1.97413 -1,3.03125 0.0041,1.05712 0.333681,2.10317 0.96875,2.90625 0.635069,0.80308 1.636709,1.34036 2.8125,1.28125 1.05903,-0.0532 1.859678,-0.35406 2.40625,-0.875 0.546572,-0.52094 0.765092,-1.20679 0.75,-1.84375 -0.01509,-0.63696 -0.211872,-1.2257 -0.5,-1.71875 -0.288128,-0.49305 -0.649759,-0.93564 -1.1875,-1.15625 -1.291909,-0.53001 -2.552968,-0.0811 -3.03125,0.84375 -0.239141,0.46241 -0.279748,1.02647 -0.0625,1.53125 0.217248,0.50478 0.682401,0.91166 1.28125,1.15625 0.369421,0.2153 0.910012,0.0317 1.071908,-0.36405 0.161895,-0.39574 -0.09501,-0.90559 -0.509408,-1.01095 -0.310052,-0.12664 -0.426929,-0.27783 -0.46875,-0.375 -0.04182,-0.0972 -0.01193,-0.16651 0.03125,-0.25 0.08636,-0.16698 0.337372,-0.44812 1.125,-0.125 0.02162,0.009 0.263644,0.2025 0.4375,0.5 0.173856,0.2975 0.304962,0.68187 0.3125,1 0.0075,0.31813 -0.06912,0.54782 -0.28125,0.75 -0.212133,0.20218 -0.614509,0.39612 -1.4375,0.4375 -0.70623,0.0355 -1.209107,-0.23235 -1.59375,-0.71875 -0.384643,-0.4864 -0.622097,-1.21156 -0.625,-1.96875 -0.0029,-0.75719 0.227908,-1.53676 0.6875,-2.125 0.459592,-0.58824 1.129568,-1.00241 2.1875,-1.125 1.017012,-0.11785 2.107994,0.21291 3.34375,0.8125 1.235756,0.59959 2.60663,1.4456 4.1875,2.1875 3.16174,1.4838 7.223334,2.48648 12.625,0.1875 4.739741,-2.01726 10.683904,-1.52156 15.4375,-0.46875 2.376798,0.5264 4.458612,1.19794 5.9375,1.71875 0.739444,0.26041 1.312975,0.46539 1.71875,0.625 0.202888,0.0798 0.358802,0.1437 0.46875,0.1875 0.985104,0.12856 1.194493,-0.96682 0.53125,-1.375 -0.105014,-0.0419 -0.240861,-0.11015 -0.4375,-0.1875 -0.417258,-0.16412 -1.02077,-0.41969 -1.78125,-0.6875 -1.520959,-0.53563 -3.671238,-1.20655 -6.125,-1.75 -4.907524,-1.0869 -11.114335,-1.66317 -16.34375,0.5625 -5.020294,2.13667 -8.439278,1.23615 -11.40625,-0.15625 -1.483486,-0.6962 -2.818897,-1.53862 -4.15625,-2.1875 -1.337353,-0.64888 -2.703355,-1.13711 -4.15625,-0.96875 z"
       id="path3799"
       inkscape:connector-curvature="0"
       sodipodi:nodetypes="sscscsssscscsccscscscsssssssssccccssssss" />
    <path
       transform="matrix(0.81388378,-0.5810277,0.5810277,0.81388378,-189.9339,156.35895)"
       style="fill:#ebbe65;fill-opacity:1;stroke:none"
       d="m 227.77841,145.15869 c 0,0.85062 -0.80239,1.54018 -1.7922,1.54018 -0.98981,0 -1.79221,-0.68956 -1.79221,-1.54018 0,-0.85062 0.8024,-1.54018 1.79221,-1.54018 0.98981,0 1.7922,0.68956 1.7922,1.54018 z"
       id="path3801"
       inkscape:connector-curvature="0" />
    <path
       transform="matrix(0.68071935,-0.48118736,0.48596226,0.67403084,-149.96146,155.9455)"
       style="fill:#ebbe65;fill-opacity:1;stroke:none"
       d="m 227.77841,145.15869 c 0,0.85062 -0.80239,1.54018 -1.7922,1.54018 -0.98981,0 -1.79221,-0.68956 -1.79221,-1.54018 0,-0.85062 0.8024,-1.54018 1.79221,-1.54018 0.98981,0 1.7922,0.68956 1.7922,1.54018 z"
       id="path3803"
       inkscape:connector-curvature="0" />
    <path
       transform="matrix(0.80127623,-0.22994895,0.23666148,0.79653515,-137.93711,83.01071)"
       style="fill:#ebbe65;fill-opacity:1;stroke:none"
       d="m 227.77841,145.15869 c 0,0.85062 -0.80239,1.54018 -1.7922,1.54018 -0.98981,0 -1.79221,-0.68956 -1.79221,-1.54018 0,-0.85062 0.8024,-1.54018 1.79221,-1.54018 0.98981,0 1.7922,0.68956 1.7922,1.54018 z"
       id="path3805"
       inkscape:connector-curvature="0" />
    <path
       transform="matrix(0.48118736,-0.68071935,-0.67403084,-0.48596226,31.963589,371.67006)"
       style="fill:#ebbe65;fill-opacity:1;stroke:none"
       d="m 227.77841,145.15869 c 0,0.85062 -0.80239,1.54018 -1.7922,1.54018 -0.98981,0 -1.79221,-0.68956 -1.79221,-1.54018 0,-0.85062 0.8024,-1.54018 1.79221,-1.54018 0.98981,0 1.7922,0.68956 1.7922,1.54018 z"
       id="path3807"
       inkscape:connector-curvature="0" />
    <path
       transform="matrix(0.22994895,-0.80127623,-0.79653515,-0.23666148,103.4422,364.35027)"
       style="fill:#ebbe65;fill-opacity:1;stroke:none"
       d="m 227.77841,145.15869 c 0,0.85062 -0.80239,1.54018 -1.7922,1.54018 -0.98981,0 -1.79221,-0.68956 -1.79221,-1.54018 0,-0.85062 0.8024,-1.54018 1.79221,-1.54018 0.98981,0 1.7922,0.68956 1.7922,1.54018 z"
       id="path3809"
       inkscape:connector-curvature="0" />
  </g>
  <g
     id="g3873"
     transform="matrix(1.9058224,0,0,1.9058224,-24.998473,-13.749061)">
    <path
       sodipodi:nodetypes="csccscscccscssssss"
       inkscape:connector-curvature="0"
       id="path3813"
       d="m 368.89369,165.1057 c 18.24251,-0.66246 21.84257,-1.6533 23.99339,-6.60364 0.69975,-3.70851 1.12826,-7.8651 -0.40242,-11.3147 -2.17311,-4.91268 -3.02813,-5.94066 -7.63018,-9.17366 -3.43042,-2.40992 -14.8363,-4.66506 -17.52773,-4.99184 -8.24613,-1.00121 -36.14647,3.00613 -41.6518,4.4258 l -5.15974,1.2378 c -6.94405,1.66585 -15.42148,7.37836 -17.67903,11.91299 -4.03664,8.10822 -2.78674,12.31258 4.33001,14.56499 32.71524,1.58876 33.66133,0.94873 61.7275,-0.0577 z m -29.89928,-15.2281 c -0.8763,-1.41789 2.34494,-5.12105 3.92665,-4.5141 1.89215,0.72609 1.86363,1.81727 -0.0988,3.7797 -1.74698,1.74697 -3.0478,1.99655 -3.82785,0.7344 z m 8.95954,-1.74557 c -1.96889,-1.96889 -1.16703,-3.4174 1.89177,-3.4174 3.01655,0 4.06839,2.65111 1.58018,3.98276 -1.41382,0.75666 -2.29312,0.61347 -3.47195,-0.56536 z"
       style="fill:#e69f16;fill-opacity:1" />
    <path
       sodipodi:nodetypes="sscscsssscscsccscscscsssssssssccccssssss"
       inkscape:connector-curvature="0"
       id="path3815"
       d="m 322.90766,155.18566 c -1.41197,0.16362 -2.52209,0.82709 -3.21875,1.71875 -0.69666,0.89166 -1.00405,1.97413 -1,3.03125 0.004,1.05712 0.33368,2.10317 0.96875,2.90625 0.63507,0.80308 1.63671,1.34036 2.8125,1.28125 1.05903,-0.0532 1.85968,-0.35406 2.40625,-0.875 0.54657,-0.52094 0.76509,-1.20679 0.75,-1.84375 -0.0151,-0.63696 -0.21187,-1.2257 -0.5,-1.71875 -0.28813,-0.49305 -0.64976,-0.93564 -1.1875,-1.15625 -1.29191,-0.53001 -2.55297,-0.0811 -3.03125,0.84375 -0.23914,0.46241 -0.27975,1.02647 -0.0625,1.53125 0.21725,0.50478 0.6824,0.91166 1.28125,1.15625 0.36942,0.2153 0.91001,0.0317 1.07191,-0.36405 0.16189,-0.39574 -0.095,-0.90559 -0.50941,-1.01095 -0.31005,-0.12664 -0.42693,-0.27783 -0.46875,-0.375 -0.0418,-0.0972 -0.0119,-0.16651 0.0312,-0.25 0.0864,-0.16698 0.33737,-0.44812 1.125,-0.125 0.0216,0.009 0.26364,0.2025 0.4375,0.5 0.17386,0.2975 0.30496,0.68187 0.3125,1 0.007,0.31813 -0.0691,0.54782 -0.28125,0.75 -0.21213,0.20218 -0.61451,0.39612 -1.4375,0.4375 -0.70623,0.0355 -1.20911,-0.23235 -1.59375,-0.71875 -0.38464,-0.4864 -0.6221,-1.21156 -0.625,-1.96875 -0.003,-0.75719 0.22791,-1.53676 0.6875,-2.125 0.45959,-0.58824 1.12957,-1.00241 2.1875,-1.125 1.01701,-0.11785 2.10799,0.21291 3.34375,0.8125 1.23576,0.59959 2.60663,1.4456 4.1875,2.1875 3.16174,1.4838 7.22333,2.48648 12.625,0.1875 4.73974,-2.01726 10.6839,-1.52156 15.4375,-0.46875 2.3768,0.5264 4.45861,1.19794 5.9375,1.71875 0.73944,0.26041 1.31298,0.46539 1.71875,0.625 0.20289,0.0798 0.3588,0.1437 0.46875,0.1875 0.9851,0.12856 1.19449,-0.96682 0.53125,-1.375 -0.10501,-0.0419 -0.24086,-0.11015 -0.4375,-0.1875 -0.41726,-0.16412 -1.02077,-0.41969 -1.78125,-0.6875 -1.52096,-0.53563 -3.67124,-1.20655 -6.125,-1.75 -4.90752,-1.0869 -11.11433,-1.66317 -16.34375,0.5625 -5.02029,2.13667 -8.43928,1.23615 -11.40625,-0.15625 -1.48349,-0.6962 -2.8189,-1.53862 -4.15625,-2.1875 -1.33735,-0.64888 -2.70335,-1.13711 -4.15625,-0.96875 z"
       style="font-size:medium;font-style:normal;font-variant:normal;font-weight:normal;font-stretch:normal;text-indent:0;text-align:start;text-decoration:none;line-height:normal;letter-spacing:normal;word-spacing:normal;text-transform:none;direction:ltr;block-progression:tb;writing-mode:lr-tb;text-anchor:start;baseline-shift:baseline;color:#000000;fill:#ebbe65;fill-opacity:1;stroke:none;stroke-width:1.5;marker:none;visibility:visible;display:inline;overflow:visible;enable-background:accumulate;font-family:Sans;-inkscape-font-specification:Sans" />
    <path
       transform="matrix(0.81388378,-0.5810277,0.5810277,0.81388378,97.50501,157.41961)"
       style="fill:#ebbe65;fill-opacity:1;stroke:none"
       d="m 227.77841,145.15869 c 0,0.85062 -0.80239,1.54018 -1.7922,1.54018 -0.98981,0 -1.79221,-0.68956 -1.79221,-1.54018 0,-0.85062 0.8024,-1.54018 1.79221,-1.54018 0.98981,0 1.7922,0.68956 1.7922,1.54018 z"
       id="path3817"
       inkscape:connector-curvature="0" />
    <path
       transform="matrix(0.68071935,-0.48118736,0.48596226,0.67403084,137.47745,157.00616)"
       style="fill:#ebbe65;fill-opacity:1;stroke:none"
       d="m 227.77841,145.15869 c 0,0.85062 -0.80239,1.54018 -1.7922,1.54018 -0.98981,0 -1.79221,-0.68956 -1.79221,-1.54018 0,-0.85062 0.8024,-1.54018 1.79221,-1.54018 0.98981,0 1.7922,0.68956 1.7922,1.54018 z"
       id="path3819"
       inkscape:connector-curvature="0" />
    <path
       transform="matrix(0.80127623,-0.22994895,0.23666148,0.79653515,149.5018,84.07137)"
       style="fill:#ebbe65;fill-opacity:1;stroke:none"
       d="m 227.77841,145.15869 c 0,0.85062 -0.80239,1.54018 -1.7922,1.54018 -0.98981,0 -1.79221,-0.68956 -1.79221,-1.54018 0,-0.85062 0.8024,-1.54018 1.79221,-1.54018 0.98981,0 1.7922,0.68956 1.7922,1.54018 z"
       id="path3821"
       inkscape:connector-curvature="0" />
    <path
       transform="matrix(0.48118736,-0.68071935,-0.67403084,-0.48596226,319.4025,372.73072)"
       style="fill:#ebbe65;fill-opacity:1;stroke:none"
       d="m 227.77841,145.15869 c 0,0.85062 -0.80239,1.54018 -1.7922,1.54018 -0.98981,0 -1.79221,-0.68956 -1.79221,-1.54018 0,-0.85062 0.8024,-1.54018 1.79221,-1.54018 0.98981,0 1.7922,0.68956 1.7922,1.54018 z"
       id="path3823"
       inkscape:connector-curvature="0" />
    <path
       transform="matrix(0.22994895,-0.80127623,-0.79653515,-0.23666148,390.88111,365.41093)"
       style="fill:#ebbe65;fill-opacity:1;stroke:none"
       d="m 227.77841,145.15869 c 0,0.85062 -0.80239,1.54018 -1.7922,1.54018 -0.98981,0 -1.79221,-0.68956 -1.79221,-1.54018 0,-0.85062 0.8024,-1.54018 1.79221,-1.54018 0.98981,0 1.7922,0.68956 1.7922,1.54018 z"
       id="path3825"
       inkscape:connector-curvature="0" />
  </g>
  <g
     id="g3882"
     transform="matrix(1.9058224,0,0,1.9058224,-24.998473,-13.749061)">
    <path
       style="fill:#e69f16;fill-opacity:1"
       d="m 511.72254,161.95589 c 12.7492,-6.17178 17.3072,-24.49131 9.97694,-40.09929 -5.79834,-12.34614 -13.12905,-17.95263 -23.47379,-17.95263 -15.22241,0 -28.53076,10.87254 -33.78059,27.59777 -4.10556,13.07973 -1.9854,23.81274 5.70983,28.9052 5.12129,3.38911 10.94052,4.32862 25.22775,4.07299 9.76868,-0.17478 12.29218,-0.56459 16.33986,-2.52404 z m -20.222,-48.22785 c 0.29798,-2.07199 1.88339,-2.60148 3.15852,-2.64814 1.43814,-0.0526 2.60832,1.16373 2.5,2 -0.23027,1.7777 -1.05925,2.74073 -3.13052,3.04019 -1.36808,0.19779 -2.81854,-0.37175 -2.528,-2.39205 z m 9.96038,-0.16608 c -1.32112,-1.59185 -0.50464,-2.65799 2.03555,-2.65799 1.16666,0 1.83333,0.72727 1.83333,2 0,2.28027 -2.2105,2.65622 -3.86888,0.65799 z"
       id="path3778"
       inkscape:connector-curvature="0"
       sodipodi:nodetypes="scssssssssssssss" />
    <path
       transform="matrix(0.48733906,-0.5405974,0.347909,0.75725042,328.97834,137.29261)"
       style="fill:#ebbe65;fill-opacity:1;stroke:none"
       d="m 227.77841,145.15869 c 0,0.85062 -0.80239,1.54018 -1.7922,1.54018 -0.98981,0 -1.79221,-0.68956 -1.79221,-1.54018 0,-0.85062 0.8024,-1.54018 1.79221,-1.54018 0.98981,0 1.7922,0.68956 1.7922,1.54018 z"
       id="path3817-2"
       inkscape:connector-curvature="0" />
    <path
       transform="matrix(0.70481737,-0.73015715,0.50316572,1.0227792,253.98241,143.43458)"
       style="fill:#ebbe65;fill-opacity:1;stroke:none"
       d="m 227.77841,145.15869 c 0,0.85062 -0.80239,1.54018 -1.7922,1.54018 -0.98981,0 -1.79221,-0.68956 -1.79221,-1.54018 0,-0.85062 0.8024,-1.54018 1.79221,-1.54018 0.98981,0 1.7922,0.68956 1.7922,1.54018 z"
       id="path3819-5"
       inkscape:connector-curvature="0" />
    <path
       transform="matrix(0.82964206,-0.34892619,0.24503949,1.2086681,266.43244,32.762795)"
       style="fill:#ebbe65;fill-opacity:1;stroke:none"
       d="m 227.77841,145.15869 c 0,0.85062 -0.80239,1.54018 -1.7922,1.54018 -0.98981,0 -1.79221,-0.68956 -1.79221,-1.54018 0,-0.85062 0.8024,-1.54018 1.79221,-1.54018 0.98981,0 1.7922,0.68956 1.7922,1.54018 z"
       id="path3821-0"
       inkscape:connector-curvature="0" />
    <path
       style="fill:none;stroke:#ebbe65;stroke-width:1.5;stroke-linecap:round;stroke-linejoin:round;stroke-miterlimit:4;stroke-opacity:1;stroke-dasharray:none"
       d="m 514.6211,146.21209 c -0.88421,-0.37049 -0.64288,-8.47249 4.1289,-3.83709 3.60419,3.50118 -2.43639,8.54962 -5.99134,8.02643 -5.089,-0.74896 -10.0903,-2.3697 -15.2684,-0.28271 -5.1781,2.08699 -27.50889,0.0669 -29.52059,-7.52037 -2.64111,-9.96108 5.34506,-19.80611 5.89147,-13.25238 0.76232,9.14349 -3.83036,8.05939 -3.44823,5.63258"
       id="path3851"
       inkscape:connector-curvature="0"
       sodipodi:nodetypes="csszssc" />
    <path
       transform="matrix(-0.4647824,-0.74390462,-0.53177931,0.81074243,692.83309,172.1077)"
       style="fill:#ebbe65;fill-opacity:1;stroke:none"
       d="m 227.77841,145.15869 c 0,0.85062 -0.80239,1.54018 -1.7922,1.54018 -0.98981,0 -1.79221,-0.68956 -1.79221,-1.54018 0,-0.85062 0.8024,-1.54018 1.79221,-1.54018 0.98981,0 1.7922,0.68956 1.7922,1.54018 z"
       id="path3853"
       inkscape:connector-curvature="0" />
    <path
       transform="matrix(-0.57338365,-0.76291689,-0.63666877,0.8172882,735.49154,178.62615)"
       style="fill:#ebbe65;fill-opacity:1;stroke:none"
       d="m 227.77841,145.15869 c 0,0.85062 -0.80239,1.54018 -1.7922,1.54018 -0.98981,0 -1.79221,-0.68956 -1.79221,-1.54018 0,-0.85062 0.8024,-1.54018 1.79221,-1.54018 0.98981,0 1.7922,0.68956 1.7922,1.54018 z"
       id="path3855"
       inkscape:connector-curvature="0" />
    <path
       transform="matrix(-0.75009999,-0.4477014,-0.41467563,1.024789,739.75877,78.907218)"
       style="fill:#ebbe65;fill-opacity:1;stroke:none"
       d="m 227.77841,145.15869 c 0,0.85062 -0.80239,1.54018 -1.7922,1.54018 -0.98981,0 -1.79221,-0.68956 -1.79221,-1.54018 0,-0.85062 0.8024,-1.54018 1.79221,-1.54018 0.98981,0 1.7922,0.68956 1.7922,1.54018 z"
       id="path3857"
       inkscape:connector-curvature="0" />
  </g>
  <g
     id="g3134"
     transform="translate(31.819805,199.40411)">
    <path
       sodipodi:nodetypes="ccccc"
       d="m 556.55812,47.869186 5.50613,-156.822726 82.38802,4.28254 12.23584,156.210939 -100.12999,-3.670753"
       style="font-size:144px;font-style:normal;font-variant:normal;font-weight:bold;font-stretch:normal;line-height:125%;letter-spacing:0px;word-spacing:0px;fill:#3659a9;fill-opacity:1;stroke:none;font-family:Horseshoes and Lemonade;-inkscape-font-specification:Horseshoes and Lemonade Bold"
       id="path3057"
       inkscape:connector-curvature="0" />
    <path
       sodipodi:nodetypes="cccccccccccccccccccccccccccccccccccccccccccccc"
       d="m 632.2889,-56.063 1.42752,-26.10313 -57.50847,-1.83538 0,4.89434 c 1.49547,0.13609 2.65108,0.54394 3.46683,1.22358 0.95165,0.54395 1.63141,1.22372 2.0393,2.03931 0.40784,0.81585 0.61177,1.63157 0.6118,2.44717 0.13595,0.6799 0.2039,1.29169 0.20393,1.83538 l 2.24324,88.50593 c 0.13595,2.31124 -0.33992,4.01067 -1.42752,5.09827 -0.9517,1.08766 -2.58315,1.8354 -4.89434,2.24324 l 0,6.72971 54.04165,-1.83538 -2.03931,-27.53064 -5.71006,0 c -7e-5,1.49553 -0.068,2.85507 -0.20393,4.07861 -0.13596,1.08767 -0.47591,2.17531 -1.01966,3.26289 -1.0877,2.03935 -1.9714,3.53484 -2.6511,4.48648 -0.54388,0.9517 -1.35961,2.10731 -2.44716,3.46682 -2.03938,2.58315 -3.94272,4.35055 -5.71007,5.3022 -1.76745,0.81575 -4.01069,1.22361 -6.72971,1.22358 -2.31127,3e-5 -4.07867,-0.40783 -5.3022,-1.22358 -1.22362,-0.81569 -1.76744,-2.37916 -1.63144,-4.69041 l 1.63144,-42.62152 c 1.08758,0.27198 2.17521,0.61186 3.26289,1.01966 1.22353,0.40793 2.24318,0.95174 3.05896,1.63144 0.54376,0.27198 1.49544,1.22366 2.85503,2.85503 1.35949,1.49556 2.37914,2.71915 3.05897,3.67075 1.08757,1.49557 1.63138,3.26295 1.63144,5.3022 l 4.89434,0 -1.01965,-34.66822 -4.89434,0 c -0.13596,0.95178 -0.40792,1.97143 -0.81573,3.05896 -0.40791,1.08772 -0.81577,1.97142 -1.22358,2.6511 -1.49555,2.17535 -3.05902,4.21465 -4.69041,6.11792 -1.49554,1.76749 -3.46688,2.78714 -5.91399,3.05896 l 1.42752,-38.74684 c 0.13595,-2.99085 0.47578,-4.96218 1.01965,-5.91399 0.54376,-1.0875 2.17521,-1.63131 4.89434,-1.63144 2.85497,1.3e-4 5.37012,0.61192 7.54544,1.83537 2.17519,1.08776 4.01056,2.51528 5.50613,4.28255 0.67969,0.81584 1.35946,1.76751 2.0393,2.85503 0.81565,1.08774 1.63138,2.17537 2.44717,3.26289 0.40779,1.49561 0.6797,2.92312 0.81572,4.28255 0.27184,1.35965 0.54375,2.71919 0.81573,4.07861 l 4.89433,0"
       style="font-size:144px;font-style:normal;font-variant:normal;font-weight:bold;font-stretch:normal;line-height:125%;letter-spacing:0px;word-spacing:0px;fill:#81bbe1;fill-opacity:1;stroke:none;font-family:Horseshoes and Lemonade;-inkscape-font-specification:Horseshoes and Lemonade Bold"
       id="path3072"
       inkscape:connector-curvature="0" />
  </g>
  <g
     id="g3142">
    <path
       d="M 128.3538,243.11856 45.965785,249.24387 40.459655,82.625074 140.58964,86.907619 128.3538,243.11856"
       style="font-size:144px;font-style:normal;font-variant:normal;font-weight:bold;font-stretch:normal;line-height:125%;letter-spacing:0px;word-spacing:0px;fill:#3659a9;fill-opacity:1;stroke:none;font-family:Horseshoes and Lemonade;-inkscape-font-specification:Horseshoes and Lemonade Bold"
       id="path3064"
       inkscape:connector-curvature="0"
       sodipodi:nodetypes="ccccc" />
    <path
       d="m 123.56512,116.0378 -22.63631,-1.83537 0,4.6904 c 2.44711,0.40799 4.14653,1.08776 5.09827,2.03931 0.95161,0.81585 1.5634,1.5636 1.83538,2.24324 0.54374,1.08776 0.88363,2.65123 1.01965,4.69041 0.13589,2.03942 0.20386,3.33098 0.20393,3.87468 l 1.83538,59.54777 -26.103133,-67.90893 -25.28741,1.83538 0,4.6904 c 0.679746,-0.13581 1.427492,-0.20381 2.243238,-0.20393 0.543791,1.2e-4 1.223559,0.0681 2.039307,0.20393 0.95165,1.2e-4 1.767373,0.0681 2.447169,0.20393 1.223554,1.08775 1.835347,2.85515 1.835376,5.3022 l -1.835376,76.88189 c -2.8e-5,0.54384 -0.068,1.8354 -0.203931,3.87468 -0.135982,1.90338 -0.475865,3.46685 -1.019654,4.69041 -0.679796,1.22361 -1.563494,2.24326 -2.651099,3.05896 -0.951701,0.6798 -2.379215,1.15563 -4.282545,1.42751 l 0,4.48648 26.307063,1.83538 0,-4.48648 c -1.903397,-0.40785 -3.466864,-1.01963 -4.690406,-1.83538 -1.08767,-0.95165 -1.903393,-2.03928 -2.447169,-3.26289 -0.543853,-1.22355 -0.883738,-2.51512 -1.019654,-3.87468 -0.135996,-1.35951 -0.203967,-2.71905 -0.20393,-4.07862 l 1.835376,-68.11286 34.668228,89.32166 8.15722,0 c -0.27198,-5.846 -0.61187,-12.37177 -1.01965,-19.57735 -0.40794,-7.34146 -0.8158,-14.75095 -1.22358,-22.22845 -0.40794,-7.61336 -0.81581,-15.02283 -1.22359,-22.22845 -0.40794,-7.34142 -0.74782,-13.93518 -1.01965,-19.78128 -0.27199,-5.98187 -0.54389,-10.87619 -0.81572,-14.68301 -0.13603,-3.94255 -0.20401,-6.32174 -0.20393,-7.13758 -8e-5,-1.08751 0.0679,-2.24312 0.20393,-3.46682 0.13588,-1.35941 0.67969,-2.71895 1.63144,-4.07861 0.27183,-0.40774 1.15553,-0.67965 2.6511,-0.81573 1.49541,-0.27178 2.78697,-0.47571 3.87468,-0.61179 l 0,-4.69041"
       style="font-size:144px;font-style:normal;font-variant:normal;font-weight:bold;font-stretch:normal;line-height:125%;letter-spacing:0px;word-spacing:0px;fill:#81bbe1;fill-opacity:1;stroke:none;font-family:Horseshoes and Lemonade;-inkscape-font-specification:Horseshoes and Lemonade Bold"
       id="path3049"
       inkscape:connector-curvature="0"
       sodipodi:nodetypes="ccccccccccccccccccccccccccccccccccccccccc" />
  </g>
  <g
     style="font-size:4px;font-style:normal;font-variant:normal;font-weight:bold;font-stretch:normal;line-height:125%;letter-spacing:0px;word-spacing:0px;fill:#000000;fill-opacity:1;stroke:none;font-family:Ubuntu;-inkscape-font-specification:Sans Bold"
     transform="matrix(1.4161856,0,0,1.4161856,109.54661,-343.51067)"
     id="g3108">
    <g
       id="g3103"
       transform="matrix(0.70612214,0,0,0.70612214,-35.692081,379.19513)">
      <path
         sodipodi:nodetypes="ccccc"
         d="m 260.52854,53.86179 10.19654,-160.69741 78.51333,-4.07861 8.36116,157.63845 -97.07103,7.13757"
         style="font-size:144px;font-style:normal;font-variant:normal;font-weight:bold;font-stretch:normal;line-height:125%;letter-spacing:0px;word-spacing:0px;fill:#3659a9;fill-opacity:1;stroke:none;font-family:Horseshoes and Lemonade;-inkscape-font-specification:Horseshoes and Lemonade Bold"
         id="path3068"
         inkscape:connector-curvature="0" />
    </g>
    <path
       d="m 209.36619,358.90813 -22.032,-1.152 -0.144,4.752 c 0.38396,-0.096 0.67196,-0.14395 0.864,-0.144 0.28796,5e-5 0.52796,5e-5 0.72,0 0.95995,5e-5 1.82395,0.096 2.592,0.288 0.28795,0.19205 0.52795,0.91205 0.72,2.16 0.19195,1.24804 0.33595,2.30404 0.432,3.168 l -0.72,12.816 c -0.096,1.72803 -0.33605,3.36003 -0.72,4.896 -0.28805,1.53602 -0.81605,3.21602 -1.584,5.04 -1.15204,2.20802 -2.83204,3.31202 -5.04,3.312 -1.44004,2e-5 -2.64004,-0.47998 -3.6,-1.44 -0.86404,-1.05598 -1.53603,-2.39998 -2.016,-4.032 -0.57603,-2.11198 -1.10403,-4.46397 -1.584,-7.056 -0.38403,-2.68797 -0.72003,-5.47197 -1.008,-8.352 -0.28803,-2.87996 -0.52803,-5.71196 -0.72,-8.496 -0.096,-2.87995 -0.14403,-5.56795 -0.144,-8.064 -3e-5,-0.096 -3e-5,-0.52795 0,-1.296 -3e-5,-0.76794 -0.048,-1.63194 -0.144,-2.592 -3e-5,-1.05594 -3e-5,-2.15994 0,-3.312 -3e-5,-1.24794 -3e-5,-2.44794 0,-3.6 -3e-5,-2.01593 0.096,-4.31993 0.288,-6.912 0.28797,-2.59193 0.71997,-5.03992 1.296,-7.344 0.57597,-2.30392 1.39197,-4.22392 2.448,-5.76 1.05596,-1.63191 2.39996,-2.44791 4.032,-2.448 4.31996,9e-5 7.53595,1.87209 9.648,5.616 2.20795,3.74408 3.83995,8.92807 4.896,15.552 l 3.888,0 -1.584,-29.52 -5.76,0.576 1.008,8.784 -4.176,-2.304 c -1.05605,-0.57591 -2.25604,-1.05591 -3.6,-1.44 -1.24804,-0.47991 -2.54404,-0.71991 -3.888,-0.72 -4.32003,9e-5 -7.96803,1.10409 -10.944,3.312 -2.88003,2.11209 -5.28002,4.80008 -7.2,8.064 -1.92002,3.07208 -3.16802,6.72007 -3.744,10.944 -0.48002,4.12806 -0.72002,8.30406 -0.72,12.528 -2e-5,2.49605 0.096,5.13605 0.288,7.92 0.28798,2.78405 0.71998,5.61604 1.296,8.496 0.57598,2.88004 1.29598,5.76003 2.16,8.64 0.95998,2.78403 2.11198,5.42403 3.456,7.92 3.55197,6.72002 8.73597,10.08001 15.552,10.08 2.78396,10e-6 5.23196,-0.62399 7.344,-1.872 2.11195,-1.24798 4.27195,-3.31198 6.48,-6.192 l 0.144,10.512 4.608,0 c 0.38394,-8.06398 0.67194,-14.44798 0.864,-19.152 0.19194,-4.70397 0.33594,-8.25596 0.432,-10.656 0.19194,-2.39996 0.33594,-3.98396 0.432,-4.752 0.0959,-0.86395 0.28794,-1.43995 0.576,-1.728 0.76794,-0.096 1.43994,-0.19195 2.016,-0.288 0.67194,-0.096 1.39194,-0.19195 2.16,-0.288 l 0.432,-4.464"
       style="font-size:144px;fill:#81bbe1;fill-opacity:1;font-family:Horseshoes and Lemonade;-inkscape-font-specification:Horseshoes and Lemonade Bold"
       id="path3053"
       inkscape:connector-curvature="0"
       sodipodi:nodetypes="cccccccccccccccccccccccscccccccccccccccccccsscccccccccc" />
  </g>
  <g
     id="g3146"
     transform="translate(10.253048,137.17871)">
    <path
       sodipodi:nodetypes="ccccc"
       d="m 719.00494,166.25599 3.46682,-167.22319584 84.83521,-6.11792206 10.1965,162.9406479 -98.49853,10.40047"
       style="font-size:144px;font-style:normal;font-variant:normal;font-weight:bold;font-stretch:normal;line-height:125%;letter-spacing:0px;word-spacing:0px;fill:#3659a9;fill-opacity:1;stroke:none;font-family:Horseshoes and Lemonade;-inkscape-font-specification:Horseshoes and Lemonade Bold"
       id="path3074"
       inkscape:connector-curvature="0" />
    <path
       sodipodi:nodetypes="ccccccccccccccccccccccccccc"
       d="m 797.24674,21.954794 -61.58708,5.71006 1.63144,33.240712 5.50613,-1.22359 c 0.27188,-3.67065 0.8157,-7.3414 1.63145,-11.01226 0.95165,-3.80659 2.17523,-6.86555 3.67075,-9.17688 1.90331,-1.35942 4.41846,-2.3111 7.54544,-2.85503 l 3.26289,90.545244 c -0.27195,1.90338 -0.81577,3.60281 -1.63145,5.09827 -0.81576,1.35955 -1.97137,2.31123 -3.46682,2.85503 -0.67981,1e-5 -1.42756,1e-5 -2.24324,0 -0.67981,1e-5 -1.35958,0.068 -2.0393,0.20393 l 0,6.52578 32.62891,-1.63144 0,-6.52578 c -1.22365,-0.13596 -2.37926,-0.40785 -3.46682,-0.81573 -1.0877,-0.40783 -1.9714,-1.15558 -2.6511,-2.24324 -0.54387,-1.0876 -0.88376,-2.31118 -1.01965,-3.67075 -0.13596,-1.49546 -0.20399,-2.65107 -0.20393,-3.46682 l 0.20393,-89.525594 5.50613,0.61179 c 1.35946,0.54393 2.58305,1.63156 3.67075,3.26289 1.08756,1.49561 2.03924,3.33099 2.85503,5.50613 0.81565,2.17538 1.49542,4.55456 2.03931,7.13758 0.67969,2.44727 1.2235,4.89444 1.63143,7.34151 l 4.4865,0 2.0393,-35.891812"
       style="font-size:144px;font-style:normal;font-variant:normal;font-weight:bold;font-stretch:normal;line-height:125%;letter-spacing:0px;word-spacing:0px;fill:#81bbe1;fill-opacity:1;stroke:none;font-family:Horseshoes and Lemonade;-inkscape-font-specification:Horseshoes and Lemonade Bold"
       id="path3059"
       inkscape:connector-curvature="0" />
  </g>
  <g
     id="g3150"
     transform="translate(-119.82947,37.162951)">
    <path
       sodipodi:nodetypes="ccccc"
       d="m 984.17564,131.64987 3.2629,-166.815338 82.79586,4.078615 12.0319,152.744113 -98.09066,9.99261"
       style="font-size:144px;font-style:normal;font-variant:normal;font-weight:bold;font-stretch:normal;line-height:125%;letter-spacing:0px;word-spacing:0px;fill:#3659a9;fill-opacity:1;stroke:none;font-family:Horseshoes and Lemonade;-inkscape-font-specification:Horseshoes and Lemonade Bold"
       id="path3076"
       inkscape:connector-curvature="0" />
    <path
       sodipodi:nodetypes="ccccccccccsccccccccccccccccccccscccccccccccsccccccccsscccccccccc"
       d="m 1060.8159,79.373944 c -10e-5,-4.07855 -0.476,-7.68133 -1.4276,-10.80832 -0.9517,-3.26284 -2.1753,-6.253818 -3.6707,-8.972958 -1.6315,-2.990911 -3.6029,-5.709991 -5.914,-8.157231 -2.1753,-2.44709 -4.4865,-4.75829 -6.9336,-6.93364 -2.4473,-2.31113 -4.8944,-4.69032 -7.3415,-7.13758 -2.3113,-2.44708 -4.4866,-5.3021 -6.5258,-8.56509 -0.6798,-0.95157 -1.6315,-2.24313 -2.8551,-3.87468 -1.0876,-1.63135 -2.1753,-3.46672 -3.2629,-5.50613 -1.0876,-2.17515 -2.1073,-4.48636 -3.0589,-6.93364 -0.8158,-2.44706 -1.2236,-5.0301798 -1.2236,-7.7493698 0,-4.35039596 1.2235,-7.13745 3.6708,-8.361161 2.4471,-1.223457 5.4381,-1.83525 8.9729,-1.835377 2.5831,1.27e-4 4.8263,0.883827 6.7297,2.651099 2.0393,1.767528 3.6027,3.60290404 4.6904,5.50613 2.1752,2.719189 3.8067,5.574219 4.8944,8.5650888 1.0875,2.85515 1.9712,6.11804 2.6511,9.78868 l 5.914,0.40786 0,-35.076087 -8.973,0.815723 c -10e-5,1.223726 -10e-5,2.583264 0,4.0786142 0.136,1.359666 -10e-5,2.447297 -0.4079,3.262892 -0.4079,1.27e-4 -1.2236,-0.27178 -2.4471,-0.815723 -1.0877,-0.543688 -2.3793,-1.15548 -3.8747,-1.835376 -1.3596,-0.679642 -2.8551,-1.29142 -4.4865,-1.835377 -1.4955,-0.5436742 -2.7871,-0.8155812 -3.8747,-0.8157232 -4.2146,-0.135812 -7.8174,0.543957 -10.8083,2.0393072 -2.8551,1.359666 -5.5741,3.398973 -8.1572,6.117922 -1.3596,1.76752704 -2.4472,3.670881 -3.2629,5.710061 -0.8158,1.903477 -1.4955,3.738847 -2.0393,5.506127 -0.4079,1.7675198 -0.6798,3.3309798 -0.8157,4.6904098 -0.136,1.35965 -0.204,2.31133 -0.204,2.85503 0,2.58323 0.136,4.96241 0.4079,7.13757 0.2719,2.03941 0.6797,4.28265 1.2236,6.72972 0.6797,1.90345 1.4275,3.94274 2.2432,6.11792 0.9517,2.03939 1.9713,4.0787 3.059,6.11792 0.8157,1.49558 1.8353,3.05905 3.0589,4.69041 1.2236,1.63152 2.4472,3.19498 3.6708,4.69041 1.2235,1.3596 2.3791,2.65117 3.4668,3.87468 1.2235,1.0877 2.2432,2.039381 3.059,2.855031 5.0302,5.03035 8.8369,8.905028 11.4201,11.624048 2.583,2.58318 4.2825,4.21463 5.0983,4.89434 2.583,2.1753 4.2144,4.35056 4.8943,6.52578 0.6797,2.03935 1.0196,3.9427 1.0196,5.71006 0,1.22363 -0.1359,2.37924 -0.4078,3.46682 -1.0877,4.48651 -2.9231,7.54547 -5.5061,9.17689 -2.4473,1.495516 -5.0984,2.243256 -7.9533,2.243226 -5.0304,3e-5 -9.7888,-2.379156 -14.2752,-7.137566 -4.3506,-4.8943 -8.0893,-13.18748 -11.2162,-24.87955 l -6.1179,-0.40786 2.2432,38.542906 6.9337,0.20393 c 0.2719,-0.81571 0.4078,-1.97132 0.4078,-3.46683 0,-0.40784 0,-0.81569 0,-1.22358 0,-0.54379 -0.068,-1.01962 -0.2039,-1.42751 1.0876,-0.54379 2.1752,-0.8157 3.2629,-0.81573 0.6797,3e-5 1.6994,0.33992 3.059,1.01966 1.4954,0.67979 3.0589,1.42754 4.6904,2.24323 1.7673,0.67979 3.6027,1.35956 5.5061,2.03931 1.9033,0.54383 3.6027,0.81574 5.0983,0.81572 5.1661,2e-5 9.1768,-0.88368 12.0319,-2.6511 2.9909,-1.76737 5.3701,-3.39881 7.1375,-4.894326 1.9033,-2.17524 3.4668,-4.96229 4.6905,-8.36116 1.3594,-3.39881 2.0392,-7.47742 2.0393,-12.23585"
       style="font-size:144px;font-style:normal;font-variant:normal;font-weight:bold;font-stretch:normal;line-height:125%;letter-spacing:0px;word-spacing:0px;fill:#81bbe1;fill-opacity:1;stroke:none;font-family:Horseshoes and Lemonade;-inkscape-font-specification:Horseshoes and Lemonade Bold"
       id="path3061"
       inkscape:connector-curvature="0" />
  </g>
  <g
     style="font-size:4px;font-style:normal;font-variant:normal;font-weight:bold;font-stretch:normal;line-height:125%;letter-spacing:0px;word-spacing:0px;fill:#000000;fill-opacity:1;stroke:none;font-family:Ubuntu;-inkscape-font-specification:Sans Bold"
     id="g3113"
     transform="matrix(1.4161856,0,0,1.4161856,243.04661,-291.51067)">
    <g
       transform="matrix(0.70612214,0,0,0.70612214,-35.692081,379.19513)"
       id="g3115">
      <path
         inkscape:connector-curvature="0"
         id="path3117"
         style="font-size:144px;font-style:normal;font-variant:normal;font-weight:bold;font-stretch:normal;line-height:125%;letter-spacing:0px;word-spacing:0px;fill:#3659a9;fill-opacity:1;stroke:none;font-family:Horseshoes and Lemonade;-inkscape-font-specification:Horseshoes and Lemonade Bold"
         d="m 260.52854,53.86179 10.19654,-160.69741 78.51333,-4.07861 2.36116,157.63845 -91.07103,7.13757"
         sodipodi:nodetypes="ccccc" />
    </g>
    <path
       sodipodi:nodetypes="cccccccccccccccccccccccscccccccccccccccccccsscccccccccc"
       inkscape:connector-curvature="0"
       id="path3119"
       style="font-size:144px;fill:#81bbe1;fill-opacity:1;font-family:Horseshoes and Lemonade;-inkscape-font-specification:Horseshoes and Lemonade Bold"
       d="m 206.54171,364.55709 -22.032,-1.152 -0.144,4.752 c 0.38396,-0.096 0.67196,-0.14395 0.864,-0.144 0.28796,5e-5 0.52796,5e-5 0.72,0 0.95995,5e-5 1.82395,0.096 2.592,0.288 0.28795,0.19205 0.52795,0.91205 0.72,2.16 0.19195,1.24804 0.33595,2.30404 0.432,3.168 l -0.72,12.816 c -0.096,1.72803 -0.33605,3.36003 -0.72,4.896 -0.28805,1.53602 -0.81605,3.21602 -1.584,5.04 -1.15204,2.20802 -2.83204,3.31202 -5.04,3.312 -1.44004,2e-5 -2.64004,-0.47998 -3.6,-1.44 -0.86404,-1.05598 -1.53603,-2.39998 -2.016,-4.032 -0.57603,-2.11198 -1.10403,-4.46397 -1.584,-7.056 -0.38403,-2.68797 -0.72003,-5.47197 -1.008,-8.352 -0.28803,-2.87996 -0.52803,-5.71196 -0.72,-8.496 -0.096,-2.87995 -0.14403,-5.56795 -0.144,-8.064 -3e-5,-0.096 -3e-5,-0.52795 0,-1.296 -3e-5,-0.76794 -0.048,-1.63194 -0.144,-2.592 -3e-5,-1.05594 -3e-5,-2.15994 0,-3.312 -3e-5,-1.24794 -3e-5,-2.44794 0,-3.6 -3e-5,-2.01593 0.096,-4.31993 0.288,-6.912 0.28797,-2.59193 0.71997,-5.03992 1.296,-7.344 0.57597,-2.30392 1.39197,-4.22392 2.448,-5.76 1.05596,-1.63191 2.39996,-2.44791 4.032,-2.448 4.31996,9e-5 7.53595,1.87209 9.648,5.616 2.20795,3.74408 3.83995,8.92807 4.896,15.552 l 3.888,0 -1.584,-29.52 -5.76,0.576 1.008,8.784 -4.176,-2.304 c -1.05605,-0.57591 -2.25604,-1.05591 -3.6,-1.44 -1.24804,-0.47991 -2.54404,-0.71991 -3.888,-0.72 -4.32003,9e-5 -7.96803,1.10409 -10.944,3.312 -2.88003,2.11209 -5.28002,4.80008 -7.2,8.064 -1.92002,3.07208 -3.16802,6.72007 -3.744,10.944 -0.48002,4.12806 -0.72002,8.30406 -0.72,12.528 -2e-5,2.49605 0.096,5.13605 0.288,7.92 0.28798,2.78405 0.71998,5.61604 1.296,8.496 0.57598,2.88004 1.29598,5.76003 2.16,8.64 0.95998,2.78403 2.11198,5.42403 3.456,7.92 3.55197,6.72002 8.73597,10.08001 15.552,10.08 2.78396,10e-6 5.23196,-0.62399 7.344,-1.872 2.11195,-1.24798 4.27195,-3.31198 6.48,-6.192 l 0.144,10.512 4.608,0 c 0.38394,-8.06398 0.67194,-14.44798 0.864,-19.152 0.19194,-4.70397 0.33594,-8.25596 0.432,-10.656 0.19194,-2.39996 0.33594,-3.98396 0.432,-4.752 0.0959,-0.86395 0.28794,-1.43995 0.576,-1.728 0.76794,-0.096 1.43994,-0.19195 2.016,-0.288 0.67194,-0.096 1.39194,-0.19195 2.16,-0.288 l 0.432,-4.464" />
  </g>
  <g
     id="g3138">
    <path
       d="m 179.98427,301.93975 8.80304,-147.59138 71.92269,-3.55867 9.36494,145.34379 -90.09067,5.80626"
       style="font-size:144px;font-style:normal;font-variant:normal;font-weight:bold;font-stretch:normal;line-height:125%;letter-spacing:0px;word-spacing:0px;fill:#3659a9;fill-opacity:1;stroke:none;font-family:Horseshoes and Lemonade;-inkscape-font-specification:Horseshoes and Lemonade Bold"
       id="path3051"
       inkscape:connector-curvature="0"
       sodipodi:nodetypes="ccccc" />
    <path
       d="m 259.13874,171.03119 -22.84024,-0.40786 0,4.89434 c 1.35947,0.54394 2.51507,1.08776 3.46682,1.63144 0.95161,0.40799 1.97126,1.01979 3.05896,1.83538 0.95161,1.49561 1.42745,3.12705 1.42752,4.89434 0.13595,1.76751 0.27183,3.33098 0.40786,4.69041 l 3.67075,70.56003 c 0.13581,2.44721 -8e-5,5.03033 -0.40786,7.74937 -0.40793,2.7191 -1.15568,5.23425 -2.24324,7.54543 -1.35961,2.71911 -3.12701,4.62246 -5.3022,5.71006 -2.17533,0.95169 -4.55452,1.42753 -7.13757,1.42752 -3.12699,1e-5 -5.64214,-0.61178 -7.54543,-1.83538 -1.90341,-1.22356 -3.39891,-2.99095 -4.48648,-5.3022 -0.67983,-1.76737 -1.15566,-4.01061 -1.42752,-6.72971 -0.27195,-2.85499 -0.4079,-5.64204 -0.40786,-8.36116 l -1.01965,-66.07356 c -4e-5,-1.90324 0.4758,-3.60266 1.42751,-5.09827 1.08758,-1.49537 2.85498,-2.92289 5.3022,-4.28254 l 0,-4.89434 -32.22105,-1.22358 0,4.89433 3.46682,0.6118 c 2.31119,1.08774 3.46679,2.78716 3.46682,5.09826 l 1.01966,71.78362 c -3e-5,4.48652 0.40783,8.49714 1.22358,12.03191 0.95165,3.39888 2.37916,6.32188 4.28255,8.76903 2.03927,2.31122 4.75834,4.07862 8.15723,5.30219 3.3988,1.2236 7.68133,1.83539 12.84763,1.83538 4.48642,1e-5 8.49704,-0.47582 12.03191,-1.42751 3.53473,-1.08762 6.59369,-3.12693 9.17688,-6.11793 1.90327,-2.31118 3.46674,-5.43812 4.69041,-9.38081 1.2235,-3.94263 1.69934,-8.29314 1.42751,-13.05157 l -3.67075,-69.54037 c 0.13581,-1.90324 0.27182,-3.67064 0.40786,-5.3022 0.27183,-1.76729 0.74766,-3.1948 1.42752,-4.28255 0.54373,-0.54369 1.42743,-1.0875 2.6511,-1.63144 1.35945,-0.54369 2.58304,-1.01953 3.67075,-1.42752 l 0,-4.89434"
       style="font-size:144px;font-style:normal;font-variant:normal;font-weight:bold;font-stretch:normal;line-height:125%;letter-spacing:0px;word-spacing:0px;fill:#81bbe1;fill-opacity:1;stroke:none;font-family:Horseshoes and Lemonade;-inkscape-font-specification:Horseshoes and Lemonade Bold"
       id="path3066"
       inkscape:connector-curvature="0"
       sodipodi:nodetypes="ccccccccccccccccccccccccccccscccccccccc" />
  </g>
</svg>
